<svg width="25" height="25" viewBox="0 0 25 25" fill="none" xmlns="http://www.w3.org/2000/svg">
<circle cx="12.498" cy="12.5" r="12.5" fill="white"/>
<path d="M12.5803 9.2169C13.3802 9.35096 14.1069 9.72878 14.687 10.3077C15.2671 10.8866 15.6426 11.6118 15.78 12.41M12.7025 6.59961C14.1252 6.84031 15.4228 7.51368 16.4548 8.54048C17.4867 9.57033 18.1584 10.8653 18.3996 12.2851M17.2882 17.9341C17.2882 17.9341 16.5158 18.6927 16.3265 18.9152C16.0181 19.2442 15.6548 19.3996 15.1785 19.3996C15.1327 19.3996 15.0839 19.3996 15.0381 19.3966C14.1313 19.3387 13.2886 18.9852 12.6566 18.6836C10.9286 17.8487 9.41117 16.6635 8.15022 15.1614C7.1091 13.9091 6.41299 12.7513 5.95197 11.5082C5.66803 10.7495 5.56422 10.1584 5.61002 9.6008C5.64055 9.24431 5.77794 8.94876 6.03135 8.69587L7.07247 7.65688C7.22207 7.51672 7.38083 7.44055 7.53654 7.44055C7.72889 7.44055 7.8846 7.55633 7.9823 7.65383C7.98535 7.65688 7.98841 7.65993 7.99146 7.66297C8.1777 7.83665 8.35478 8.01641 8.54102 8.20837C8.63567 8.30587 8.73337 8.40337 8.83107 8.50392L9.66458 9.33572C9.98821 9.65869 9.98821 9.95728 9.66458 10.2803C9.57603 10.3686 9.49055 10.457 9.40201 10.5423C9.14554 10.8043 9.34701 10.6033 9.08139 10.8409C9.07528 10.847 9.06917 10.8501 9.06612 10.8562C8.80355 11.1182 8.8524 11.3741 8.90736 11.5478C8.91041 11.5569 8.91346 11.5661 8.91652 11.5752C9.13329 12.0993 9.4386 12.5929 9.90268 13.1809L9.90573 13.184C10.7484 14.2199 11.6369 15.0274 12.6169 15.6459C12.7421 15.7251 12.8703 15.7891 12.9924 15.85C13.1024 15.9049 13.2062 15.9567 13.2947 16.0115C13.3069 16.0176 13.3191 16.0267 13.3313 16.0328C13.4352 16.0846 13.5329 16.109 13.6336 16.109C13.887 16.109 14.0458 15.9506 14.0977 15.8988L14.6961 15.3015C14.7999 15.1979 14.9648 15.073 15.1572 15.073C15.3465 15.073 15.5022 15.1918 15.5968 15.2954C15.5999 15.2985 15.5999 15.2985 15.6029 15.3015L17.2852 16.9804C17.5997 17.2912 17.2882 17.9341 17.2882 17.9341Z" stroke="#153D1F" stroke-width="1.5" stroke-linecap="round" stroke-linejoin="round"/>
</svg>
