<svg width="166" height="48" viewBox="0 0 166 48" fill="none" xmlns="http://www.w3.org/2000/svg">
<path d="M48.1878 22.4266C48.1878 29.5583 45.237 35.9923 40.4891 40.5638C38.2939 39.9173 36.2671 38.8809 34.4905 37.5264C39.0392 34.0785 41.9798 28.5937 41.9798 22.4266C41.9798 16.2594 39.0392 10.7797 34.4905 7.33186C29.9366 10.7797 26.996 16.2594 26.996 22.4266C26.996 27.4393 28.936 31.9954 32.1012 35.3817C29.2372 32.3597 25.638 30.0611 21.5896 28.7682C21.0689 26.7415 20.7881 24.6174 20.7881 22.4266C20.7881 15.2999 23.7389 8.86083 28.4868 4.28932C30.2583 2.57564 32.2799 1.12877 34.4905 0C36.7062 1.12877 38.7227 2.58077 40.4942 4.28932C45.2319 8.86596 48.1878 15.2999 48.1878 22.4266Z" fill="#A4C241"/>
<path d="M34.4889 44.8538C33.5649 45.3258 32.6051 45.7414 31.6096 46.0954C28.9753 47.0497 26.1368 47.5679 23.1757 47.5679C14.9206 47.5679 7.60482 43.5506 3.05097 37.3577C1.8155 35.68 0.784251 33.8483 -0.00195312 31.8935C1.7134 30.7288 3.57681 29.7745 5.55763 29.0664C6.3132 31.0879 7.40061 32.9504 8.7586 34.5768C12.2097 38.7071 17.3864 41.3392 23.1757 41.3392C24.9881 41.3392 26.7443 41.0827 28.4086 40.5952C28.4086 40.5952 28.4545 40.585 28.4801 40.5696C30.2516 42.2832 32.2732 43.7301 34.4838 44.8589L34.4889 44.8538Z" fill="#A4C241"/>
<path d="M64.8751 38.6808C60.2958 44.1143 53.4446 47.5622 45.7969 47.5622C43.1473 47.5622 40.5998 47.1466 38.2004 46.3821C36.9139 45.9665 35.6682 45.4586 34.4838 44.848C32.2681 43.7244 30.2516 42.2724 28.48 40.5587C28.4545 40.569 28.4341 40.5792 28.4086 40.5844C24.9626 36.4541 19.7859 33.822 13.9965 33.822C12.1791 33.822 10.4229 34.0786 8.75859 34.566C7.4006 32.9395 6.31319 31.0771 5.55762 29.0555C8.19191 28.1012 11.0355 27.583 13.9965 27.583C16.6462 27.583 19.1937 27.9986 21.5931 28.7631C25.6415 30.056 29.2407 32.3597 32.1048 35.3766C32.1303 35.4074 32.1609 35.4382 32.1864 35.4639C32.8961 36.213 33.6669 36.9005 34.4889 37.5213C36.2655 38.8707 38.2974 39.9071 40.4875 40.5587C42.1722 41.0615 43.954 41.3232 45.7969 41.3232C51.6424 41.3232 56.8702 38.6398 60.3162 34.4377L64.8751 38.6706V38.6808Z" fill="url(#paint0_linear_642_7705)"/>
<path d="M78.7925 40.6455V45.9199H78.1492L75.6681 42.0462V45.9199H74.9482V40.6455H75.6017L78.0828 44.5192V40.6455H78.7925Z" fill="#283760"/>
<path d="M84.2637 44.5038H82.1705L81.6753 45.9199H80.8789L82.8036 40.6455H83.6306L85.5553 45.9199H84.7589L84.2586 44.5038H84.2637ZM84.0288 43.8266L83.2171 41.528L82.4054 43.8266H84.0237H84.0288Z" fill="#283760"/>
<path d="M90.5439 41.3228H88.9766V45.9199H88.2568V41.3228H86.6895V40.6455H90.5439V41.3228Z" fill="#283760"/>
<path d="M92.633 43.5187V40.6455H93.3733V43.5187C93.3733 44.8271 93.7102 45.3248 94.5934 45.3248C95.4766 45.3248 95.8085 44.8425 95.8085 43.5187V40.6455H96.5487V43.5187C96.5487 44.9553 96.1148 46.0174 94.5934 46.0174C93.0721 46.0174 92.6279 44.9861 92.6279 43.5187H92.633Z" fill="#283760"/>
<path d="M100.621 43.7342H99.8097V45.9199H99.0898V40.6455H101.127C102.087 40.6455 102.674 41.2766 102.674 42.1899C102.674 42.9954 102.209 43.5906 101.438 43.7137L102.781 45.9199H101.882L100.621 43.7342ZM99.8097 43.0416H101.122C101.648 43.0416 101.923 42.7389 101.923 42.1899C101.923 41.6409 101.648 41.3382 101.122 41.3382H99.8097V43.0416Z" fill="#283760"/>
<path d="M107.801 44.5038H105.708L105.212 45.9199H104.416L106.341 40.6455H107.168L109.092 45.9199H108.296L107.796 44.5038H107.801ZM107.571 43.8266L106.759 41.528L105.948 43.8266H107.566H107.571Z" fill="#283760"/>
<path d="M114.346 45.2427V45.9199H111.191V40.6455H111.911V45.2427H114.346Z" fill="#283760"/>
<path d="M123.094 42.3797C123.094 43.4059 122.44 44.119 121.378 44.119H120.276V45.9199H119.556V40.6455H121.378C122.44 40.6455 123.094 41.3536 123.094 42.3797ZM122.343 42.3797C122.343 41.7178 121.996 41.3382 121.368 41.3382H120.276V43.4264H121.368C121.996 43.4264 122.343 43.0518 122.343 42.3797Z" fill="#283760"/>
<path d="M126.855 43.7342H126.043V45.9199H125.323V40.6455H127.36C128.32 40.6455 128.907 41.2766 128.907 42.1899C128.907 42.9954 128.443 43.5906 127.672 43.7137L129.014 45.9199H128.116L126.855 43.7342ZM126.043 43.0416H127.355C127.881 43.0416 128.157 42.7389 128.157 42.1899C128.157 41.6409 127.881 41.3382 127.355 41.3382H126.043V43.0416Z" fill="#283760"/>
<path d="M130.791 43.2825C130.791 41.6715 131.832 40.5479 133.242 40.5479C134.651 40.5479 135.702 41.6715 135.702 43.2825C135.702 44.8936 134.661 46.0172 133.242 46.0172C131.822 46.0172 130.791 44.8936 130.791 43.2825ZM134.952 43.2825C134.952 42.0717 134.252 41.2405 133.242 41.2405C132.231 41.2405 131.541 42.0717 131.541 43.2825C131.541 44.4934 132.231 45.3246 133.242 45.3246C134.252 45.3246 134.952 44.4985 134.952 43.2825Z" fill="#283760"/>
<path d="M142.153 43.2827C142.153 44.8938 141.111 45.9199 139.692 45.9199H137.931V40.6455H139.692C141.111 40.6455 142.153 41.6717 142.153 43.2827ZM141.402 43.2827C141.402 42.0975 140.733 41.3382 139.692 41.3382H138.651V45.2273H139.692C140.733 45.2273 141.402 44.4679 141.402 43.2827Z" fill="#283760"/>
<path d="M144.348 43.5187V40.6455H145.088V43.5187C145.088 44.8271 145.425 45.3248 146.308 45.3248C147.191 45.3248 147.523 44.8425 147.523 43.5187V40.6455H148.264V43.5187C148.264 44.9553 147.83 46.0174 146.308 46.0174C144.787 46.0174 144.343 44.9861 144.343 43.5187H144.348Z" fill="#283760"/>
<path d="M150.464 43.2825C150.464 41.6612 151.506 40.5479 152.884 40.5479C153.762 40.5479 154.451 40.9994 154.824 41.5484L154.227 41.9691C153.92 41.4919 153.43 41.2405 152.884 41.2405C151.919 41.2405 151.199 42.0614 151.199 43.2825C151.199 44.5037 151.899 45.3246 152.884 45.3246C153.446 45.3246 153.956 45.0527 154.262 44.5396L154.855 44.9603C154.405 45.6837 153.65 46.0172 152.874 46.0172C151.485 46.0172 150.459 44.8885 150.459 43.2825H150.464Z" fill="#283760"/>
<path d="M160.477 41.3228H158.91V45.9199H158.19V41.3228H156.623V40.6455H160.477V41.3228Z" fill="#283760"/>
<path d="M162.175 45.3664L162.527 44.7353C162.956 45.0893 163.584 45.3253 164.161 45.3304C164.799 45.3407 165.238 45.0431 165.238 44.489C165.238 43.8477 164.666 43.7707 164.105 43.6527C162.716 43.35 162.308 42.9754 162.308 42.1904C162.308 40.9231 163.359 40.5537 164.227 40.5537C164.855 40.5537 165.412 40.7436 165.886 41.0565L165.539 41.6671C165.105 41.3746 164.687 41.2464 164.207 41.2464C163.451 41.2464 163.068 41.585 163.068 42.1442C163.068 42.5906 163.313 42.7907 164.237 42.9754C164.83 43.0883 165.999 43.2833 165.999 44.4685C165.999 45.3869 165.279 46.0488 164.145 46.0282C163.313 46.0128 162.512 45.6537 162.175 45.3715V45.3664Z" fill="#283760"/>
<path d="M78.1501 31.9441V35.0584C78.1501 35.1559 78.1757 35.2329 78.2318 35.2893C78.2829 35.3457 78.3339 35.3714 78.3952 35.3714H78.5585V35.9563H78.2165C77.9663 35.9563 77.7672 35.8588 77.6192 35.669C77.2618 35.9204 76.884 36.0487 76.4705 36.0487C75.8987 36.0487 75.4444 35.8229 75.1125 35.3714C74.8368 35.002 74.7041 34.5659 74.7041 34.0528C74.7041 33.4525 74.9032 32.9599 75.2963 32.5649C75.6435 32.2057 76.0723 32.0313 76.5828 32.0313C76.8738 32.0313 77.1648 32.098 77.4609 32.2262L77.8132 31.9441H78.1552H78.1501ZM77.4558 32.8009C77.2159 32.6777 76.9708 32.6213 76.7258 32.6213C76.3122 32.6213 75.9753 32.7855 75.72 33.1139C75.5056 33.3807 75.3984 33.7039 75.3984 34.0682C75.3984 34.5094 75.5005 34.8532 75.7098 35.1046C75.914 35.3355 76.1846 35.4484 76.5267 35.4484C76.8228 35.4484 77.1291 35.3714 77.4507 35.2072V32.7958L77.4558 32.8009ZM76.7513 30.3535C76.8585 30.3535 76.9555 30.3946 77.0321 30.4715C77.1087 30.5536 77.1495 30.646 77.1495 30.7537C77.1495 30.8666 77.1087 30.9692 77.0321 31.0462C76.9504 31.1231 76.8585 31.1642 76.7513 31.1642C76.6441 31.1642 76.5471 31.1231 76.4705 31.0462C76.3888 30.9692 76.3531 30.8666 76.3531 30.7537C76.3531 30.6408 76.3939 30.5485 76.4705 30.4715C76.5471 30.3946 76.6441 30.3535 76.7513 30.3535ZM77.7417 30.3535C77.854 30.3535 77.951 30.3946 78.0327 30.4715C78.1093 30.5536 78.1501 30.646 78.1501 30.7537C78.1501 30.8666 78.1093 30.9692 78.0327 31.0462C77.951 31.1231 77.854 31.1642 77.7417 31.1642C77.6294 31.1642 77.5375 31.1231 77.4609 31.0462C77.3792 30.9692 77.3435 30.8666 77.3435 30.7537C77.3435 30.6408 77.3843 30.5485 77.4609 30.4715C77.5375 30.3946 77.6345 30.3535 77.7417 30.3535Z" fill="#283760"/>
<path d="M80.0163 35.3662V35.9511H78.5V35.3662H80.0163Z" fill="#283760"/>
<path d="M87.1798 12.2927C85.4644 11.8156 83.7542 11.3384 82.0388 10.8613C81.4211 10.6868 80.788 10.5124 80.2622 10.1378C78.9961 9.24506 79.2156 7.9162 80.3439 7.12093C81.758 6.12556 83.6725 5.91007 85.347 5.91007C87.3023 5.91007 90.6564 6.41801 93.1223 9.35281L96.2364 6.65916C96.3028 6.59759 95.3022 5.45343 95.2409 5.38673C91.6571 1.513 85.6533 0.779305 80.7983 2.25696C80.5889 2.32366 80.3745 2.39036 80.1703 2.4622C77.8423 3.27799 75.7492 4.80695 75.1417 7.33129C74.4474 10.2045 76.0402 12.7494 78.506 14.109C80.7064 15.3199 83.2283 15.679 85.6329 16.2742C86.9143 16.5923 88.2059 16.895 89.4363 17.3825C90.2123 17.6903 92.5198 18.5369 92.1318 19.7169C91.7234 20.9483 90.2684 21.4306 89.1351 21.6666C86.9603 22.1181 84.6731 22.0514 82.5289 21.4717C81.661 21.2408 80.8289 20.8868 80.058 20.425C79.8283 20.2865 77.6075 18.5728 77.7453 18.4548C75.9126 20.0094 74.5597 21.2203 74.5597 21.2203C74.4576 21.3126 75.9534 22.7646 76.0453 22.8416C77.485 24.1038 79.2156 25.0119 81.0331 25.5917C85.3062 26.9462 91.1925 26.859 94.6232 23.524C95.7668 22.4157 96.4304 20.9329 96.4304 19.3321C96.4304 14.5503 90.7892 13.3035 87.1798 12.2979V12.2927Z" fill="#283760"/>
<path d="M104.19 1.73926H99.9531V26.0129H104.19V1.73926Z" fill="#283760"/>
<path d="M136.816 1.73926H132.579V26.0129H136.816V1.73926Z" fill="#283760"/>
<path d="M161.033 26.0129H165.975L154.958 3.49398L154.646 2.85776L154.1 1.73926H151.037L150.491 2.86289L150.179 3.49398L139.162 26.0129H144.104L147.228 19.5327H157.842L161.038 26.0129H161.033ZM149.342 15.1511L152.477 8.65039L155.683 15.1511H149.347H149.342Z" fill="#283760"/>
<path d="M124.407 3.06733C121.814 1.68716 118.93 1.70255 116.826 1.71281L111.752 1.73847H108.755V26.0121H112.992V18.7983C114.039 18.7983 115.08 18.7983 116.127 18.7983C116.484 18.7983 116.847 18.7983 117.204 18.8034C117.536 18.8034 117.868 18.8136 118.205 18.8136C118.266 18.8136 118.327 18.8136 118.394 18.8136C119.752 19.8347 120.767 20.7531 121.498 21.9075C121.62 22.0973 121.748 22.3282 121.88 22.5694C122.325 23.3698 122.881 24.3651 123.856 25.1245C125.296 26.2379 126.95 26.3918 128.379 26.3918H128.39V21.928H128.379C127.665 21.928 126.95 21.887 126.572 21.5894C126.317 21.3893 126.036 20.8813 125.76 20.3939C125.602 20.1066 125.434 19.809 125.24 19.5063C124.831 18.865 124.372 18.2903 123.887 17.7567C126.036 16.71 127.721 14.8014 128.425 12.5952C129.084 10.5275 128.936 8.34689 128.017 6.61269C127.241 5.13503 125.99 3.91391 124.407 3.06733ZM124.193 11.2355C123.846 12.3335 122.963 13.2878 121.834 13.7958C121.462 13.9651 121.064 14.0882 120.645 14.1703C119.603 14.3755 118.46 14.3601 117.255 14.3448C116.867 14.3448 116.484 14.3345 116.101 14.3345C115.065 14.3345 114.023 14.3345 112.987 14.3345V6.1971L116.847 6.17658C118.965 6.16631 120.839 6.22275 122.33 7.01289C123.111 7.42848 123.739 8.02878 124.091 8.70091C124.438 9.36278 124.479 10.3325 124.193 11.2355Z" fill="#283760"/>
<path d="M81.4733 35.3662V35.9511H79.957V35.3662H81.4733Z" fill="#283760"/>
<path d="M82.9303 35.3662V35.9511H81.4141V35.3662H82.9303Z" fill="#283760"/>
<path d="M84.0162 33.5042C84.2051 33.022 84.5267 32.6474 84.9759 32.3755C85.3384 32.1651 85.7111 32.0625 86.0991 32.0625C86.4871 32.0625 86.8598 32.1651 87.212 32.3755C87.6664 32.6423 87.9829 33.022 88.1718 33.5042L88.1003 33.7043C87.7226 33.8634 87.4162 34.0789 87.1763 34.3559C86.9312 34.6433 86.773 34.9768 86.7117 35.3667H88.2586V35.9516H86.5943C86.4309 35.9516 86.2727 35.8747 86.1195 35.7105H86.094C85.9459 35.8695 85.7877 35.9516 85.6192 35.9516H82.8828V35.3667H85.4967C85.4354 35.0332 85.3027 34.7151 85.0883 34.4175C84.8432 34.1097 84.5165 33.8737 84.103 33.6992L84.0213 33.4991L84.0162 33.5042ZM87.4162 33.4222C87.2376 33.1605 87.0334 32.9604 86.8036 32.827C86.5841 32.7141 86.3492 32.6525 86.0991 32.6525C85.8489 32.6525 85.6192 32.7038 85.4201 32.8116C85.1802 32.9347 84.9657 33.1348 84.782 33.4222C85.0678 33.5504 85.3078 33.7249 85.512 33.9558C85.7622 34.2431 85.9561 34.5971 86.0838 35.0281H86.1093C86.2471 34.5817 86.4411 34.2174 86.7015 33.9352C86.9108 33.7146 87.1508 33.5453 87.4214 33.4273L87.4162 33.4222Z" fill="#283760"/>
<path d="M89.7067 35.3662V35.9511H88.1904V35.3662H89.7067Z" fill="#283760"/>
<path d="M91.8223 32.1641V35.1707C91.8223 35.2374 91.8121 35.3041 91.7968 35.3657H92.2307V35.9506H91.9091L91.6691 35.6632H91.6436C91.4955 35.8531 91.3067 35.9506 91.0718 35.9506H89.6475V35.3657H90.8115C90.8982 35.3657 90.9697 35.34 91.0259 35.2836C91.0922 35.222 91.1229 35.145 91.1229 35.0527V32.1641H91.8172H91.8223ZM90.4234 36.8074C90.5307 36.8074 90.6277 36.8484 90.7042 36.9254C90.7808 37.0024 90.8217 37.0999 90.8217 37.2076C90.8217 37.3205 90.7808 37.418 90.7042 37.5001C90.6226 37.577 90.5307 37.6181 90.4234 37.6181C90.3162 37.6181 90.2192 37.577 90.1427 37.5001C90.0661 37.4231 90.0252 37.3205 90.0252 37.2076C90.0252 37.0947 90.0661 37.0024 90.1427 36.9254C90.2192 36.8433 90.3162 36.8074 90.4234 36.8074ZM91.4139 36.8074C91.5262 36.8074 91.6232 36.8484 91.7049 36.9254C91.7865 37.0024 91.8223 37.0999 91.8223 37.2076C91.8223 37.3205 91.7814 37.418 91.7049 37.5001C91.6232 37.577 91.5262 37.6181 91.4139 37.6181C91.3015 37.6181 91.2097 37.577 91.1331 37.5001C91.0565 37.4231 91.0157 37.3205 91.0157 37.2076C91.0157 37.0947 91.0565 37.0024 91.1331 36.9254C91.2097 36.8433 91.3067 36.8074 91.4139 36.8074Z" fill="#283760"/>
<path d="M94.3428 32.1641V35.1707C94.3428 35.2374 94.3326 35.3041 94.3173 35.3657H94.7512V35.9506H94.4296L94.1896 35.6632H94.1641C94.0161 35.8531 93.8272 35.9506 93.5923 35.9506H92.168V35.3657H93.332C93.4188 35.3657 93.4902 35.34 93.5464 35.2836C93.6128 35.222 93.6434 35.145 93.6434 35.0527V32.1641H94.3377H94.3428ZM93.9344 36.8074C94.0467 36.8074 94.1437 36.8484 94.2254 36.9254C94.3071 37.0024 94.3428 37.0999 94.3428 37.2076C94.3428 37.3205 94.302 37.418 94.2254 37.5001C94.1437 37.577 94.0467 37.6181 93.9344 37.6181C93.8221 37.6181 93.7302 37.577 93.6536 37.5001C93.577 37.4231 93.5362 37.3205 93.5362 37.2076C93.5362 37.0947 93.577 37.0024 93.6536 36.9254C93.7302 36.8433 93.8272 36.8074 93.9344 36.8074Z" fill="#283760"/>
<path d="M96.8609 30.0549V33.9748C97.6012 32.7024 98.5865 32.0662 99.8015 32.0662C100.455 32.0662 100.986 32.2663 101.384 32.6665C101.747 33.0359 101.925 33.5028 101.925 34.0723V35.1652C101.925 35.237 101.915 35.3037 101.9 35.3601H102.186V35.9451H102.012L101.772 35.6577H101.747C101.593 35.8476 101.405 35.9451 101.175 35.9451H94.6963V35.3601H96.1717V30.0498H96.8609V30.0549ZM101.221 34.0005C101.221 33.5439 101.052 33.195 100.71 32.9538C100.45 32.764 100.113 32.6665 99.7045 32.6665C99.2399 32.6665 98.8009 32.8102 98.3925 33.0923C97.7594 33.5439 97.2489 34.2981 96.8609 35.3653H100.914C101.119 35.3653 101.216 35.2627 101.216 35.0523V34.0005H101.221Z" fill="#283760"/>
<path d="M104.287 30.0557V35.171C104.287 35.3865 104.215 35.5661 104.072 35.7149C103.924 35.8739 103.746 35.956 103.542 35.956H102.117V35.3711H103.281C103.383 35.3711 103.465 35.3352 103.521 35.2634C103.572 35.2018 103.593 35.1351 103.593 35.0582V30.0608H104.287V30.0557Z" fill="#283760"/>
<path d="M106.115 30.0557V35.8688L105.763 36.1561H105.421V30.0557H106.115Z" fill="#283760"/>
<path d="M115.461 32.164V35.1706C115.461 35.3656 115.4 35.54 115.282 35.6837C115.129 35.8633 114.945 35.9556 114.726 35.9556H110.039C109.723 35.9556 109.447 35.853 109.222 35.6426C108.911 35.3758 108.758 35.0269 108.758 34.596V33.0465L109.11 32.7592H109.452V34.596C109.452 34.8115 109.529 34.991 109.682 35.1398C109.83 35.2937 110.014 35.3707 110.238 35.3707H114.455C114.665 35.3707 114.767 35.2681 114.767 35.0577V32.1691H115.461V32.164ZM111.617 31.9434C111.724 31.9434 111.821 31.9844 111.898 32.0614C111.974 32.1383 112.015 32.2358 112.015 32.3538C112.015 32.4718 111.974 32.5591 111.898 32.636C111.821 32.713 111.724 32.754 111.617 32.754C111.51 32.754 111.407 32.713 111.331 32.636C111.254 32.5591 111.219 32.4616 111.219 32.3538C111.219 32.2409 111.259 32.1435 111.331 32.0614C111.407 31.9793 111.504 31.9434 111.617 31.9434ZM112.607 31.9434C112.719 31.9434 112.816 31.9844 112.898 32.0614C112.98 32.1383 113.016 32.2358 113.016 32.3538C113.016 32.4718 112.975 32.5591 112.898 32.636C112.822 32.713 112.719 32.754 112.607 32.754C112.495 32.754 112.403 32.713 112.326 32.636C112.245 32.5591 112.209 32.4616 112.209 32.3538C112.209 32.2409 112.25 32.1435 112.326 32.0614C112.403 31.9793 112.5 31.9434 112.607 31.9434Z" fill="#283760"/>
<path d="M117.29 30.0549V35.0523C117.29 35.1395 117.316 35.2165 117.372 35.2729C117.433 35.3345 117.51 35.3653 117.602 35.3653H117.709V35.9502H117.331C117.157 35.9502 117.004 35.8937 116.872 35.7757C116.688 35.6167 116.591 35.4114 116.591 35.1652V30.0498H117.285L117.29 30.0549Z" fill="#283760"/>
<path d="M119.171 35.3662V35.9511H117.654V35.3662H119.171Z" fill="#283760"/>
<path d="M120.2 32.3036C120.7 32.1446 121.17 32.0625 121.609 32.0625C122.288 32.0625 122.804 32.2729 123.156 32.6987C123.462 33.063 123.615 33.535 123.615 34.1251V35.1717C123.615 35.2384 123.605 35.3051 123.59 35.3667H123.876V35.9516H123.702L123.472 35.6643H123.447C123.294 35.8541 123.105 35.9516 122.875 35.9516H119.107V35.3667H122.604C122.814 35.3667 122.916 35.2641 122.916 35.0537V34.0994C122.916 33.6736 122.804 33.3349 122.579 33.0887C122.334 32.8167 121.977 32.6782 121.507 32.6782C121.221 32.6782 120.787 32.7398 120.195 32.8578V32.3036H120.2ZM121.175 36.8085C121.287 36.8085 121.384 36.8495 121.466 36.9265C121.548 37.0034 121.583 37.1009 121.583 37.2087C121.583 37.3215 121.543 37.419 121.466 37.5011C121.384 37.5781 121.287 37.6191 121.175 37.6191C121.063 37.6191 120.971 37.5781 120.894 37.5011C120.818 37.419 120.777 37.3215 120.777 37.2087C120.777 37.0958 120.818 37.0034 120.894 36.9265C120.971 36.8444 121.068 36.8085 121.175 36.8085Z" fill="#283760"/>
<path d="M125.338 35.3662V35.9511H123.821V35.3662H125.338Z" fill="#283760"/>
<path d="M127.45 32.1647V35.1713C127.45 35.238 127.44 35.3047 127.425 35.3663H127.859V35.9512H127.537L127.297 35.6639H127.272C127.123 35.8537 126.935 35.9512 126.7 35.9512H125.275V35.3663H126.439C126.526 35.3663 126.598 35.3406 126.654 35.2842C126.72 35.2226 126.751 35.1456 126.751 35.0533V32.1647H127.445H127.45ZM126.123 30.3535C126.235 30.3535 126.332 30.3946 126.409 30.4715C126.485 30.5536 126.521 30.646 126.521 30.7537C126.521 30.8666 126.485 30.9692 126.409 31.0462C126.332 31.1231 126.235 31.1642 126.123 31.1642C126.011 31.1642 125.919 31.1231 125.842 31.0462C125.76 30.9692 125.725 30.8666 125.725 30.7537C125.725 30.6408 125.765 30.5485 125.842 30.4715C125.919 30.3946 126.016 30.3535 126.123 30.3535ZM127.123 30.3535C127.231 30.3535 127.328 30.3946 127.404 30.4715C127.481 30.5485 127.522 30.646 127.522 30.7537C127.522 30.8666 127.481 30.9692 127.404 31.0462C127.328 31.1231 127.231 31.1642 127.123 31.1642C127.011 31.1642 126.914 31.1231 126.832 31.0462C126.751 30.9692 126.715 30.8666 126.715 30.7537C126.715 30.6408 126.756 30.5485 126.832 30.4715C126.909 30.3946 127.006 30.3535 127.123 30.3535Z" fill="#283760"/>
<path d="M129.971 32.1647V35.1713C129.971 35.238 129.961 35.3047 129.945 35.3663H130.379V35.9512H130.058L129.818 35.6639H129.792C129.644 35.8537 129.455 35.9512 129.22 35.9512H127.796V35.3663H128.96C129.047 35.3663 129.118 35.3406 129.174 35.2842C129.241 35.2226 129.271 35.1456 129.271 35.0533V32.1647H129.966H129.971ZM129.618 30.3535C129.731 30.3535 129.828 30.3946 129.909 30.4715C129.991 30.5485 130.027 30.646 130.027 30.7537C130.027 30.8666 129.986 30.9692 129.909 31.0462C129.833 31.1231 129.736 31.1642 129.618 31.1642C129.501 31.1642 129.414 31.1231 129.338 31.0462C129.256 30.9692 129.22 30.8666 129.22 30.7537C129.22 30.6408 129.261 30.5485 129.338 30.4715C129.414 30.3946 129.511 30.3535 129.618 30.3535Z" fill="#283760"/>
<path d="M131.941 35.3662C131.717 34.9968 131.604 34.5812 131.604 34.104C131.604 33.4422 131.788 32.9291 132.161 32.5648C132.493 32.2467 132.932 32.0825 133.478 32.0723C133.871 32.0723 134.198 32.1595 134.453 32.3288C134.846 32.5905 135.045 33.0061 135.045 33.5653V35.0532C135.045 35.1302 135.066 35.1969 135.102 35.2533C135.153 35.3252 135.214 35.3611 135.296 35.3662H135.311V35.9511H135.107C134.862 35.9511 134.662 35.8536 134.52 35.6638C134.223 36.023 133.851 36.1974 133.396 36.1974C132.942 36.1974 132.508 36.0178 132.161 35.6638H132.146L131.916 35.9511H130.328V35.3662H131.941ZM134.351 33.5653C134.351 33.278 134.259 33.0522 134.08 32.8829C133.922 32.7341 133.718 32.6623 133.468 32.6623C133.121 32.6623 132.835 32.7906 132.625 33.0522C132.411 33.3139 132.304 33.6525 132.304 34.0784C132.304 34.5248 132.416 34.8942 132.641 35.1918C132.855 35.4791 133.121 35.6176 133.442 35.6176C133.764 35.6176 134.06 35.474 134.351 35.1815V33.5653Z" fill="#283760"/>
<path d="M137.42 30.0557V35.171C137.42 35.3865 137.348 35.5661 137.205 35.7149C137.057 35.8739 136.879 35.956 136.674 35.956H135.25V35.3711H136.414C136.516 35.3711 136.598 35.3352 136.654 35.2634C136.705 35.2018 136.725 35.1351 136.725 35.0582V30.0608H137.42V30.0557Z" fill="#283760"/>
<path d="M140.754 30.0559V35.0533C140.754 35.1405 140.78 35.2175 140.836 35.2739C140.897 35.3355 140.974 35.3662 141.066 35.3662H141.173V35.9512H140.795C140.621 35.9512 140.468 35.8947 140.335 35.7767C140.152 35.6177 140.055 35.4124 140.055 35.1662V30.0508H140.749L140.754 30.0559Z" fill="#283760"/>
<path d="M142.631 35.3662V35.9511H141.114V35.3662H142.631Z" fill="#283760"/>
<path d="M144.091 35.3662V35.9511H142.575V35.3662H144.091Z" fill="#283760"/>
<path d="M146.206 32.1641V35.1707C146.206 35.3759 146.139 35.5504 146.012 35.6992C145.864 35.8685 145.68 35.9557 145.46 35.9557H144.036V35.3708H145.2C145.292 35.3708 145.369 35.34 145.43 35.2733C145.486 35.2169 145.512 35.145 145.512 35.0578V32.1692H146.206V32.1641ZM144.73 36.8074C144.838 36.8074 144.935 36.8484 145.011 36.9254C145.088 37.0024 145.129 37.0999 145.129 37.2076C145.129 37.3205 145.088 37.418 145.011 37.5001C144.93 37.577 144.838 37.6181 144.73 37.6181C144.618 37.6181 144.516 37.577 144.439 37.5001C144.363 37.418 144.322 37.3205 144.322 37.2076C144.322 37.0947 144.363 37.0024 144.439 36.9254C144.516 36.8433 144.618 36.8074 144.73 36.8074ZM145.721 36.8074C145.833 36.8074 145.93 36.8484 146.007 36.9254C146.083 37.0024 146.119 37.0999 146.119 37.2076C146.119 37.3205 146.083 37.418 146.007 37.5001C145.93 37.577 145.833 37.6181 145.721 37.6181C145.609 37.6181 145.517 37.577 145.44 37.5001C145.363 37.4231 145.323 37.3205 145.323 37.2076C145.323 37.0947 145.363 37.0024 145.44 36.9254C145.517 36.8433 145.614 36.8074 145.721 36.8074Z" fill="#283760"/>
<path d="M149.488 32.1643V35.3659H149.907V35.9508H149.488C149.473 36.6383 149.228 37.1514 148.758 37.49C148.38 37.7722 147.89 37.9108 147.293 37.9108C147.201 37.9108 147.083 37.9108 146.94 37.9005L146.67 37.5619V37.3002C146.828 37.3207 147.002 37.331 147.186 37.331C148.258 37.331 148.794 36.8384 148.794 35.8482V32.1592H149.488V32.1643Z" fill="#283760"/>
<path d="M151.367 35.3662V35.9511H149.851V35.3662H151.367Z" fill="#283760"/>
<path d="M152.824 35.3662V35.9511H151.308V35.3662H152.824Z" fill="#283760"/>
<path d="M154.281 35.3662V35.9511H152.765V35.3662H154.281Z" fill="#283760"/>
<path d="M156.397 32.1641V35.1707C156.397 35.2374 156.386 35.3041 156.371 35.3657H156.805V35.9506H156.483L156.243 35.6632H156.218C156.07 35.8531 155.881 35.9506 155.646 35.9506H154.222V35.3657H155.386C155.472 35.3657 155.544 35.34 155.6 35.2836C155.666 35.222 155.697 35.145 155.697 35.0527V32.1641H156.391H156.397ZM154.998 36.8074C155.105 36.8074 155.202 36.8484 155.278 36.9254C155.355 37.0024 155.396 37.0999 155.396 37.2076C155.396 37.3205 155.355 37.418 155.278 37.5001C155.197 37.577 155.105 37.6181 154.998 37.6181C154.89 37.6181 154.793 37.577 154.717 37.5001C154.64 37.4231 154.599 37.3205 154.599 37.2076C154.599 37.0947 154.64 37.0024 154.717 36.9254C154.793 36.8433 154.89 36.8074 154.998 36.8074ZM155.988 36.8074C156.1 36.8074 156.197 36.8484 156.279 36.9254C156.361 37.0024 156.397 37.0999 156.397 37.2076C156.397 37.3205 156.356 37.418 156.279 37.5001C156.197 37.577 156.1 37.6181 155.988 37.6181C155.876 37.6181 155.784 37.577 155.707 37.5001C155.631 37.4231 155.59 37.3205 155.59 37.2076C155.59 37.0947 155.631 37.0024 155.707 36.9254C155.784 36.8433 155.881 36.8074 155.988 36.8074Z" fill="#283760"/>
<path d="M158.266 35.3662V35.9511H156.75V35.3662H158.266Z" fill="#283760"/>
<path d="M165.998 32.1643V35.1709C165.998 35.3864 165.926 35.5711 165.778 35.7251C165.635 35.879 165.462 35.9559 165.257 35.9559H163.675L163.414 35.6686H163.389C163.236 35.8585 163.047 35.9559 162.817 35.9559H161.245L160.974 35.6686H160.949C160.795 35.8585 160.606 35.9559 160.377 35.9559H158.207V35.371H160.106C160.315 35.371 160.418 35.2684 160.418 35.0581V33.1135H161.112V35.1709C161.112 35.2428 161.107 35.3095 161.097 35.3659H162.546C162.756 35.3659 162.858 35.2633 162.858 35.0529V32.6312H163.552V35.1658C163.552 35.2376 163.542 35.3043 163.527 35.3608H164.987C165.196 35.3608 165.298 35.2582 165.298 35.0478V32.1592H165.992L165.998 32.1643Z" fill="#283760"/>
<defs>
<linearGradient id="paint0_linear_642_7705" x1="5.55762" y1="37.5777" x2="64.8751" y2="37.5777" gradientUnits="userSpaceOnUse">
<stop offset="0.06" stop-color="#A4C241"/>
<stop offset="0.32" stop-color="#58B0E0"/>
</linearGradient>
</defs>
</svg>
