<svg width="25" height="25" viewBox="0 0 25 25" fill="none" xmlns="http://www.w3.org/2000/svg">
<circle cx="12.498" cy="12.5" r="12.5" fill="white"/>
<path fill-rule="evenodd" clip-rule="evenodd" d="M12.4979 4.1665C10.2347 4.1665 9.9509 4.1761 9.06206 4.21665C8.17508 4.25711 7.5693 4.39799 7.03923 4.60401C6.49124 4.81694 6.02651 5.10189 5.56321 5.56516C5.09993 6.02847 4.81499 6.4932 4.60206 7.04119C4.39604 7.57125 4.25515 8.17703 4.2147 9.06401C4.17414 9.95285 4.16455 10.2366 4.16455 12.4999C4.16455 14.763 4.17414 15.0468 4.2147 15.9357C4.25515 16.8226 4.39604 17.4284 4.60206 17.9585C4.81499 18.5065 5.09993 18.9712 5.56321 19.4345C6.02651 19.8978 6.49124 20.1827 7.03923 20.3957C7.5693 20.6017 8.17508 20.7426 9.06206 20.783C9.9509 20.8236 10.2347 20.8332 12.4979 20.8332C14.7611 20.8332 15.0449 20.8236 15.9337 20.783C16.8207 20.7426 17.4265 20.6017 17.9565 20.3957C18.5045 20.1827 18.9693 19.8978 19.4326 19.4345C19.8958 18.9712 20.1808 18.5065 20.3937 17.9585C20.5997 17.4284 20.7406 16.8226 20.7811 15.9357C20.8216 15.0468 20.8312 14.763 20.8312 12.4999C20.8312 10.2366 20.8216 9.95285 20.7811 9.06401C20.7406 8.17703 20.5997 7.57125 20.3937 7.04119C20.1808 6.4932 19.8958 6.02847 19.4326 5.56516C18.9693 5.10189 18.5045 4.81694 17.9565 4.60401C17.4265 4.39799 16.8207 4.25711 15.9337 4.21665C15.0449 4.1761 14.7611 4.1665 12.4979 4.1665ZM12.4979 5.668C14.723 5.668 14.9865 5.6765 15.8653 5.7166C16.6778 5.75365 17.119 5.8894 17.4126 6.00353C17.8016 6.1547 18.0792 6.33528 18.3708 6.6269C18.6624 6.9185 18.843 7.1961 18.9942 7.58508C19.1083 7.87872 19.2441 8.31996 19.2811 9.13246C19.3212 10.0112 19.3297 10.2747 19.3297 12.4999C19.3297 14.7249 19.3212 14.9885 19.2811 15.8672C19.2441 16.6797 19.1083 17.121 18.9942 17.4146C18.843 17.8036 18.6624 18.0812 18.3708 18.3728C18.0792 18.6644 17.8016 18.845 17.4126 18.9961C17.119 19.1103 16.6778 19.246 15.8653 19.2831C14.9867 19.3232 14.7231 19.3317 12.4979 19.3317C10.2726 19.3317 10.0091 19.3232 9.1305 19.2831C8.31801 19.246 7.87677 19.1103 7.58312 18.9961C7.19414 18.845 6.91654 18.6644 6.62495 18.3728C6.33336 18.0812 6.15274 17.8036 6.00157 17.4146C5.88745 17.121 5.75169 16.6797 5.71464 15.8672C5.67455 14.9885 5.66605 14.7249 5.66605 12.4999C5.66605 10.2747 5.67455 10.0112 5.71464 9.13246C5.75169 8.31996 5.88745 7.87872 6.00157 7.58508C6.15274 7.1961 6.33332 6.9185 6.62495 6.6269C6.91654 6.33528 7.19414 6.1547 7.58312 6.00353C7.87677 5.8894 8.31801 5.75365 9.1305 5.7166C10.0092 5.6765 10.2728 5.668 12.4979 5.668Z" fill="#153D1F"/>
<path fill-rule="evenodd" clip-rule="evenodd" d="M12.498 15.2778C10.9639 15.2778 9.72025 14.0341 9.72025 12.5C9.72025 10.9658 10.9639 9.7222 12.498 9.7222C14.0322 9.7222 15.2758 10.9658 15.2758 12.5C15.2758 14.0341 14.0322 15.2778 12.498 15.2778ZM12.498 8.2207C10.1346 8.2207 8.21875 10.1366 8.21875 12.5C8.21875 14.8634 10.1346 16.7793 12.498 16.7793C14.8614 16.7793 16.7773 14.8634 16.7773 12.5C16.7773 10.1366 14.8614 8.2207 12.498 8.2207Z" fill="#153D1F"/>
<path fill-rule="evenodd" clip-rule="evenodd" d="M17.9463 8.05129C17.9463 8.60358 17.4986 9.05127 16.9463 9.05127C16.394 9.05127 15.9463 8.60358 15.9463 8.05129C15.9463 7.499 16.394 7.05127 16.9463 7.05127C17.4986 7.05127 17.9463 7.499 17.9463 8.05129Z" fill="#153D1F"/>
</svg>
