<svg width="25" height="25" viewBox="0 0 25 25" fill="none" xmlns="http://www.w3.org/2000/svg">
<circle cx="12.498" cy="12.5" r="12.5" fill="white"/>
<path d="M6.49805 11.1061C6.49805 13.236 6.49805 16.56 6.49805 16.56C6.49805 16.56 6.49805 16.56 6.49805 16.56C6.49805 17.3884 7.16962 18.06 7.99805 18.06H16.998C17.8265 18.06 18.498 17.3884 18.498 16.56V10.7541M6.49805 11.1061C6.49805 10.8475 6.63126 10.6072 6.85055 10.4701L12.498 6.94043L18.1157 10.1004C18.3519 10.2332 18.498 10.4831 18.498 10.7541M6.49805 11.1061C6.79805 11.1061 12.498 14.8154 12.498 14.8154L18.498 10.7541" stroke="#153D1F" stroke-width="1.5" stroke-linecap="round" stroke-linejoin="round"/>
</svg>
