<svg width="36" height="35" viewBox="0 0 36 35" fill="none" xmlns="http://www.w3.org/2000/svg">
<circle cx="17.6943" cy="17.5" r="17.5" fill="#212121"/>
<path d="M17.8091 12.9035C18.929 13.0911 19.9463 13.6201 20.7585 14.4306C21.5706 15.241 22.0963 16.2563 22.2887 17.3739M17.9801 9.23926C19.972 9.57624 21.7886 10.519 23.2334 11.9565C24.6781 13.3983 25.6185 15.2112 25.9561 17.199M24.4002 25.1075C24.4002 25.1075 23.3188 26.1696 23.0538 26.481C22.6221 26.9417 22.1134 27.1593 21.4466 27.1593C21.3825 27.1593 21.3141 27.1593 21.25 27.155C19.9805 27.0739 18.8008 26.5791 17.916 26.1568C15.4967 24.988 13.3723 23.3287 11.607 21.2257C10.1494 19.4726 9.17487 17.8516 8.52943 16.1112C8.13192 15.0491 7.98659 14.2215 8.0507 13.4409C8.09345 12.9418 8.28579 12.5281 8.64057 12.174L10.0981 10.7194C10.3076 10.5232 10.5298 10.4166 10.7478 10.4166C11.0171 10.4166 11.2351 10.5787 11.3719 10.7152C11.3762 10.7194 11.3804 10.7237 11.3847 10.728C11.6455 10.9711 11.8934 11.2228 12.1541 11.4915C12.2866 11.628 12.4234 11.7645 12.5602 11.9053L13.7271 13.0698C14.1802 13.522 14.1802 13.94 13.7271 14.3922C13.6031 14.5159 13.4834 14.6396 13.3595 14.759C13.0004 15.1259 13.2825 14.8444 12.9106 15.1771C12.9021 15.1856 12.8935 15.1899 12.8892 15.1984C12.5217 15.5653 12.59 15.9236 12.667 16.1667C12.6713 16.1795 12.6755 16.1923 12.6798 16.2051C12.9833 16.9388 13.4107 17.6298 14.0604 18.4531L14.0647 18.4574C15.2444 19.9077 16.4883 21.0381 17.8604 21.904C18.0356 22.0149 18.2151 22.1045 18.3861 22.1898C18.54 22.2666 18.6853 22.3391 18.8093 22.4159C18.8264 22.4244 18.8435 22.4372 18.8606 22.4458C19.0059 22.5183 19.1427 22.5524 19.2837 22.5524C19.6385 22.5524 19.8608 22.3306 19.9334 22.2581L20.7713 21.422C20.9166 21.2769 21.1474 21.102 21.4167 21.102C21.6817 21.102 21.8997 21.2684 22.0322 21.4134C22.0365 21.4177 22.0365 21.4177 22.0408 21.422L24.3959 23.7723C24.8362 24.2074 24.4002 25.1075 24.4002 25.1075Z" stroke="white" stroke-width="1.5" stroke-linecap="round" stroke-linejoin="round"/>
</svg>
