<svg width="31" height="31" viewBox="0 0 31 31" fill="none" xmlns="http://www.w3.org/2000/svg">
<path d="M28.5106 7.29554C23.9387 0.208039 14.5762 -1.89196 7.33561 2.50491C0.269982 6.90179 -2.00502 16.483 2.56686 23.5487L2.93873 24.1174L1.40748 29.8487L7.13873 28.3174L7.70748 28.6893C10.1794 30.0237 12.87 30.7893 15.5387 30.7893C18.4044 30.7893 21.27 30.0237 23.7419 28.4924C30.8075 23.8987 32.9075 14.5143 28.5106 7.25179V7.29554ZM24.5075 22.0393C23.7419 23.1768 22.7794 23.9424 21.445 24.1393C20.6794 24.1393 19.7169 24.5112 15.9106 23.0018C12.6731 21.4705 9.98248 18.9768 8.07936 16.1112C6.94186 14.7768 6.35123 13.0487 6.17623 11.3205C6.17623 9.78929 6.74498 8.45491 7.70748 7.49241C8.07936 7.12054 8.47311 6.92366 8.84498 6.92366H9.80748C10.1794 6.92366 10.5731 6.92366 10.77 7.68929C11.1419 8.65179 12.1044 10.9487 12.1044 11.1455C12.3012 11.3424 12.2137 12.808 11.3387 13.6393C10.8575 14.1862 10.77 14.208 10.9669 14.6018C11.7325 15.7393 12.695 16.8987 13.6356 17.8612C14.7731 18.8237 15.9325 19.5893 17.2669 20.158C17.6387 20.3549 18.0325 20.3549 18.2294 19.9612C18.4262 19.5893 19.3669 18.6268 19.7606 18.233C20.1325 17.8612 20.3294 17.8612 20.7231 18.0362L23.7856 19.5674C24.1575 19.7643 24.5512 19.9393 24.7481 20.1362C24.945 20.7049 24.945 21.4705 24.5512 22.0393H24.5075Z" fill="#212121"/>
</svg>
