<svg width="337" height="304" viewBox="0 0 337 304" fill="none" xmlns="http://www.w3.org/2000/svg">
<path opacity="0.2" d="M230.264 0.00320293C246.33 -0.190407 261.22 8.40587 269.085 22.4164L299.323 76.278L330.849 129.395C339.05 143.212 339.05 160.405 330.849 174.222L299.323 227.339L269.085 281.201C261.22 295.211 246.33 303.807 230.264 303.614L168.5 302.87L106.736 303.614C90.6695 303.807 75.7803 295.211 67.9149 281.201L37.6773 227.339L6.15057 174.222C-2.05019 160.405 -2.05019 143.212 6.15058 129.395L37.6773 76.278L67.9149 22.4164C75.7803 8.40587 90.6695 -0.190401 106.736 0.00320808L168.5 0.747512L230.264 0.00320293Z" fill="#D37E2D"/>
</svg>
