<svg width="290" height="280" viewBox="0 0 290 280" fill="none" xmlns="http://www.w3.org/2000/svg">
<path opacity="0.2" d="M289.425 98.9858C288.289 131.004 276.908 169.673 271.36 185.005C261.59 219.796 236.148 247.21 224.648 256.569C212.69 266.764 174.814 285.625 119.998 277.118C51.4794 266.485 20.1232 235.542 10.9615 225.626C-0.738989 212.962 -5.03918 191.696 10.9615 135.305C24.9621 85.9635 33.4138 72.9411 50.7051 59.4408C57.243 53.6663 76.4616 37.3112 105.159 27.064C142.967 13.5636 156.129 9.14351 203.873 1.85541C246.09 -4.58907 258.265 11.3328 268.572 24.8114L268.65 24.9134C276.048 36.2632 290.56 66.9674 289.425 98.9858Z" fill="#476973"/>
</svg>
