<svg width="206" height="125" viewBox="0 0 206 125" fill="none" xmlns="http://www.w3.org/2000/svg">
<g clip-path="url(#clip0_493_1224)">
<path d="M206 0H0V125H206V0Z" fill="black"/>
<path d="M108.379 26.1092C107.266 24.6544 104.91 24.1608 103.042 24.0309C103.062 23.888 103.075 23.7386 103.075 23.5827C103.075 22.024 101.806 20.751 100.251 20.751H100.023C98.4675 20.751 97.1985 22.0175 97.1985 23.5827C97.1985 23.7386 97.2115 23.8815 97.231 24.0309C95.3633 24.1673 93.0076 24.6544 91.8947 26.1092C91.4067 26.7522 90.9446 27.8693 91.5498 29.5515C91.8232 30.6232 93.424 32.2469 95.3243 32.2469H95.3959C95.7473 32.2469 96.1377 32.1754 96.5347 32.0196C96.9512 32.8834 97.5694 33.5913 98.2983 34.02L100.146 35.8515L101.995 34.02C102.723 33.5913 103.342 32.8834 103.758 32.0196C104.155 32.1754 104.539 32.2469 104.897 32.2469H104.969C106.869 32.2469 108.47 30.6232 108.743 29.5515C109.348 27.8693 108.886 26.7522 108.398 26.1092H108.379ZM100.016 22.3097H100.244C100.934 22.3097 101.507 22.8813 101.507 23.5762C101.507 23.7126 101.487 23.849 101.435 23.9724C100.947 23.9724 100.602 23.9919 100.478 24.0049H99.7885C99.6649 23.9919 99.32 23.9724 98.8319 23.9724C98.7798 23.849 98.7603 23.7126 98.7603 23.5762C98.7603 22.8813 99.333 22.3097 100.023 22.3097H100.016ZM100.016 28.6747H100.244C100.439 28.6747 100.641 28.6552 100.836 28.6227C101.064 29.1618 101.305 29.6229 101.559 30.0191C101.155 30.188 100.706 30.2659 100.244 30.2659H100.016C99.5608 30.2659 99.1117 30.1815 98.7018 30.0191C98.949 29.6229 99.1898 29.1683 99.4241 28.6227C99.6193 28.6552 99.8211 28.6747 100.016 28.6747ZM99.9642 27.1159C100.016 26.9276 100.081 26.7197 100.133 26.5119C100.186 26.7197 100.251 26.9276 100.303 27.1159H99.9707H99.9642ZM97.3482 29.2398C97.0358 29.7269 96.7039 30.0906 96.346 30.3439C96.2288 30.4153 96.1247 30.4803 96.0141 30.5192C95.7928 30.6361 95.5781 30.6881 95.3438 30.6881C94.205 30.7531 93.1572 29.5775 93.0401 29.0969C92.7147 28.1941 92.7473 27.5446 93.1247 27.0575C93.769 26.2067 95.2917 25.8105 96.7625 25.6416C97.192 25.6026 97.6085 25.5702 98.0054 25.5507H98.3308C98.487 25.5377 98.6302 25.5377 98.7668 25.5377C98.7278 25.7066 98.6822 25.8689 98.6432 26.0378C98.6237 26.1287 98.5911 26.2132 98.5716 26.2976C98.3959 26.9211 98.2072 27.4861 97.9989 27.9733C97.8102 28.4279 97.615 28.8241 97.3937 29.1683C97.3807 29.2008 97.3612 29.2203 97.3547 29.2398H97.3482ZM100.244 32.9418H100.016C99.1833 32.9418 98.4349 32.3378 97.9599 31.4155C98.5976 31.6883 99.294 31.8312 100.016 31.8312H100.244C100.966 31.8312 101.663 31.6883 102.3 31.4155C101.832 32.3443 101.084 32.9418 100.244 32.9418ZM107.22 29.0904C107.103 29.571 106.055 30.7466 104.917 30.6816C104.689 30.6816 104.468 30.6297 104.246 30.5127C104.129 30.4738 104.025 30.4088 103.914 30.3374C103.563 30.0906 103.225 29.7204 102.912 29.2333C102.899 29.2138 102.88 29.1943 102.873 29.1618C102.652 28.8176 102.457 28.4214 102.268 27.9668C102.06 27.4796 101.871 26.9146 101.695 26.2911C101.676 26.2067 101.643 26.1222 101.624 26.0313C101.585 25.8624 101.539 25.7001 101.5 25.5312C101.637 25.5312 101.78 25.5312 101.936 25.5442H102.261C102.658 25.5637 103.075 25.5961 103.504 25.6351C104.975 25.804 106.498 26.1937 107.142 27.051C107.52 27.5381 107.546 28.1876 107.227 29.0904H107.22Z" fill="#8C734C"/>
<path d="M65.4933 35.689C65.3761 35.5332 65.246 35.3968 65.0768 35.3058C64.9206 35.2149 64.7514 35.163 64.5757 35.163C64.4065 35.15 64.2308 35.1824 64.0681 35.2539C63.8989 35.3188 63.6906 35.4422 63.4433 35.6046L61.3088 37.0919L61.3609 37.1634C61.4325 37.1439 61.4845 37.1309 61.5301 37.1439C61.5691 37.1569 61.6147 37.1829 61.6537 37.2348L63.6646 40.138C63.6972 40.177 63.7037 40.2289 63.7037 40.2744C63.6906 40.3134 63.6711 40.3653 63.6191 40.4303L63.6711 40.5017L64.7449 39.7613L64.6928 39.6769C64.6212 39.7094 64.5692 39.7159 64.5236 39.7094C64.4716 39.6964 64.439 39.6704 64.4 39.6184L63.6191 38.4818L64.849 37.6375C65.1744 37.4167 65.3891 37.2088 65.5258 37.0335C65.6625 36.8451 65.721 36.6373 65.734 36.4165C65.734 36.1567 65.6494 35.9099 65.4933 35.6761V35.689ZM64.7969 36.7282C64.7449 36.8451 64.6017 36.975 64.3674 37.1309L63.2286 37.9233L62.5908 37.0205L63.7362 36.2281C63.964 36.0722 64.1397 35.9878 64.2698 35.9813C64.3544 35.9683 64.426 35.9813 64.5171 36.0333C64.6017 36.0722 64.6603 36.1372 64.7254 36.2216C64.7774 36.3061 64.8165 36.3905 64.8295 36.4814C64.8425 36.5853 64.8295 36.6698 64.7904 36.7282H64.7969Z" fill="white"/>
<path d="M71.4479 33.9356L70.309 31.8832C70.2765 31.8313 70.27 31.7923 70.2765 31.7404C70.2895 31.7014 70.3155 31.6559 70.3676 31.604L70.3155 31.5195L69.2418 32.1106L69.2938 32.195C69.3654 32.1755 69.4305 32.1755 69.463 32.182C69.5021 32.2015 69.5476 32.234 69.5802 32.2859L70.5824 34.1045C70.706 34.3123 70.7776 34.4812 70.8101 34.5851C70.8427 34.702 70.8427 34.8124 70.8231 34.9163C70.7516 35.1891 70.5108 35.4359 70.0943 35.6632C69.6778 35.8906 69.3459 35.962 69.0596 35.8841C68.9685 35.8516 68.8708 35.7931 68.7862 35.6957C68.7147 35.6113 68.617 35.4684 68.4934 35.2606L67.4912 33.442C67.4587 33.3901 67.4522 33.3381 67.4587 33.2991C67.4717 33.2602 67.4977 33.2082 67.5498 33.1562L67.4977 33.0718L66.3589 33.6953L66.4109 33.7862C66.4825 33.7668 66.5346 33.7668 66.5801 33.7732C66.6192 33.7927 66.6517 33.8252 66.6843 33.8772L67.8231 35.9165C67.9663 36.1763 68.1225 36.3712 68.2917 36.5271C68.4609 36.67 68.6691 36.7479 68.9034 36.7544C69.3199 36.7739 69.8079 36.618 70.3936 36.2997C71.1941 35.8646 71.6366 35.397 71.6952 34.9034C71.7342 34.6306 71.6431 34.3123 71.4349 33.9226L71.4479 33.9356Z" fill="white"/>
<path d="M77.9685 32.539C77.8774 32.578 77.7928 32.578 77.7082 32.552C77.6236 32.5325 77.4804 32.4481 77.2592 32.3247L76.0617 31.5843C76.706 31.1816 76.8947 30.6685 76.6344 30.045C76.5498 29.8566 76.4457 29.7008 76.3025 29.5774C76.1594 29.441 75.9902 29.3565 75.8014 29.3306C75.6322 29.2981 75.4695 29.2981 75.2808 29.3435C75.0921 29.3825 74.8513 29.4669 74.5585 29.5903L72.1702 30.623L72.2027 30.714C72.2873 30.701 72.3394 30.701 72.3784 30.7269C72.4175 30.7529 72.45 30.7919 72.4695 30.8439L73.8687 34.0783C73.9012 34.1303 73.9012 34.1822 73.8882 34.2212C73.8752 34.2601 73.8361 34.3056 73.7841 34.3576L73.8166 34.442L75.014 33.9354L74.975 33.8445C74.9034 33.8575 74.8513 33.8575 74.8058 33.8315C74.7667 33.812 74.7342 33.7795 74.7147 33.7146L74.1615 32.4546L75.1832 32.0064L76.4457 32.7988C76.5889 32.8897 76.667 32.9547 76.6865 32.9872C76.706 33.0391 76.6735 33.0911 76.5824 33.156L76.6214 33.2405L77.9945 32.6494L77.962 32.5585L77.9685 32.539ZM75.7559 30.9088C75.7038 30.9738 75.6518 31.0257 75.5672 31.0647C75.4956 31.1166 75.3719 31.1816 75.1702 31.2595L73.8882 31.8116L73.4522 30.8114L74.7472 30.2528C74.9359 30.1684 75.0791 30.1164 75.1507 30.0969C75.2353 30.0775 75.3199 30.0645 75.398 30.0775C75.5737 30.0905 75.6973 30.2009 75.7949 30.4022C75.8795 30.5971 75.8665 30.7659 75.7559 30.9088Z" fill="white"/>
<path d="M83.038 30.0126L82.9469 30.0451C82.9469 30.1165 82.9339 30.1815 82.9144 30.214C82.8949 30.2529 82.8493 30.2854 82.7973 30.2984L80.2462 31.1427L79.8948 30.0516L81.5022 29.532C81.5673 29.5125 81.6194 29.5125 81.6454 29.532C81.6844 29.545 81.73 29.584 81.769 29.6489L81.8601 29.6164L81.5348 28.6162L81.4437 28.6487C81.4437 28.7201 81.4306 28.7851 81.4111 28.8176C81.3916 28.8565 81.346 28.889 81.2875 28.902L79.6801 29.4346L79.3807 28.4993L81.8536 27.6875C81.9187 27.668 81.9708 27.668 81.9968 27.6875C82.0359 27.7004 82.0814 27.7394 82.1205 27.8044L82.2116 27.7719L81.8797 26.7522L81.7886 26.7847C81.7886 26.8561 81.7755 26.9081 81.756 26.9535C81.7365 26.999 81.6909 27.0185 81.6389 27.038L78.1052 28.1941L78.1378 28.285C78.2224 28.285 78.2744 28.298 78.3135 28.3175C78.346 28.3369 78.3785 28.3824 78.3981 28.4409L79.4914 31.7792C79.5109 31.8442 79.5109 31.8961 79.5044 31.9221C79.4848 31.9611 79.4393 32.0065 79.3807 32.0455L79.4133 32.1364L83.012 30.9609C83.0771 30.9414 83.1161 30.9414 83.1552 30.9609C83.1942 30.9739 83.2398 31.0128 83.2788 31.0778L83.3699 31.0453L83.038 30.0256V30.0126Z" fill="white"/>
<path d="M120.652 26.5898L120.633 26.6808C120.698 26.7132 120.737 26.7522 120.756 26.7977C120.776 26.8366 120.776 26.8821 120.769 26.9406L120.424 28.2395L118.101 27.6225L118.446 26.33C118.459 26.2651 118.485 26.2261 118.518 26.1937C118.55 26.1742 118.609 26.1612 118.687 26.1612L118.706 26.0703L117.457 25.739L117.424 25.8299C117.496 25.8689 117.541 25.9144 117.561 25.9533C117.574 25.9858 117.58 26.0378 117.561 26.0962L116.663 29.506C116.65 29.558 116.63 29.597 116.591 29.6294C116.559 29.6489 116.5 29.6619 116.422 29.6619L116.403 29.7528L117.652 30.0841L117.685 29.9931C117.62 29.9542 117.567 29.9217 117.561 29.8762C117.541 29.8373 117.528 29.7853 117.548 29.7333L117.925 28.2785L120.249 28.8825L119.871 30.3374C119.858 30.4023 119.832 30.4413 119.787 30.4608C119.754 30.4803 119.702 30.4997 119.63 30.4997L119.598 30.5907L120.86 30.9154L120.88 30.8245C120.815 30.7855 120.776 30.753 120.756 30.7076C120.737 30.6686 120.737 30.6231 120.743 30.5647L121.641 27.1549C121.661 27.0899 121.68 27.051 121.713 27.0315C121.752 27.012 121.804 26.9925 121.889 26.9925L121.908 26.9016L120.646 26.5768L120.652 26.5898Z" fill="white"/>
<path d="M127.557 29.4215C127.296 28.9019 126.815 28.5252 126.138 28.2784C125.221 27.9536 124.459 28.0316 123.847 28.5057C123.535 28.7525 123.294 29.0773 123.158 29.4734C123.053 29.7462 123.014 30.0125 123.021 30.2853C123.034 30.61 123.106 30.8958 123.242 31.1816C123.516 31.6882 123.984 32.0779 124.661 32.3247C125.565 32.6494 126.327 32.5715 126.952 32.0844C127.277 31.8376 127.505 31.5258 127.641 31.1491C127.869 30.5386 127.837 29.9606 127.557 29.4215ZM126.776 30.8179C126.711 31.0062 126.607 31.1621 126.483 31.305C126.327 31.4739 126.158 31.5843 125.962 31.6687C125.637 31.7921 125.286 31.7921 124.908 31.6557C124.531 31.5193 124.251 31.292 124.082 30.9802C123.886 30.6035 123.86 30.2074 124.017 29.7917C124.173 29.363 124.446 29.0708 124.843 28.9279C125.168 28.7915 125.52 28.7915 125.897 28.9409C126.275 29.0773 126.542 29.3046 126.711 29.6163C126.919 29.967 126.939 30.3762 126.776 30.8114V30.8179Z" fill="white"/>
<path d="M133.381 31.4806L133.342 31.565C133.394 31.617 133.427 31.6559 133.433 31.7014C133.446 31.7404 133.446 31.7923 133.414 31.8443L132.34 34.072L131.305 30.922C131.286 30.8506 131.286 30.7856 131.305 30.7467C131.338 30.6817 131.39 30.6557 131.481 30.6752L131.52 30.5908L130.251 29.9673L130.212 30.0582C130.264 30.1102 130.296 30.1491 130.303 30.1946C130.31 30.2401 130.316 30.2855 130.283 30.3375L128.741 33.5135C128.722 33.5654 128.689 33.6044 128.65 33.6174C128.611 33.6369 128.546 33.6369 128.474 33.6304L128.435 33.7148L129.542 34.2474L129.581 34.163C129.516 34.111 129.49 34.072 129.477 34.0266C129.464 33.9876 129.477 33.9356 129.496 33.8837L130.602 31.604L131.657 34.7865C131.696 34.9229 131.722 35.0073 131.696 35.0333C131.663 35.0982 131.611 35.1177 131.526 35.0982L131.474 35.1891L132.665 35.7607L132.704 35.6698C132.639 35.6308 132.613 35.5788 132.6 35.5334C132.587 35.4944 132.6 35.4425 132.62 35.3905L134.162 32.2145C134.195 32.1625 134.227 32.1301 134.266 32.1106C134.305 32.0911 134.357 32.0911 134.435 32.1106L134.474 32.0197L133.381 31.4871V31.4806Z" fill="white"/>
<path d="M139.811 34.9422C139.746 34.9941 139.706 35.0266 139.654 35.0331C139.615 35.0331 139.57 35.0201 139.518 34.9941L136.349 33.0457L136.309 33.1301C136.349 33.195 136.381 33.247 136.394 33.286C136.407 33.3249 136.381 33.3704 136.355 33.4224L134.507 36.4295C134.474 36.4814 134.435 36.5139 134.39 36.5204C134.351 36.5334 134.299 36.5334 134.221 36.5074L134.168 36.5918L137.39 38.5663C137.442 38.6053 137.474 38.6377 137.481 38.6832C137.5 38.7222 137.494 38.7741 137.468 38.8586L137.552 38.8975L138.125 37.9817L138.041 37.9298C137.975 37.9817 137.923 38.0142 137.884 38.0207C137.845 38.0337 137.8 38.0077 137.748 37.9817L135.463 36.5789L136.056 35.6111L137.494 36.4944C137.546 36.5269 137.578 36.5659 137.598 36.6113C137.611 36.6503 137.598 36.7023 137.578 36.7802L137.663 36.8322L138.216 35.9359L138.132 35.8839C138.08 35.9359 138.027 35.9683 137.988 35.9748C137.949 35.9748 137.904 35.9618 137.852 35.9359L136.401 35.0526L136.921 34.2082L139.14 35.5722C139.192 35.6046 139.225 35.6436 139.244 35.6891C139.257 35.728 139.244 35.78 139.225 35.8579L139.31 35.9099L139.882 34.9941L139.798 34.9422H139.811Z" fill="white"/>
<path d="M143.559 37.8975L143.507 37.9689C143.546 38.0209 143.572 38.0598 143.579 38.1118C143.585 38.1638 143.579 38.2027 143.546 38.2352C143.527 38.2742 143.442 38.3066 143.305 38.3586L142.01 38.7743L142.082 37.4298C142.095 37.287 142.101 37.2025 142.134 37.17C142.199 37.0856 142.277 37.0791 142.407 37.1376L142.472 37.0661L141.158 36.0659L141.093 36.1504C141.164 36.2153 141.21 36.2867 141.229 36.3712C141.242 36.4556 141.249 36.5985 141.242 36.7998L141.177 39.1185L140.312 40.2551C140.273 40.3071 140.227 40.3395 140.188 40.3395C140.149 40.3525 140.084 40.3395 140.019 40.3071L139.954 40.3915L140.995 41.1839L141.06 41.0994C141.008 41.0345 140.989 40.9825 140.989 40.9436C140.976 40.9046 141.002 40.8591 141.041 40.8072L141.893 39.6706L144.112 38.9756C144.301 38.9107 144.444 38.8847 144.529 38.8847C144.613 38.8717 144.698 38.8977 144.776 38.9496L144.841 38.8652L143.546 37.8975H143.559Z" fill="white"/>
<path opacity="0.2" d="M114.027 90.8825C113.943 90.8955 113.858 90.8955 113.78 90.8955L113.8 90.876C113.871 90.889 113.956 90.889 114.027 90.889V90.8825Z" fill="white"/>
<path opacity="0.2" d="M104.311 90.8953H104.259L104.272 90.8823C104.272 90.8823 104.305 90.8953 104.311 90.8953Z" fill="white"/>
<path opacity="0.2" d="M104.487 90.889H104.526V90.876C104.526 90.876 104.494 90.889 104.487 90.889Z" fill="white"/>
<path d="M163.629 83.608C163.629 83.608 163.629 83.3612 163.42 83.3612C163.349 83.3612 163.271 83.3677 163.245 83.4846C163.206 83.621 163.349 84.933 161.807 84.933L160.407 85.0239C159.522 85.0239 158.774 84.303 158.774 83.4132V63.4155C158.774 63.4155 158.761 63.448 158.754 63.4545C158.507 63.8897 157.368 65.6887 153.75 68.2217C153.425 68.462 153.08 68.6894 152.715 68.9297C151.004 70.0533 148.837 71.2938 146.097 72.6123C139.583 75.7558 139.934 81.5492 139.934 81.5492V83.4132C139.934 84.2965 139.225 85.0174 138.32 85.0239C137.598 84.881 137.123 84.1406 136.863 83.5886C136.693 83.2248 136.615 82.9456 136.615 82.9456C135.958 80.8542 133.342 79.4319 130.811 78.5031C128.038 77.5029 125.357 77.1002 125.357 77.1002C126.704 76.6715 128.487 76.152 130.811 75.5479C136.134 74.1645 136.804 70.7742 136.869 69.5337V63.3116L131.227 67.3254C130.967 67.5138 130.811 67.8126 130.811 68.1373V70.7677C130.824 70.9041 130.83 71.0405 130.811 71.1704C130.615 74.4048 123.965 76.4247 123.965 76.4247V54.4526L117.899 58.7003V83.4067C117.899 84.303 117.177 85.0174 116.292 85.0174H115.888C115.003 85.0174 114.255 84.2965 114.255 83.4067V63.3051L108.606 67.3189C108.346 67.5073 108.19 67.8061 108.19 68.1308V83.4132C108.19 84.2965 107.468 85.0174 106.583 85.0174H106.179C105.294 85.0174 104.546 84.2965 104.546 83.4067V54.4526L98.487 58.5704V83.4002C98.487 84.2965 97.7647 85.0109 96.8731 85.0109H96.4436C95.5455 85.0109 94.8297 84.29 94.8297 83.4002V63.4026C94.8297 63.4026 94.8167 63.435 94.8102 63.4415C94.5629 63.8767 93.424 65.6757 89.8058 68.2087C89.4804 68.4491 89.1355 68.6764 88.7711 68.9167C87.0596 70.0403 84.8925 71.2808 82.1528 72.5993C75.6386 75.7428 75.99 81.5362 75.99 81.5362V83.4002C75.99 84.4069 75.0724 85.1993 74.0312 84.9785C73.2568 84.8096 72.7687 84.0627 72.7687 83.2833V69.0596C72.7687 65.8771 70.1852 63.2986 66.9964 63.2986H65.9031C63.3717 63.2986 61.1526 64.8054 60.4302 67.0657H60.3131C60.0202 66.2928 59.5907 65.5459 59.0311 64.9873C57.9378 63.8962 55.9009 63.3051 54.2154 63.3051C52.5299 63.3051 51.0266 63.9806 49.9334 65.0717C49.3151 65.6887 48.7685 66.4227 48.4952 67.2475V63.3051L42.4365 67.4229V84.8291C42.4365 88.1674 45.1437 90.8823 48.4952 90.8823V71.0665C48.4952 70.2936 48.9637 69.6441 49.621 69.3518C49.8487 69.2479 50.1025 69.196 50.3694 69.196H52.6861C52.9594 69.196 53.2067 69.2479 53.4345 69.3518C54.0917 69.6441 54.5733 70.3001 54.5733 71.0665V84.8291C54.5733 88.1674 57.2805 90.8823 60.6319 90.8823V71.0665C60.6319 70.2936 61.1135 69.6441 61.7708 69.3518C61.9986 69.2479 62.2524 69.196 62.5192 69.196H64.8359C65.1092 69.196 65.3565 69.2479 65.5843 69.3518C66.2415 69.6441 66.7101 70.3001 66.7101 71.0665V84.8291C66.7101 87.7518 68.3175 90.2198 71.5453 90.7589C71.5453 90.7589 72.3587 90.8498 72.7883 90.7459C74.7406 90.2653 75.6646 88.4467 76.3219 86.9399C76.6994 87.7842 77.0508 88.3883 77.7796 89.1027C78.8729 90.2068 80.3957 90.8823 82.0617 90.8823H83.4673C86.0704 90.8823 88.3025 89.2261 89.1615 86.9204C89.9424 89.0767 91.9143 90.642 94.2765 90.8498C94.3677 90.8628 94.4653 90.8693 94.5564 90.8693C94.6475 90.8563 94.7451 90.8563 94.8297 90.8498C96.8601 90.603 98.5065 89.1027 98.9491 87.1348C99.8276 89.2586 101.877 90.7784 104.285 90.8693C104.298 90.8823 104.318 90.8823 104.324 90.8823C104.357 90.8823 104.376 90.8823 104.409 90.8693C104.442 90.8823 104.474 90.8823 104.5 90.8823C104.513 90.8823 104.533 90.8823 104.539 90.8693C106.563 90.7524 108.248 89.4144 108.854 87.5699C109.791 89.4144 111.646 90.7004 113.806 90.8563C113.878 90.8693 113.962 90.8693 114.034 90.8693C114.105 90.8693 114.177 90.8563 114.255 90.8563C116.279 90.6615 117.932 89.2261 118.446 87.3101C119.396 89.4144 121.511 90.8758 123.971 90.8758V77.9835L124.14 77.9186C124.14 77.9186 129.099 78.9902 130.531 82.2376C130.752 82.7377 130.824 83.2963 130.824 83.8484V84.8161C130.824 84.8551 130.824 84.907 130.837 84.9525C130.837 84.972 130.824 84.985 130.837 85.0044C130.85 85.589 130.954 86.1605 131.129 86.7126C131.305 87.2517 131.533 87.8232 131.858 88.2908C132.21 88.8104 132.633 89.2391 133.101 89.6548C133.205 89.7262 133.329 89.8106 133.433 89.8821C133.902 90.1938 134.474 90.4017 135.008 90.5705C135.6 90.7654 136.218 90.8628 136.843 90.7134C137.325 90.59 137.78 90.3497 138.164 90.0444C138.548 89.7522 138.874 89.4015 139.153 89.0118C139.433 88.6286 139.674 88.2129 139.882 87.7842C140.019 87.505 140.156 87.2127 140.279 86.9204C140.657 87.7648 141.008 88.3688 141.737 89.0832C142.824 90.1743 144.333 90.8498 145.993 90.8628H147.431C150.034 90.8628 152.071 89.2066 152.924 86.9009C153.6 89.0572 155.091 90.8303 158.065 90.8303C158.156 90.8303 158.429 90.8498 158.52 90.8498C158.611 90.8368 159.314 90.8368 159.399 90.8303C161.429 90.5835 162.984 88.9858 163.42 87.0243C163.557 86.5177 163.668 85.8877 163.72 85.1603C163.759 84.5693 163.687 83.9328 163.648 83.5821L163.629 83.608ZM88.7581 83.2054C88.7581 84.2121 87.9316 85.0239 86.9359 85.0239H83.8708C82.8621 85.0239 82.0487 84.2121 82.0487 83.2054V77.9186C82.0487 77.9186 81.9445 76.2234 83.3632 74.4308C83.3632 74.4178 83.3762 74.4113 83.3827 74.3983C83.7276 73.9697 84.1571 73.5475 84.6973 73.1318C84.7103 73.1189 84.7168 73.1124 84.7363 73.0994C85.0812 72.8266 85.4782 72.5668 85.9272 72.3265C87.1051 71.6835 88.0357 71.1704 88.7646 70.7677V83.1989L88.7581 83.2054ZM152.715 83.2054C152.715 84.2121 151.889 85.0239 150.893 85.0239H147.828C146.819 85.0239 146.006 84.2121 146.006 83.2054V77.9186C146.006 77.9186 145.902 76.2234 147.321 74.4308C147.321 74.4178 147.334 74.4113 147.34 74.3983C147.685 73.9697 148.114 73.5475 148.655 73.1318C148.668 73.1189 148.674 73.1124 148.694 73.0994C149.039 72.8266 149.435 72.5668 149.885 72.3265C151.062 71.6835 151.993 71.1704 152.722 70.7677V83.1989L152.715 83.2054Z" fill="white"/>
<path opacity="0.2" d="M94.5433 90.8823C94.4392 90.8953 94.3351 90.8953 94.231 90.8953L94.2635 90.8628C94.3546 90.8758 94.4522 90.8823 94.5433 90.8823Z" fill="white"/>
<path opacity="0.2" d="M94.8168 90.8628V90.8953C94.7257 90.8953 94.6411 90.8953 94.5435 90.8823C94.6346 90.8693 94.7322 90.8693 94.8168 90.8628Z" fill="white"/>
<path opacity="0.2" d="M114.242 90.8759V90.8954C114.17 90.8954 114.099 90.8954 114.021 90.8824C114.092 90.8824 114.164 90.8694 114.242 90.8694V90.8759Z" fill="white"/>
<path opacity="0.2" d="M136.863 69.5404V69.0728C136.863 69.0728 136.882 69.2481 136.863 69.5404Z" fill="white"/>
<path d="M115.091 58.0114L111.207 54.1353L107.323 58.0114L111.207 61.8875L115.091 58.0114Z" fill="white"/>
<path d="M99.0791 96.8251L99.2483 98.7346L107.064 93.6556L106.895 91.7981L99.0791 96.8251Z" fill="#8C734C"/>
<path d="M142.479 65.1369L142.648 67.0464L150.464 61.9674L150.294 60.1099L142.479 65.1369Z" fill="#8C734C"/>
</g>
<defs>
<clipPath id="clip0_493_1224">
<rect width="206" height="125" fill="white"/>
</clipPath>
</defs>
</svg>
