<svg width="208" height="208" viewBox="0 0 208 208" fill="none" xmlns="http://www.w3.org/2000/svg">
<path d="M32.8595 86.8948C29.4922 86.8948 26.7552 87.1857 24.2429 87.7322C17.8874 89.1117 12.885 91.3551 9.50448 93.29C8.82133 93.6822 8.46432 94.4579 8.6318 95.2248C9.06814 97.2038 9.80419 99.6323 11.1044 102.246C12.171 104.397 13.3654 106.16 14.4584 107.548C14.9785 108.209 15.8953 108.412 16.6489 108.042C22.3081 105.283 24.2429 104.198 29.6685 103.859C37.474 103.365 37.3198 105.785 37.3198 111.651C22.0392 112.511 6.63965 119.554 6.63965 131.401C6.63965 142.785 10.1391 149.921 23.4804 149.921C31.8766 149.921 34.5739 147.18 38.5979 142.005V146.726C38.5979 147.426 38.88 148.061 39.3384 148.519C40.0656 149.247 40.9647 149.264 41.1322 149.264C43.1508 149.419 45.3193 149.516 47.6288 149.516C49.9691 149.52 52.1728 149.423 54.2135 149.264C55.615 149.264 56.7521 148.127 56.7521 146.726V109.434C56.6375 95.1763 49.9911 86.8948 32.8595 86.8948ZM37.3198 125.773C37.3198 128.457 35.9711 130.969 33.7145 132.415C33.6881 132.428 33.666 132.446 33.644 132.459C32.1631 133.402 30.3649 133.799 28.6504 133.424C27.1915 133.107 25.9177 132.247 25.9177 130.229C25.9177 125.856 28.6327 124.592 34.5431 123.789L37.3198 123.463V125.773Z" fill="url(#paint0_linear_493_1466)"/>
<path d="M128.981 88.5299C128.712 88.098 128.338 87.8511 128.003 87.7189C127.593 87.547 127.236 87.5426 127.196 87.5426C125.376 87.2033 123.199 86.9344 120.744 86.8947C117.773 86.8463 115.182 87.1504 113.088 87.5426C111.277 87.5426 109.637 88.6136 108.91 90.2708L97.001 117.473L85.1979 90.2841C82.4609 87.5955 81.4207 87.5426 81.0153 87.5426C78.9922 87.1812 76.5461 86.8991 73.765 86.8947C70.9134 86.8903 68.4144 87.1768 66.3561 87.5426C64.8003 87.5426 63.7822 89.1778 64.4786 90.5749L93.2062 148.4C93.669 149.33 94.621 149.921 95.6567 149.921H98.1866C99.2268 149.921 100.179 149.326 100.642 148.392L126.645 95.5201L129.083 90.5661C129.426 89.8697 129.343 89.1117 128.981 88.5299Z" fill="url(#paint1_linear_493_1466)"/>
<path d="M147.973 70.7459C147.973 77.1763 143.028 81.857 136.355 81.857C129.559 81.857 124.737 77.1807 124.737 70.7459C124.737 64.1965 129.559 59.6348 136.355 59.6348C143.028 59.6348 147.973 64.1965 147.973 70.7459Z" fill="url(#paint2_linear_493_1466)"/>
<path d="M146.064 90.1078V146.73C146.064 147.964 145.099 148.987 143.865 149.048C141.419 149.172 138.858 149.238 136.192 149.238C133.644 149.233 131.193 149.167 128.844 149.048C127.61 148.987 126.645 147.964 126.645 146.73V90.1078C126.645 88.6313 127.8 87.4104 129.272 87.3443C131.665 87.2341 134.16 87.1724 136.751 87.1813C139.056 87.1857 141.286 87.2474 143.433 87.3443C144.909 87.4104 146.064 88.6313 146.064 90.1078Z" fill="url(#paint3_linear_493_1466)"/>
<path d="M174.325 87.2561C157.647 87.2561 146.496 99.8393 146.496 118.879C146.496 137.585 157.255 149.939 174.717 149.939C179.653 149.939 184.219 149.463 188.327 148.295C192.51 147.105 195.683 145.112 197.909 143.477C198.698 142.896 199.09 141.917 198.892 140.956C198.499 139.079 197.878 136.884 196.869 134.521C196.185 132.913 195.432 131.489 194.683 130.259C193.986 129.1 192.474 128.721 191.306 129.409C186.925 131.992 181.615 133.173 177.683 133.173C171.667 133.173 167.207 130.898 165.532 123.983H198.839C200.214 123.983 201.325 122.873 201.351 121.502C201.721 100.593 192.272 87.2561 174.325 87.2561ZM165.025 112.467C165.025 112.467 165.642 103.237 174.307 103.237C182.972 103.237 183.144 112.467 183.144 112.467H165.025Z" fill="url(#paint4_linear_493_1466)"/>
<path d="M10.0907 58.0613C10.0907 58.0613 11.9726 64.7253 28.1964 63.3899C28.8443 63.337 29.4966 63.3414 30.1357 63.4604C38.0955 64.9589 41.3173 74.2806 41.7493 78.0886C41.7493 78.0886 35.4819 65.8624 21.9819 66.6866C21.9819 66.6866 37.9236 69.5735 39.8937 79.4109C39.8937 79.4109 35.9843 78.0314 32.4672 78.7365C28.9501 79.4417 20.0338 81.0152 14.7449 75.7263C9.456 70.4374 10.0907 58.0613 10.0907 58.0613Z" fill="url(#paint5_linear_493_1466)"/>
<defs>
<linearGradient id="paint0_linear_493_1466" x1="6.63881" y1="118.409" x2="56.7513" y2="118.409" gradientUnits="userSpaceOnUse">
<stop stop-color="#2B3888"/>
<stop offset="1" stop-color="#282B66"/>
</linearGradient>
<linearGradient id="paint1_linear_493_1466" x1="64.2545" y1="118.407" x2="129.3" y2="118.407" gradientUnits="userSpaceOnUse">
<stop stop-color="#2B3888"/>
<stop offset="1" stop-color="#282B66"/>
</linearGradient>
<linearGradient id="paint2_linear_493_1466" x1="124.736" y1="70.7446" x2="147.974" y2="70.7446" gradientUnits="userSpaceOnUse">
<stop stop-color="#2B3888"/>
<stop offset="1" stop-color="#282B66"/>
</linearGradient>
<linearGradient id="paint3_linear_493_1466" x1="126.645" y1="118.207" x2="146.064" y2="118.207" gradientUnits="userSpaceOnUse">
<stop stop-color="#2B3888"/>
<stop offset="1" stop-color="#282B66"/>
</linearGradient>
<linearGradient id="paint4_linear_493_1466" x1="146.495" y1="118.599" x2="201.361" y2="118.599" gradientUnits="userSpaceOnUse">
<stop stop-color="#2B3888"/>
<stop offset="1" stop-color="#282B66"/>
</linearGradient>
<linearGradient id="paint5_linear_493_1466" x1="10.0646" y1="68.7865" x2="41.7471" y2="68.7865" gradientUnits="userSpaceOnUse">
<stop stop-color="#87A43E"/>
<stop offset="1" stop-color="#71903D"/>
</linearGradient>
</defs>
</svg>
