<svg width="179" height="220" viewBox="0 0 179 220" fill="none" xmlns="http://www.w3.org/2000/svg">
<path d="M178.995 16.1701V181.29C178.995 190.224 171.755 197.464 162.821 197.464H146.119C134.54 206.373 113.537 212.329 89.5522 212.329C65.5674 212.329 44.5687 206.373 32.99 197.464H16.2834C7.35407 197.464 0.113281 190.224 0.113281 181.29V16.1701C0.113281 7.24078 7.35407 0 16.2834 0H162.821C171.759 0 178.995 7.23662 178.995 16.1701Z" fill="#153D1F"/>
<path d="M148.115 56.8865C148.115 56.8865 142.592 63.7363 153.052 72.4951C163.511 81.254 165.474 88.7401 161.548 94.8996C161.548 94.8996 164.31 87.9957 159.423 81.4661C159.423 81.4661 166.539 92.6163 153.16 105.996C144.451 114.064 133.305 103.658 133.305 103.658C133.305 103.658 141.323 105.888 150.772 102.278C160.222 98.6676 158.525 90.8113 155.871 87.6754C153.218 84.5437 143.661 75.6768 143.286 68.4027C143.286 68.4027 145.091 73.5016 147.815 75.6934C147.815 75.7017 138.503 64.5848 148.115 56.8865Z" fill="#132818"/>
<path d="M131.461 71.8419C124.312 67.0258 128.683 63.7361 128.683 63.7361C128.683 63.7361 120.349 64.834 126.72 74.957C126.72 74.957 124.753 74.7241 123.692 69.7333C123.692 69.7333 122.948 74.1959 125.922 76.4251C125.922 76.4251 122.187 80.1225 120.49 87.3425C118.789 94.5666 128.629 95.6272 128.629 95.6272C128.629 95.6272 125.373 99.4493 118.93 97.8938C114.896 96.8291 111.569 90.3868 110.65 87.7708C109.731 85.1507 106.046 78.9912 98.5431 77.7893C91.0403 76.5832 74.4751 88.1951 68.8105 92.0172C63.1502 95.8393 45.2748 107.164 27.1167 102.918C16.2327 99.8402 16.6028 89.6466 16.7109 87.8416C16.8149 86.0324 20.533 66.8137 47.1838 74.5661L47.5373 72.9399C47.5373 72.9399 30.9513 64.8673 19.0233 76.1382C16.7317 78.305 15.0182 81 14.0825 84.0111C12.6227 88.7025 11.6952 96.5047 17.9836 103.342C27.5784 113.769 43.9273 106.994 44.5138 106.748C44.2393 106.944 40.151 109.73 31.9994 110.138C31.9994 110.138 48.2818 113.748 72.2084 99.4493C91.111 87.1387 96.9876 86.6355 96.9876 86.6355C96.9876 86.6355 102.507 85.2921 106.969 93.1484C111.428 101.005 115.782 105.255 122.046 103.837C128.313 102.423 131.391 97.8231 132.098 96.3342L141.302 97.8938C141.302 97.8938 144.134 93.7847 144.912 86.0698C145.053 78.4256 138.611 76.6539 131.461 71.8419ZM131.886 88.5486C131.886 88.5486 125.938 87.8124 123.551 85.4252C123.381 85.2547 123.268 85.0384 123.206 84.8055C123.027 84.1567 123.302 83.4705 123.88 83.1294C125.123 82.3974 127.831 81.4159 129.656 82.4224C132.347 83.9113 131.886 88.5486 131.886 88.5486ZM134.647 89.5051L135.745 83.1336C135.745 83.1336 141.797 86.2112 141.905 90.9525L134.647 89.5051Z" fill="#132818"/>
<path d="M93.199 22.7119C93.199 22.7119 93.1283 18.5695 96.705 15.8786C100.282 13.1878 101.147 18.948 98.3686 21.9508C98.3686 21.9508 99.4666 17.4549 98.2438 16.6231C97.0211 15.7913 94.9333 19.314 96.6052 23.2068C98.2771 27.0996 102.012 31.949 105.622 35.1722C109.232 38.3954 116.843 45.9481 119.442 53.3844C120.594 56.2333 121.018 58.8534 120.806 60.9412C120.806 60.9412 119.143 53.8626 116.381 50.4648C116.381 50.4648 121.301 60.3382 120.557 67.3502C119.812 74.3581 113.391 80.0934 105.584 77.8101C97.778 75.5268 95.3201 61.9519 106.046 55.7425C106.046 55.7425 94.0682 69.1968 105.901 76.3128C108.25 77.7269 111.278 77.5647 113.353 75.7763C116.951 72.6779 120.054 65.5452 113.125 54.2203C113.125 54.2203 107.602 45.0872 98.8261 37.1602C90.0465 29.2331 92.5793 20.8445 92.5793 20.8445C92.5793 20.8445 92.2091 27.8898 95.0372 31.4624C95.0372 31.454 93.095 26.5839 93.199 22.7119Z" fill="#132818"/>
<path d="M102.128 20.4909C102.182 20.0293 102.331 19.5843 102.564 19.1809C103.138 18.1952 104.261 16.569 104.706 17.9415C105.317 19.8255 103.829 20.3828 103.113 20.9692C102.689 21.3685 102.448 23.0113 103.991 22.1088C105.53 21.2063 108.69 20.8361 106.274 25.8269C104.282 30.1023 101.604 28.8006 101.604 28.8006C101.604 28.8006 104.336 27.4739 105.214 25.1906C105.214 25.1906 101.508 26.6753 101.895 22.6952C101.999 21.6471 102.078 20.9401 102.128 20.4909Z" fill="#132818"/>
<path d="M77.8637 53.505C59.6266 78.9331 56.158 58.7994 56.158 58.7994L56.1039 57.6307L55.4135 57.4727C55.2388 57.5351 55.0683 57.6016 54.902 57.6682C51.0715 59.2112 48.5969 62.975 48.5138 67.1008L48.4597 69.6668C46.6547 93.9678 22.125 93.2025 22.125 93.2025C26.5834 95.4858 34.602 92.4581 34.602 92.4581C31.7364 94.5833 27.4693 95.0616 27.4693 95.0616C52.103 97.0454 50.797 78.3383 51.2212 71.9127C51.6455 65.4871 56.2661 64.0564 56.2661 64.0564C56.2661 64.0564 59.4519 74.6202 67.5203 70.6941C82.9709 60.8706 82.0144 52.6441 80.5296 48.1275C79.9266 46.2934 78.3212 45.5697 76.6326 45.3576C73.2181 44.9292 69.9159 46.6926 68.1442 49.6455C65.1996 54.5406 62.725 63.0915 65.4533 71.3845C69.4917 83.6535 86.5186 69.1553 86.5186 69.1553L105.696 51.3964L100.68 53.5716L105.696 50.2278V47.4204C102.015 48.9759 98.617 47.279 98.0514 47.1376C97.4858 46.9962 91.3263 41.7559 88.9183 45.4366C85.5204 50.3193 86.7223 59.7352 86.7223 59.7352L88.9183 76.4086L89.5546 75.4187L88.7062 59.5979C88.7062 59.5979 88.1572 53.5466 90.769 51.0512C91.971 49.7245 97.0948 52.8313 97.0948 52.8313C97.0948 52.8313 76.8822 75.3854 68.2481 71.2805C68.2481 71.2805 63.2199 65.1918 68.6724 55.6344C71.8748 50.6104 75.7426 51.2051 77.2939 51.7125C77.714 51.8498 78.0176 52.2199 78.0758 52.6608C78.1133 52.9519 78.0384 53.2597 77.8637 53.505Z" fill="#132818"/>
<path d="M52.0957 74.4331C52.0957 74.4331 64.2815 80.3014 67.8915 89.2724C67.8915 89.2724 61.9982 81.7321 52.0957 76.2631V74.4331Z" fill="#132818"/>
<path d="M58.5171 48.3687C56.7662 50.9182 54.6202 53.7546 53.0273 51.9496C50.769 48.9468 49.043 49.9034 49.043 49.9034C49.9288 48.5725 50.9977 47.2874 52.0291 46.4805C54.1419 47.1335 55.5351 48.5351 55.6433 48.6474C54.5245 46.9048 53.2103 46.3641 52.4159 46.1603C53.5472 45.4699 54.7699 45.4034 55.3896 46.7176C56.629 49.3502 58.4215 48.4186 58.5171 48.3687Z" fill="#132818"/>
<path d="M90.23 36.2994C88.4791 38.8489 86.333 41.6853 84.7401 39.8803C82.4818 36.8775 80.7559 37.8341 80.7559 37.8341C81.6417 36.5032 82.7106 35.2181 83.742 34.4112C85.8548 35.0642 87.248 36.4657 87.3562 36.578C86.2374 34.8354 84.9232 34.2948 84.1288 34.091C85.26 33.4006 86.4828 33.334 87.1024 34.6483C88.3418 37.2809 90.1344 36.3493 90.23 36.2994Z" fill="#132818"/>
<path d="M99.8237 106.632C99.6781 106.59 96.6504 105.704 92.8699 108.811C88.9979 111.997 86.3943 111.148 84.5103 109.235C84.4978 109.223 84.4854 109.21 84.4687 109.194C89.0395 109.248 92.1837 105.467 92.1837 105.467C86.4526 109.568 83.1295 107.792 82.0149 106.902C81.8777 106.773 81.7363 106.64 81.5949 106.507C81.5907 106.503 81.5907 106.503 81.5907 106.503C79.3698 104.394 76.916 101.77 76.916 99.7861C76.916 99.7861 79.3615 104.22 83.6619 101.192C87.9623 98.1683 92.2336 95.5107 95.5524 99.1997C98.7964 102.81 99.7821 106.461 99.8237 106.632Z" fill="#132818"/>
<path d="M136.965 48.3394C136.965 48.3394 129.096 59.6268 134.432 62.8501C139.007 65.6116 138.998 56.4452 138.998 56.4452C138.998 56.4452 137.813 59.9679 135.051 59.0113C132.294 58.0547 136.965 48.3394 136.965 48.3394Z" fill="#132818"/>
<path d="M22.3301 55.8009H23.9521V60.1512H25.1873V55.8009H26.8135V54.6531H22.3301V55.8009Z" fill="#132818"/>
<path d="M31.9714 54.6531L30.3245 57.8555L28.6692 54.6531H27.3633V60.1512H28.5361V56.8948L29.9335 59.6189H30.7113L32.0962 56.8989L32.1004 60.1512H33.2732V54.6531H31.9714Z" fill="#132818"/>
<path d="M147.3 56.0715C147.3 56.0715 141.777 62.9214 152.237 71.6802C162.697 80.439 164.66 87.9252 160.734 94.0847C160.734 94.0847 163.496 87.1807 158.609 80.6511C158.609 80.6511 165.725 91.8014 152.345 105.181C143.636 113.249 132.49 102.843 132.49 102.843C132.49 102.843 140.509 105.073 149.958 101.463C159.407 97.8527 157.71 89.9964 155.057 86.8605C152.404 83.7246 142.846 74.8618 142.472 67.5878C142.472 67.5878 144.277 72.6867 147.001 74.8785C147.001 74.8868 137.689 63.774 147.3 56.0715Z" fill="url(#paint0_linear_536_659)"/>
<path d="M130.643 71.027C123.494 66.2109 127.865 62.9211 127.865 62.9211C127.865 62.9211 119.53 64.0191 125.902 74.1421C125.902 74.1421 123.935 73.9092 122.874 68.9184C122.874 68.9184 122.13 73.381 125.103 75.6102C125.103 75.6102 121.368 79.3075 119.672 86.5275C117.971 93.7517 127.811 94.8122 127.811 94.8122C127.811 94.8122 124.554 98.6343 118.112 97.0789C114.078 96.0142 110.751 89.5719 109.831 86.9559C108.912 84.3358 105.227 78.1763 97.7247 76.9744C90.2219 75.7682 73.6566 87.3801 67.9921 91.2022C62.3317 95.0243 44.4564 106.349 26.2983 102.103C15.4142 99.0253 15.7844 88.8316 15.8925 87.0266C15.9965 85.2175 19.7146 65.9988 46.3654 73.7511L46.7189 72.125C46.7189 72.125 30.1329 64.0524 18.2049 75.3232C15.9133 77.4901 14.1998 80.1851 13.264 83.1962C11.8042 87.8875 10.8768 95.6898 17.1652 102.527C26.7599 112.954 43.1089 106.179 43.6953 105.933C43.4208 106.129 39.3325 108.915 31.1809 109.323C31.1809 109.323 47.4634 112.933 71.39 98.6344C90.2926 86.3238 96.1692 85.8205 96.1692 85.8205C96.1692 85.8205 101.688 84.4772 106.151 92.3335C110.609 100.19 114.964 104.44 121.227 103.022C127.495 101.608 130.572 97.0082 131.279 95.5193L140.483 97.0789C140.483 97.0789 143.315 92.9698 144.093 85.2549C144.239 77.6148 137.792 75.839 130.643 71.027ZM131.071 87.7336C131.071 87.7336 125.124 86.9975 122.737 84.6103C122.566 84.4397 122.454 84.2235 122.392 83.9906C122.213 83.3418 122.487 82.6555 123.065 82.3145C124.309 81.5825 127.016 80.601 128.842 81.6075C131.529 83.1005 131.071 87.7336 131.071 87.7336ZM133.833 88.6944L134.931 82.3228C134.931 82.3228 140.982 85.4005 141.09 90.1417L133.833 88.6944Z" fill="url(#paint1_linear_536_659)"/>
<path d="M92.3846 21.8969C92.3846 21.8969 92.3139 17.7546 95.8906 15.0637C99.4673 12.3728 100.332 18.133 97.5542 21.1358C97.5542 21.1358 98.6522 16.64 97.4294 15.8082C96.2067 14.9764 94.1189 18.499 95.7908 22.3918C97.4627 26.2846 101.197 31.134 104.807 34.3572C108.417 37.5763 116.028 45.1332 118.628 52.5694C119.78 55.4183 120.204 58.0385 119.992 60.1263C119.992 60.1263 118.328 53.0477 115.567 49.6498C115.567 49.6498 120.487 59.5232 119.742 66.5353C118.998 73.5432 112.576 79.2784 104.77 76.9951C96.9636 74.7118 94.5057 61.1369 105.232 54.9276C105.232 54.9276 93.2538 68.3819 105.086 75.4979C107.436 76.912 110.464 76.7498 112.539 74.9614C116.137 71.8629 119.239 64.7303 112.31 53.4054C112.31 53.4054 106.787 44.2722 98.0117 36.3452C89.2321 28.4182 91.7649 20.0295 91.7649 20.0295C91.7649 20.0295 91.3947 27.0749 94.2228 30.6474C94.2228 30.6433 92.2806 25.7689 92.3846 21.8969Z" fill="url(#paint2_linear_536_659)"/>
<path d="M101.313 19.676C101.367 19.2143 101.517 18.7693 101.75 18.3659C102.324 17.3802 103.446 15.7541 103.891 17.1265C104.503 19.0105 103.014 19.5679 102.299 20.1543C101.874 20.5535 101.633 22.1963 103.176 21.2938C104.715 20.3913 107.876 20.0212 105.459 25.012C103.467 29.2874 100.789 27.9856 100.789 27.9856C100.789 27.9856 103.521 26.6589 104.399 24.3756C104.399 24.3756 100.693 25.8604 101.08 21.8802C101.184 20.8322 101.259 20.1252 101.313 19.676Z" fill="url(#paint3_linear_536_659)"/>
<path d="M77.0452 52.6901C58.808 78.1181 55.3395 57.9845 55.3395 57.9845L55.2854 56.8158L54.595 56.6578C54.4203 56.7201 54.2498 56.7867 54.0834 56.8532C50.253 58.3962 47.7784 62.1601 47.6952 66.2858L47.6412 68.8519C45.8362 93.1529 21.3065 92.3876 21.3065 92.3876C25.7649 94.6709 33.7834 91.6431 33.7834 91.6431C30.9179 93.7684 26.6508 94.2467 26.6508 94.2467C51.2844 96.2305 49.9785 77.5234 50.4027 71.0978C50.8269 64.6721 55.4476 63.2414 55.4476 63.2414C55.4476 63.2414 58.6334 73.8053 66.7018 69.8792C82.1524 60.0557 81.1959 51.8292 79.7111 47.3125C79.108 45.4784 77.5027 44.7547 75.8141 44.5426C72.3996 44.1143 69.0974 45.8777 67.3256 48.8306C64.3811 53.7257 61.9065 62.2766 64.6348 70.5696C68.6731 82.8386 85.7 68.3403 85.7 68.3403L104.877 50.5815L99.8614 52.7566L104.877 49.4128V46.6097C101.196 48.1651 97.7985 46.4682 97.2329 46.3268C96.6673 46.1854 90.5078 40.9451 88.0998 44.6258C84.7019 49.5085 85.9038 58.9244 85.9038 58.9244L88.0998 75.5978L88.7361 74.6079L87.8876 58.7872C87.8876 58.7872 87.3387 52.7358 89.9505 50.2405C91.1525 48.9137 96.2763 52.0205 96.2763 52.0205C96.2763 52.0205 76.0637 74.5747 67.4296 70.4698C67.4296 70.4698 62.4014 64.381 67.8538 54.8236C71.0563 49.7996 74.9241 50.3943 76.4754 50.9017C76.8955 51.039 77.1991 51.4091 77.2573 51.8458C77.2989 52.137 77.2199 52.4447 77.0452 52.6901Z" fill="url(#paint4_linear_536_659)"/>
<path d="M51.2812 73.6223C51.2812 73.6223 63.467 79.4906 67.077 88.4616C67.077 88.4616 61.1837 80.9213 51.2812 75.4523V73.6223Z" fill="url(#paint5_linear_536_659)"/>
<path d="M57.7025 47.5535C55.9516 50.103 53.8056 52.9394 52.2127 51.1344C49.9543 48.1316 48.2284 49.0882 48.2284 49.0882C49.1142 47.7573 50.1831 46.4722 51.2145 45.6654C53.3273 46.3183 54.7205 47.7199 54.8287 47.8322C53.7099 46.0896 52.3957 45.5489 51.6013 45.3451C52.7325 44.6547 53.9553 44.5882 54.575 45.9024C55.8102 48.5351 57.6027 47.6035 57.7025 47.5535Z" fill="url(#paint6_linear_536_659)"/>
<path d="M89.4152 35.4845C87.6642 38.0339 85.5182 40.8703 83.9253 39.0653C81.667 36.0626 79.941 37.0191 79.941 37.0191C80.8269 35.6882 81.8957 34.4031 82.9272 33.5963C85.0399 34.2492 86.4332 35.6508 86.5413 35.7631C85.4225 34.0205 84.1083 33.4798 83.3139 33.276C84.4452 32.5856 85.6679 32.5191 86.2876 33.8333C87.527 36.466 89.3195 35.5344 89.4152 35.4845Z" fill="url(#paint7_linear_536_659)"/>
<path d="M99.0051 105.821C98.8596 105.779 95.8318 104.894 92.0513 108C88.1793 111.186 85.5758 110.338 83.6918 108.425C83.6793 108.412 83.6668 108.4 83.6502 108.383C88.2209 108.437 91.3651 104.656 91.3651 104.656C85.634 108.757 82.311 106.981 81.1964 106.091C81.0591 105.962 80.9177 105.829 80.7763 105.696C80.7722 105.692 80.7722 105.692 80.7722 105.692C78.5513 103.583 76.0975 100.959 76.0975 98.9753C76.0975 98.9753 78.5429 103.409 82.8433 100.381C87.1437 97.3575 91.415 94.6999 94.7339 98.3889C97.9779 101.995 98.9636 105.65 99.0051 105.821Z" fill="url(#paint8_linear_536_659)"/>
<path d="M136.15 47.5244C136.15 47.5244 128.281 58.8119 133.617 62.0351C138.192 64.7967 138.184 55.6303 138.184 55.6303C138.184 55.6303 136.998 59.1529 134.237 58.1964C131.479 57.2398 136.15 47.5244 136.15 47.5244Z" fill="url(#paint9_linear_536_659)"/>
<path d="M21.5154 54.9902H23.1332V59.3363H24.3726V54.9902H25.9988V53.8381H21.5154V54.9902Z" fill="url(#paint10_linear_536_659)"/>
<path d="M31.1526 53.8381L29.5098 57.0406L27.8545 53.8381H26.5486V59.3363H27.7214V56.084L29.1188 58.804H29.8966L31.2815 56.084L31.2857 59.3363H32.4585V53.8381H31.1526Z" fill="url(#paint11_linear_536_659)"/>
<path d="M35.7759 132.077C35.2393 131.553 34.6072 131.145 33.8794 130.85C33.1515 130.555 32.4279 130.405 31.7084 130.405C31.0429 130.405 30.4316 130.53 29.8659 130.775C29.3003 131.02 28.8054 131.366 28.3853 131.802C27.9611 132.239 27.6326 132.751 27.3997 133.329C27.1668 133.907 27.0503 134.535 27.0503 135.213C27.0503 135.891 27.1709 136.523 27.4121 137.109C27.6534 137.696 27.9861 138.211 28.4061 138.656C28.8304 139.101 29.3253 139.447 29.8867 139.696C30.4524 139.942 31.0637 140.066 31.7292 140.066C32.3364 140.066 32.9935 139.933 33.7005 139.663C34.4076 139.397 35.048 139.035 35.6261 138.582L37.5309 140.931C37.0069 141.297 36.4122 141.63 35.7426 141.925C35.073 142.221 34.3701 142.454 33.634 142.624C32.8978 142.795 32.195 142.878 31.5171 142.878C30.3858 142.878 29.3461 142.682 28.3937 142.295C27.4413 141.909 26.6053 141.368 25.8858 140.673C25.1663 139.983 24.609 139.168 24.2139 138.228C23.8188 137.288 23.6191 136.282 23.6191 135.209C23.6191 134.136 23.8229 133.137 24.2347 132.21C24.6423 131.287 25.212 130.476 25.9399 129.785C26.6677 129.095 27.5244 128.558 28.5143 128.176C29.5041 127.793 30.5688 127.606 31.7125 127.606C32.4487 127.606 33.1723 127.693 33.896 127.872C34.6155 128.047 35.3017 128.301 35.9505 128.625C36.5993 128.949 37.1733 129.336 37.6682 129.789L35.7759 132.077ZM34.6321 135.188H37.5351V140.927H34.6321V135.188Z" fill="white"/>
<path d="M45.7528 127.818C47.6867 127.818 49.1881 128.267 50.2528 129.161C51.3175 130.06 51.8499 131.32 51.8499 132.942C51.8499 134.651 51.3175 135.982 50.2528 136.935C49.1881 137.887 47.6867 138.365 45.7528 138.365H42.6585V142.645H39.3105V127.818H45.7528ZM45.7528 135.654C46.6719 135.654 47.3873 135.437 47.903 135.009C48.4187 134.576 48.6766 133.924 48.6766 133.05C48.6766 132.202 48.4187 131.57 47.903 131.145C47.3873 130.721 46.6719 130.509 45.7528 130.509H42.6585V135.658H45.7528V135.654ZM45.3494 137.118H48.61L52.2117 142.645H48.4187L45.3494 137.118Z" fill="white"/>
<path d="M53.5059 127.818H64.7933V130.509H56.8497V133.857H63.9865V136.548H56.8497V139.958H65.0262V142.649H53.5059V127.818Z" fill="white"/>
<path d="M66.5098 127.818H77.7973V130.509H69.8536V133.857H76.9904V136.548H69.8536V139.958H78.0301V142.649H66.5098V127.818Z" fill="white"/>
<path d="M92.9202 127.818V142.645L84.8933 135.916L82.714 134.09V142.645H79.5116V127.818L87.5634 134.564L89.7677 136.411V127.818H92.9202Z" fill="white"/>
<path d="M112.18 132.077C111.643 131.553 111.011 131.145 110.283 130.85C109.556 130.555 108.832 130.405 108.112 130.405C107.447 130.405 106.836 130.53 106.27 130.775C105.704 131.02 105.209 131.366 104.789 131.802C104.365 132.239 104.037 132.751 103.804 133.329C103.571 133.907 103.454 134.535 103.454 135.213C103.454 135.891 103.575 136.523 103.816 137.109C104.057 137.696 104.39 138.211 104.81 138.656C105.234 139.101 105.729 139.447 106.295 139.696C106.861 139.942 107.472 140.066 108.137 140.066C108.745 140.066 109.402 139.933 110.109 139.663C110.816 139.397 111.456 139.035 112.034 138.582L113.939 140.931C113.415 141.297 112.82 141.63 112.151 141.925C111.481 142.221 110.778 142.454 110.042 142.624C109.306 142.795 108.603 142.878 107.925 142.878C106.794 142.878 105.754 142.682 104.802 142.295C103.849 141.909 103.013 141.368 102.294 140.673C101.574 139.983 101.017 139.168 100.622 138.228C100.227 137.288 100.027 136.282 100.027 135.209C100.027 134.136 100.231 133.137 100.643 132.21C101.05 131.287 101.62 130.476 102.348 129.785C103.076 129.095 103.933 128.558 104.922 128.176C105.912 127.793 106.977 127.606 108.121 127.606C108.857 127.606 109.581 127.693 110.304 127.872C111.024 128.047 111.71 128.301 112.359 128.625C113.008 128.949 113.581 129.336 114.076 129.789L112.18 132.077ZM111.036 135.188H113.939V140.927H111.036V135.188Z" fill="white"/>
<path d="M122.623 127.606C123.754 127.606 124.802 127.797 125.767 128.176C126.732 128.558 127.576 129.095 128.3 129.785C129.019 130.476 129.581 131.282 129.984 132.202C130.387 133.121 130.587 134.123 130.587 135.209C130.587 136.282 130.387 137.284 129.984 138.216C129.581 139.147 129.019 139.962 128.3 140.661C127.58 141.36 126.736 141.905 125.767 142.291C124.798 142.678 123.75 142.874 122.623 142.874C121.491 142.874 120.443 142.678 119.478 142.291C118.509 141.905 117.669 141.36 116.946 140.661C116.226 139.962 115.665 139.147 115.261 138.216C114.858 137.284 114.658 136.282 114.658 135.209C114.658 134.123 114.858 133.117 115.261 132.189C115.665 131.266 116.226 130.459 116.946 129.773C117.665 129.087 118.509 128.554 119.478 128.172C120.443 127.797 121.491 127.606 122.623 127.606ZM122.664 130.422C122.045 130.422 121.454 130.542 120.897 130.783C120.339 131.025 119.853 131.362 119.437 131.798C119.021 132.235 118.692 132.746 118.451 133.325C118.21 133.903 118.089 134.531 118.089 135.209C118.089 135.887 118.21 136.519 118.451 137.105C118.692 137.692 119.025 138.207 119.445 138.652C119.869 139.097 120.356 139.442 120.905 139.692C121.454 139.942 122.04 140.062 122.664 140.062C123.284 140.062 123.866 139.937 124.411 139.692C124.956 139.447 125.43 139.097 125.842 138.652C126.249 138.207 126.574 137.692 126.807 137.105C127.04 136.519 127.156 135.887 127.156 135.209C127.156 134.531 127.04 133.903 126.807 133.325C126.574 132.746 126.253 132.239 125.842 131.798C125.43 131.362 124.956 131.02 124.411 130.783C123.866 130.542 123.284 130.422 122.664 130.422Z" fill="white"/>
<path d="M131.645 127.818H134.993V139.829H141.327V142.645H131.645V127.818Z" fill="white"/>
<path d="M148.463 127.818C149.619 127.818 150.676 127.997 151.628 128.359C152.581 128.721 153.404 129.228 154.094 129.885C154.785 130.542 155.321 131.32 155.704 132.227C156.087 133.129 156.278 134.131 156.278 135.234C156.278 136.319 156.087 137.317 155.704 138.22C155.321 139.122 154.781 139.908 154.074 140.57C153.367 141.235 152.531 141.747 151.566 142.104C150.597 142.466 149.528 142.645 148.355 142.645H142.191V127.818H148.463ZM148.546 139.912C149.183 139.912 149.761 139.8 150.285 139.576C150.809 139.351 151.262 139.031 151.653 138.611C152.04 138.195 152.339 137.704 152.551 137.138C152.764 136.573 152.868 135.945 152.868 135.254C152.868 134.564 152.755 133.932 152.531 133.358C152.306 132.788 151.994 132.285 151.599 131.852C151.204 131.42 150.734 131.095 150.189 130.867C149.644 130.642 149.05 130.53 148.401 130.53H145.544V139.912H148.546Z" fill="white"/>
<path d="M36.6661 150.697H37.6268L40.6296 154.777L40.3634 154.868V150.697H41.3491V156.004H40.3801L37.3939 151.932L37.6601 151.84V156.004H36.6661V150.697Z" fill="url(#paint12_linear_536_659)"/>
<path d="M44.2106 150.697H45.2503L47.5461 156.004H46.4606L44.693 151.72L42.9338 156.004H41.8732L44.2106 150.697ZM43.096 154.02H46.2568V154.847H43.096V154.02Z" fill="url(#paint13_linear_536_659)"/>
<path d="M46.9471 150.697H51.2766V151.554H49.6255V156.004H48.6024V151.554H46.9513V150.697H46.9471Z" fill="url(#paint14_linear_536_659)"/>
<path d="M52.7899 153.82C52.7899 154.257 52.9105 154.598 53.1476 154.843C53.3847 155.093 53.7049 155.213 54.1042 155.213C54.4993 155.213 54.8112 155.093 55.0441 154.847C55.277 154.602 55.3934 154.261 55.3934 153.82V150.697H56.4082V153.82C56.4082 154.286 56.3167 154.685 56.1296 155.022C55.9424 155.359 55.6804 155.617 55.3352 155.8C54.99 155.983 54.5783 156.074 54.1042 156.074C53.6259 156.074 53.21 155.983 52.8606 155.8C52.5113 155.617 52.2451 155.359 52.0579 155.022C51.8708 154.685 51.7793 154.286 51.7793 153.82V150.697H52.7941V153.82H52.7899Z" fill="url(#paint15_linear_536_659)"/>
<path d="M59.6989 150.697C60.3851 150.697 60.9175 150.855 61.2918 151.175C61.6661 151.495 61.8533 151.94 61.8533 152.518C61.8533 153.121 61.6661 153.587 61.2918 153.92C60.9175 154.253 60.3851 154.419 59.6989 154.419H58.5011V156.004H57.4863V150.697H59.6989ZM59.6989 153.579C60.0774 153.579 60.3727 153.492 60.5765 153.321C60.7844 153.151 60.8884 152.889 60.8884 152.539C60.8884 152.206 60.7844 151.957 60.5765 151.795C60.3685 151.628 60.0774 151.549 59.6989 151.549H58.5011V153.579H59.6989ZM59.6615 154.032H60.6555L61.9614 156.004H60.8094L59.6615 154.032Z" fill="url(#paint16_linear_536_659)"/>
<path d="M64.519 150.697H65.5587L67.8545 156.004H66.769L65.0014 151.72L63.2422 156.004H62.1816L64.519 150.697ZM63.4044 154.02H66.5652V154.847H63.4044V154.02Z" fill="url(#paint17_linear_536_659)"/>
<path d="M68.3868 150.697H69.4016V155.139H71.689V156.004H68.3826V150.697H68.3868Z" fill="url(#paint18_linear_536_659)"/>
<path d="M74.293 150.697H75.3078V152.984H77.9529V150.697H78.976V156.004H77.9529V153.828H75.3078V156.004H74.293V150.697Z" fill="url(#paint19_linear_536_659)"/>
<path d="M80.1562 150.697H84.0449V151.545H81.171V152.918H83.7496V153.758H81.171V155.151H84.1364V155.999H80.1562V150.697Z" fill="url(#paint20_linear_536_659)"/>
<path d="M87.2595 150.697C87.9457 150.697 88.478 150.855 88.8524 151.175C89.2267 151.495 89.4138 151.94 89.4138 152.518C89.4138 153.121 89.2267 153.587 88.8524 153.92C88.478 154.253 87.9457 154.419 87.2595 154.419H86.0617V156.004H85.0469V150.697H87.2595ZM87.2595 153.579C87.6379 153.579 87.9332 153.492 88.137 153.321C88.345 153.151 88.4489 152.889 88.4489 152.539C88.4489 152.206 88.345 151.957 88.137 151.795C87.9291 151.628 87.6379 151.549 87.2595 151.549H86.0617V153.579H87.2595ZM87.222 154.032H88.216L89.5219 156.004H88.3699L87.222 154.032Z" fill="url(#paint21_linear_536_659)"/>
<path d="M92.7661 150.697C93.1446 150.697 93.4731 150.751 93.7435 150.855C94.018 150.963 94.2259 151.112 94.3715 151.308C94.517 151.503 94.5919 151.745 94.5919 152.019C94.5919 152.314 94.5087 152.564 94.3465 152.776C94.1802 152.988 93.9556 153.125 93.6686 153.192C94.018 153.258 94.2924 153.408 94.4962 153.645C94.7 153.882 94.7998 154.178 94.7998 154.531C94.7998 154.835 94.7208 155.097 94.5586 155.317C94.3964 155.538 94.1718 155.704 93.8807 155.82C93.5896 155.937 93.2444 155.995 92.8368 155.995H90.4121V150.688H92.7661V150.697ZM92.712 152.88C92.9741 152.88 93.182 152.818 93.3317 152.697C93.4814 152.576 93.5563 152.406 93.5563 152.19C93.5563 151.982 93.4814 151.819 93.3317 151.703C93.182 151.587 92.9782 151.533 92.712 151.537H91.4227V152.88H92.712ZM92.712 155.163C93.0364 155.167 93.2901 155.105 93.469 154.972C93.6519 154.839 93.7435 154.656 93.7435 154.419C93.7435 154.198 93.6519 154.02 93.469 153.891C93.286 153.762 93.0364 153.699 92.712 153.699H91.4227V155.163H92.712Z" fill="url(#paint22_linear_536_659)"/>
<path d="M98.9962 152.007C98.809 151.89 98.6177 151.794 98.4223 151.72C98.2268 151.645 98.0438 151.591 97.8733 151.557C97.7027 151.524 97.5447 151.507 97.4033 151.507C97.1662 151.507 96.9749 151.553 96.8294 151.645C96.6838 151.736 96.6131 151.869 96.6131 152.048C96.6131 152.21 96.663 152.343 96.767 152.443C96.871 152.543 97.0082 152.626 97.1746 152.693C97.3451 152.759 97.5281 152.822 97.7318 152.884C97.9356 152.946 98.1353 153.013 98.3391 153.084C98.5429 153.159 98.7259 153.25 98.8964 153.367C99.0669 153.483 99.2 153.633 99.2998 153.816C99.3996 153.999 99.4495 154.223 99.4495 154.498C99.4495 154.826 99.3622 155.105 99.1834 155.338C99.0045 155.571 98.7633 155.75 98.4597 155.874C98.1519 155.999 97.8067 156.066 97.4158 156.066C97.133 156.066 96.8543 156.028 96.584 155.958C96.3137 155.883 96.0599 155.783 95.8187 155.658C95.5775 155.533 95.3612 155.384 95.1699 155.217L95.5941 154.39C95.7771 154.556 95.9726 154.702 96.1847 154.818C96.3968 154.939 96.6089 155.026 96.8252 155.092C97.0415 155.155 97.2411 155.188 97.4282 155.188C97.7152 155.188 97.9398 155.134 98.0978 155.022C98.2559 154.909 98.3349 154.756 98.3349 154.552C98.3349 154.385 98.285 154.252 98.181 154.148C98.077 154.049 97.944 153.961 97.7735 153.895C97.6029 153.828 97.4199 153.766 97.2161 153.712C97.0123 153.658 96.8086 153.595 96.6048 153.52C96.401 153.446 96.218 153.354 96.0475 153.242C95.8769 153.129 95.7397 152.984 95.6399 152.805C95.5359 152.63 95.486 152.402 95.486 152.131C95.486 151.824 95.5692 151.557 95.7355 151.333C95.9019 151.108 96.1348 150.934 96.4301 150.809C96.7254 150.684 97.0747 150.622 97.474 150.622C97.8275 150.622 98.1727 150.671 98.5096 150.771C98.8465 150.871 99.1418 151.008 99.3913 151.175L98.9962 152.007Z" fill="url(#paint23_linear_536_659)"/>
<path d="M104.395 150.697C105.069 150.697 105.589 150.855 105.955 151.175C106.325 151.495 106.508 151.94 106.508 152.518C106.508 153.121 106.325 153.587 105.955 153.92C105.585 154.252 105.065 154.419 104.395 154.419H102.794L103.243 153.97V155.999H102.228V150.692H104.395V150.697ZM104.35 153.579C104.728 153.579 105.019 153.491 105.227 153.321C105.435 153.15 105.535 152.888 105.535 152.539C105.535 152.206 105.431 151.957 105.227 151.795C105.023 151.628 104.732 151.549 104.35 151.549H102.794L103.243 151.1V154.028L102.794 153.579H104.35Z" fill="url(#paint24_linear_536_659)"/>
<path d="M109.435 150.697C110.121 150.697 110.654 150.855 111.028 151.175C111.402 151.495 111.59 151.94 111.59 152.518C111.59 153.121 111.402 153.587 111.028 153.92C110.654 154.253 110.126 154.419 109.435 154.419H108.237V156.004H107.223V150.697H109.435ZM109.435 153.579C109.814 153.579 110.109 153.492 110.317 153.321C110.525 153.151 110.629 152.889 110.629 152.539C110.629 152.206 110.525 151.957 110.317 151.795C110.109 151.628 109.818 151.549 109.435 151.549H108.237V153.579H109.435ZM109.398 154.032H110.392L111.698 156.004H110.546L109.398 154.032Z" fill="url(#paint25_linear_536_659)"/>
<path d="M114.992 150.638C115.392 150.638 115.762 150.705 116.107 150.842C116.452 150.979 116.752 151.171 117.005 151.42C117.259 151.665 117.459 151.957 117.604 152.281C117.75 152.605 117.821 152.963 117.821 153.346C117.821 153.724 117.75 154.082 117.604 154.415C117.459 154.747 117.259 155.038 117.005 155.288C116.752 155.537 116.452 155.729 116.107 155.866C115.762 156.003 115.392 156.074 114.992 156.074C114.593 156.074 114.223 156.003 113.882 155.866C113.541 155.729 113.241 155.533 112.984 155.288C112.726 155.038 112.526 154.751 112.381 154.419C112.235 154.086 112.164 153.728 112.164 153.346C112.164 152.963 112.235 152.605 112.381 152.277C112.526 151.948 112.726 151.661 112.984 151.416C113.241 151.171 113.541 150.979 113.882 150.842C114.223 150.705 114.593 150.638 114.992 150.638ZM115.009 151.495C114.76 151.495 114.531 151.541 114.31 151.636C114.094 151.728 113.903 151.861 113.732 152.031C113.566 152.202 113.437 152.397 113.341 152.618C113.25 152.838 113.2 153.084 113.2 153.346C113.2 153.608 113.25 153.853 113.345 154.078C113.441 154.302 113.574 154.502 113.741 154.672C113.907 154.843 114.098 154.98 114.319 155.076C114.535 155.171 114.768 155.221 115.009 155.221C115.25 155.221 115.479 155.171 115.695 155.076C115.912 154.98 116.099 154.847 116.261 154.672C116.423 154.502 116.552 154.302 116.644 154.078C116.735 153.853 116.785 153.608 116.785 153.346C116.785 153.084 116.739 152.838 116.644 152.618C116.552 152.393 116.423 152.198 116.261 152.031C116.099 151.861 115.912 151.732 115.695 151.636C115.479 151.541 115.25 151.495 115.009 151.495Z" fill="url(#paint26_linear_536_659)"/>
<path d="M120.798 150.697C121.202 150.697 121.572 150.763 121.909 150.888C122.246 151.017 122.537 151.2 122.782 151.437C123.027 151.674 123.219 151.957 123.356 152.277C123.493 152.601 123.56 152.955 123.56 153.346C123.56 153.728 123.493 154.082 123.356 154.406C123.219 154.731 123.027 155.009 122.778 155.246C122.532 155.484 122.233 155.667 121.892 155.8C121.547 155.933 121.172 155.995 120.769 155.995H118.594V150.688H120.798V150.697ZM120.823 155.155C121.064 155.155 121.289 155.109 121.497 155.022C121.705 154.935 121.884 154.81 122.038 154.652C122.191 154.494 122.312 154.302 122.404 154.082C122.491 153.862 122.537 153.62 122.537 153.358C122.537 153.092 122.491 152.847 122.399 152.626C122.308 152.406 122.183 152.215 122.029 152.048C121.871 151.886 121.688 151.757 121.476 151.674C121.264 151.587 121.031 151.545 120.777 151.545H119.609V155.155H120.823Z" fill="url(#paint27_linear_536_659)"/>
<path d="M125.249 153.82C125.249 154.257 125.37 154.598 125.607 154.843C125.844 155.093 126.164 155.213 126.563 155.213C126.958 155.213 127.27 155.093 127.503 154.847C127.736 154.602 127.852 154.261 127.852 153.82V150.697H128.867V153.82C128.867 154.286 128.776 154.685 128.589 155.022C128.406 155.359 128.139 155.617 127.794 155.8C127.449 155.983 127.037 156.074 126.563 156.074C126.081 156.074 125.669 155.983 125.32 155.8C124.97 155.617 124.704 155.359 124.517 155.022C124.33 154.685 124.238 154.286 124.238 153.82V150.697H125.253V153.82H125.249Z" fill="url(#paint28_linear_536_659)"/>
<path d="M133.782 152.177C133.595 151.965 133.375 151.799 133.117 151.674C132.859 151.549 132.601 151.487 132.343 151.487C132.094 151.487 131.865 151.532 131.649 151.628C131.433 151.724 131.245 151.853 131.079 152.023C130.917 152.194 130.788 152.389 130.696 152.61C130.605 152.834 130.559 153.071 130.559 153.329C130.559 153.587 130.605 153.828 130.696 154.053C130.788 154.277 130.917 154.473 131.079 154.639C131.245 154.805 131.433 154.939 131.649 155.034C131.865 155.13 132.094 155.18 132.343 155.18C132.601 155.18 132.855 155.122 133.109 155.009C133.362 154.897 133.587 154.739 133.782 154.543L134.381 155.171C134.203 155.354 133.999 155.513 133.77 155.65C133.541 155.787 133.3 155.891 133.05 155.966C132.801 156.041 132.547 156.074 132.289 156.074C131.898 156.074 131.537 156.003 131.2 155.866C130.863 155.729 130.572 155.533 130.322 155.288C130.073 155.043 129.877 154.751 129.736 154.415C129.594 154.082 129.524 153.724 129.524 153.346C129.524 152.963 129.594 152.605 129.736 152.281C129.877 151.957 130.077 151.67 130.335 151.42C130.592 151.171 130.888 150.979 131.225 150.842C131.562 150.705 131.928 150.638 132.327 150.638C132.585 150.638 132.834 150.671 133.08 150.742C133.325 150.809 133.558 150.909 133.782 151.029C134.007 151.154 134.202 151.304 134.373 151.478L133.782 152.177Z" fill="url(#paint29_linear_536_659)"/>
<path d="M134.506 150.697H138.836V151.554H137.184V156.004H136.161V151.554H134.51V150.697H134.506Z" fill="url(#paint30_linear_536_659)"/>
<path d="M142.77 152.007C142.582 151.89 142.391 151.794 142.196 151.72C142 151.645 141.817 151.591 141.647 151.557C141.476 151.524 141.318 151.507 141.177 151.507C140.94 151.507 140.748 151.553 140.603 151.645C140.457 151.736 140.387 151.869 140.387 152.048C140.387 152.21 140.436 152.343 140.54 152.443C140.644 152.543 140.782 152.626 140.948 152.693C141.119 152.759 141.301 152.822 141.505 152.884C141.709 152.946 141.909 153.013 142.113 153.084C142.316 153.159 142.499 153.25 142.67 153.367C142.84 153.483 142.973 153.633 143.073 153.816C143.173 153.999 143.223 154.223 143.223 154.498C143.223 154.826 143.136 155.105 142.957 155.338C142.778 155.571 142.537 155.75 142.233 155.874C141.925 155.999 141.58 156.066 141.189 156.066C140.906 156.066 140.628 156.028 140.357 155.958C140.087 155.883 139.833 155.783 139.592 155.658C139.351 155.533 139.135 155.384 138.943 155.217L139.368 154.39C139.551 154.556 139.746 154.702 139.958 154.818C140.17 154.939 140.382 155.026 140.599 155.092C140.815 155.155 141.015 155.188 141.202 155.188C141.489 155.188 141.713 155.134 141.871 155.022C142.029 154.909 142.108 154.756 142.108 154.552C142.108 154.385 142.058 154.252 141.954 154.148C141.85 154.049 141.717 153.961 141.547 153.895C141.376 153.828 141.193 153.766 140.99 153.712C140.786 153.658 140.582 153.595 140.378 153.52C140.174 153.446 139.991 153.354 139.821 153.242C139.65 153.129 139.513 152.984 139.413 152.805C139.309 152.63 139.259 152.402 139.259 152.131C139.259 151.824 139.343 151.557 139.509 151.333C139.675 151.108 139.908 150.934 140.204 150.809C140.499 150.684 140.848 150.622 141.247 150.622C141.601 150.622 141.946 150.671 142.283 150.771C142.62 150.871 142.915 151.008 143.165 151.175L142.77 152.007Z" fill="url(#paint31_linear_536_659)"/>
<path d="M148.215 154.826C149.033 154.826 149.696 154.164 149.696 153.346C149.696 152.528 149.033 151.865 148.215 151.865C147.397 151.865 146.734 152.528 146.734 153.346C146.734 154.164 147.397 154.826 148.215 154.826Z" fill="url(#paint32_linear_536_659)"/>
<path d="M31.6838 154.826C32.5016 154.826 33.1644 154.164 33.1644 153.346C33.1644 152.528 32.5016 151.865 31.6838 151.865C30.8661 151.865 30.2032 152.528 30.2032 153.346C30.2032 154.164 30.8661 154.826 31.6838 154.826Z" fill="url(#paint33_linear_536_659)"/>
<path d="M178.995 181.29V188.577C178.995 197.51 171.755 204.751 162.821 204.751H146.119C134.54 213.66 113.537 219.615 89.5522 219.615C65.5674 219.615 44.5687 213.66 32.99 204.751H16.2834C7.35407 204.751 0.113281 197.51 0.113281 188.577V181.29C0.113281 190.224 7.35407 197.465 16.2834 197.465H32.99C44.5687 206.373 65.5674 212.329 89.5522 212.329C112.244 212.329 132.265 206.997 144.164 198.879H144.022C100.985 163.548 50.1209 192.844 49.1269 193.422C109.44 153.587 151.596 197.252 151.596 197.252V197.465H162.821C171.759 197.465 178.995 190.22 178.995 181.29Z" fill="url(#paint34_linear_536_659)"/>
<defs>
<linearGradient id="paint0_linear_536_659" x1="57.0595" y1="-0.491487" x2="166.963" y2="105.589" gradientUnits="userSpaceOnUse">
<stop stop-color="#CE9F41"/>
<stop offset="0.1229" stop-color="#D3AB43"/>
<stop offset="0.2514" stop-color="#F6ECDF"/>
<stop offset="0.3547" stop-color="#D3AB43"/>
<stop offset="0.5168" stop-color="#CE9F41"/>
<stop offset="0.6844" stop-color="#F6ECDF"/>
<stop offset="0.8464" stop-color="#CE9F41"/>
<stop offset="0.9888" stop-color="#CE9F41"/>
</linearGradient>
<linearGradient id="paint1_linear_536_659" x1="22.9206" y1="34.8767" x2="132.824" y2="140.957" gradientUnits="userSpaceOnUse">
<stop stop-color="#CE9F41"/>
<stop offset="0.1229" stop-color="#D3AB43"/>
<stop offset="0.2514" stop-color="#F6ECDF"/>
<stop offset="0.3547" stop-color="#D3AB43"/>
<stop offset="0.5168" stop-color="#CE9F41"/>
<stop offset="0.6844" stop-color="#F6ECDF"/>
<stop offset="0.8464" stop-color="#CE9F41"/>
<stop offset="0.9888" stop-color="#CE9F41"/>
</linearGradient>
<linearGradient id="paint2_linear_536_659" x1="55.0643" y1="1.57471" x2="164.968" y2="107.655" gradientUnits="userSpaceOnUse">
<stop stop-color="#CE9F41"/>
<stop offset="0.1229" stop-color="#D3AB43"/>
<stop offset="0.2514" stop-color="#F6ECDF"/>
<stop offset="0.3547" stop-color="#D3AB43"/>
<stop offset="0.5168" stop-color="#CE9F41"/>
<stop offset="0.6844" stop-color="#F6ECDF"/>
<stop offset="0.8464" stop-color="#CE9F41"/>
<stop offset="0.9888" stop-color="#CE9F41"/>
</linearGradient>
<linearGradient id="paint3_linear_536_659" x1="67.4294" y1="-11.237" x2="177.333" y2="94.8435" gradientUnits="userSpaceOnUse">
<stop stop-color="#CE9F41"/>
<stop offset="0.1229" stop-color="#D3AB43"/>
<stop offset="0.2514" stop-color="#F6ECDF"/>
<stop offset="0.3547" stop-color="#D3AB43"/>
<stop offset="0.5168" stop-color="#CE9F41"/>
<stop offset="0.6844" stop-color="#F6ECDF"/>
<stop offset="0.8464" stop-color="#CE9F41"/>
<stop offset="0.9888" stop-color="#CE9F41"/>
</linearGradient>
<linearGradient id="paint4_linear_536_659" x1="24.9957" y1="32.7258" x2="134.899" y2="138.807" gradientUnits="userSpaceOnUse">
<stop stop-color="#CE9F41"/>
<stop offset="0.1229" stop-color="#D3AB43"/>
<stop offset="0.2514" stop-color="#F6ECDF"/>
<stop offset="0.3547" stop-color="#D3AB43"/>
<stop offset="0.5168" stop-color="#CE9F41"/>
<stop offset="0.6844" stop-color="#F6ECDF"/>
<stop offset="0.8464" stop-color="#CE9F41"/>
<stop offset="0.9888" stop-color="#CE9F41"/>
</linearGradient>
<linearGradient id="paint5_linear_536_659" x1="17.4664" y1="40.5274" x2="127.37" y2="146.608" gradientUnits="userSpaceOnUse">
<stop stop-color="#CE9F41"/>
<stop offset="0.1229" stop-color="#D3AB43"/>
<stop offset="0.2514" stop-color="#F6ECDF"/>
<stop offset="0.3547" stop-color="#D3AB43"/>
<stop offset="0.5168" stop-color="#CE9F41"/>
<stop offset="0.6844" stop-color="#F6ECDF"/>
<stop offset="0.8464" stop-color="#CE9F41"/>
<stop offset="0.9888" stop-color="#CE9F41"/>
</linearGradient>
<linearGradient id="paint6_linear_536_659" x1="30.6913" y1="26.8256" x2="140.595" y2="132.906" gradientUnits="userSpaceOnUse">
<stop stop-color="#CE9F41"/>
<stop offset="0.1229" stop-color="#D3AB43"/>
<stop offset="0.2514" stop-color="#F6ECDF"/>
<stop offset="0.3547" stop-color="#D3AB43"/>
<stop offset="0.5168" stop-color="#CE9F41"/>
<stop offset="0.6844" stop-color="#F6ECDF"/>
<stop offset="0.8464" stop-color="#CE9F41"/>
<stop offset="0.9888" stop-color="#CE9F41"/>
</linearGradient>
<linearGradient id="paint7_linear_536_659" x1="52.0197" y1="4.72932" x2="161.923" y2="110.81" gradientUnits="userSpaceOnUse">
<stop stop-color="#CE9F41"/>
<stop offset="0.1229" stop-color="#D3AB43"/>
<stop offset="0.2514" stop-color="#F6ECDF"/>
<stop offset="0.3547" stop-color="#D3AB43"/>
<stop offset="0.5168" stop-color="#CE9F41"/>
<stop offset="0.6844" stop-color="#F6ECDF"/>
<stop offset="0.8464" stop-color="#CE9F41"/>
<stop offset="0.9888" stop-color="#CE9F41"/>
</linearGradient>
<linearGradient id="paint8_linear_536_659" x1="20.6358" y1="37.2433" x2="130.539" y2="143.324" gradientUnits="userSpaceOnUse">
<stop stop-color="#CE9F41"/>
<stop offset="0.1229" stop-color="#D3AB43"/>
<stop offset="0.2514" stop-color="#F6ECDF"/>
<stop offset="0.3547" stop-color="#D3AB43"/>
<stop offset="0.5168" stop-color="#CE9F41"/>
<stop offset="0.6844" stop-color="#F6ECDF"/>
<stop offset="0.8464" stop-color="#CE9F41"/>
<stop offset="0.9888" stop-color="#CE9F41"/>
</linearGradient>
<linearGradient id="paint9_linear_536_659" x1="66.941" y1="-10.7299" x2="176.844" y2="95.3506" gradientUnits="userSpaceOnUse">
<stop stop-color="#CE9F41"/>
<stop offset="0.1229" stop-color="#D3AB43"/>
<stop offset="0.2514" stop-color="#F6ECDF"/>
<stop offset="0.3547" stop-color="#D3AB43"/>
<stop offset="0.5168" stop-color="#CE9F41"/>
<stop offset="0.6844" stop-color="#F6ECDF"/>
<stop offset="0.8464" stop-color="#CE9F41"/>
<stop offset="0.9888" stop-color="#CE9F41"/>
</linearGradient>
<linearGradient id="paint10_linear_536_659" x1="12.866" y1="45.2937" x2="122.769" y2="151.374" gradientUnits="userSpaceOnUse">
<stop stop-color="#CE9F41"/>
<stop offset="0.1229" stop-color="#D3AB43"/>
<stop offset="0.2514" stop-color="#F6ECDF"/>
<stop offset="0.3547" stop-color="#D3AB43"/>
<stop offset="0.5168" stop-color="#CE9F41"/>
<stop offset="0.6844" stop-color="#F6ECDF"/>
<stop offset="0.8464" stop-color="#CE9F41"/>
<stop offset="0.9888" stop-color="#CE9F41"/>
</linearGradient>
<linearGradient id="paint11_linear_536_659" x1="15.2474" y1="42.8274" x2="125.151" y2="148.908" gradientUnits="userSpaceOnUse">
<stop stop-color="#CE9F41"/>
<stop offset="0.1229" stop-color="#D3AB43"/>
<stop offset="0.2514" stop-color="#F6ECDF"/>
<stop offset="0.3547" stop-color="#D3AB43"/>
<stop offset="0.5168" stop-color="#CE9F41"/>
<stop offset="0.6844" stop-color="#F6ECDF"/>
<stop offset="0.8464" stop-color="#CE9F41"/>
<stop offset="0.9888" stop-color="#CE9F41"/>
</linearGradient>
<linearGradient id="paint12_linear_536_659" x1="30.0928" y1="153.398" x2="150.509" y2="152.761" gradientUnits="userSpaceOnUse">
<stop stop-color="#CE9F41"/>
<stop offset="0.1229" stop-color="#D3AB43"/>
<stop offset="0.2514" stop-color="#F6ECDF"/>
<stop offset="0.3547" stop-color="#D3AB43"/>
<stop offset="0.5168" stop-color="#CE9F41"/>
<stop offset="0.6844" stop-color="#F6ECDF"/>
<stop offset="0.8464" stop-color="#CE9F41"/>
<stop offset="0.9888" stop-color="#CE9F41"/>
</linearGradient>
<linearGradient id="paint13_linear_536_659" x1="30.0932" y1="153.434" x2="150.509" y2="152.797" gradientUnits="userSpaceOnUse">
<stop stop-color="#CE9F41"/>
<stop offset="0.1229" stop-color="#D3AB43"/>
<stop offset="0.2514" stop-color="#F6ECDF"/>
<stop offset="0.3547" stop-color="#D3AB43"/>
<stop offset="0.5168" stop-color="#CE9F41"/>
<stop offset="0.6844" stop-color="#F6ECDF"/>
<stop offset="0.8464" stop-color="#CE9F41"/>
<stop offset="0.9888" stop-color="#CE9F41"/>
</linearGradient>
<linearGradient id="paint14_linear_536_659" x1="30.0931" y1="153.447" x2="150.509" y2="152.81" gradientUnits="userSpaceOnUse">
<stop stop-color="#CE9F41"/>
<stop offset="0.1229" stop-color="#D3AB43"/>
<stop offset="0.2514" stop-color="#F6ECDF"/>
<stop offset="0.3547" stop-color="#D3AB43"/>
<stop offset="0.5168" stop-color="#CE9F41"/>
<stop offset="0.6844" stop-color="#F6ECDF"/>
<stop offset="0.8464" stop-color="#CE9F41"/>
<stop offset="0.9888" stop-color="#CE9F41"/>
</linearGradient>
<linearGradient id="paint15_linear_536_659" x1="30.0929" y1="153.506" x2="150.509" y2="152.868" gradientUnits="userSpaceOnUse">
<stop stop-color="#CE9F41"/>
<stop offset="0.1229" stop-color="#D3AB43"/>
<stop offset="0.2514" stop-color="#F6ECDF"/>
<stop offset="0.3547" stop-color="#D3AB43"/>
<stop offset="0.5168" stop-color="#CE9F41"/>
<stop offset="0.6844" stop-color="#F6ECDF"/>
<stop offset="0.8464" stop-color="#CE9F41"/>
<stop offset="0.9888" stop-color="#CE9F41"/>
</linearGradient>
<linearGradient id="paint16_linear_536_659" x1="30.0939" y1="153.507" x2="150.509" y2="152.87" gradientUnits="userSpaceOnUse">
<stop stop-color="#CE9F41"/>
<stop offset="0.1229" stop-color="#D3AB43"/>
<stop offset="0.2514" stop-color="#F6ECDF"/>
<stop offset="0.3547" stop-color="#D3AB43"/>
<stop offset="0.5168" stop-color="#CE9F41"/>
<stop offset="0.6844" stop-color="#F6ECDF"/>
<stop offset="0.8464" stop-color="#CE9F41"/>
<stop offset="0.9888" stop-color="#CE9F41"/>
</linearGradient>
<linearGradient id="paint17_linear_536_659" x1="30.0937" y1="153.542" x2="150.51" y2="152.904" gradientUnits="userSpaceOnUse">
<stop stop-color="#CE9F41"/>
<stop offset="0.1229" stop-color="#D3AB43"/>
<stop offset="0.2514" stop-color="#F6ECDF"/>
<stop offset="0.3547" stop-color="#D3AB43"/>
<stop offset="0.5168" stop-color="#CE9F41"/>
<stop offset="0.6844" stop-color="#F6ECDF"/>
<stop offset="0.8464" stop-color="#CE9F41"/>
<stop offset="0.9888" stop-color="#CE9F41"/>
</linearGradient>
<linearGradient id="paint18_linear_536_659" x1="30.0938" y1="153.562" x2="150.51" y2="152.925" gradientUnits="userSpaceOnUse">
<stop stop-color="#CE9F41"/>
<stop offset="0.1229" stop-color="#D3AB43"/>
<stop offset="0.2514" stop-color="#F6ECDF"/>
<stop offset="0.3547" stop-color="#D3AB43"/>
<stop offset="0.5168" stop-color="#CE9F41"/>
<stop offset="0.6844" stop-color="#F6ECDF"/>
<stop offset="0.8464" stop-color="#CE9F41"/>
<stop offset="0.9888" stop-color="#CE9F41"/>
</linearGradient>
<linearGradient id="paint19_linear_536_659" x1="30.0944" y1="153.597" x2="150.51" y2="152.96" gradientUnits="userSpaceOnUse">
<stop stop-color="#CE9F41"/>
<stop offset="0.1229" stop-color="#D3AB43"/>
<stop offset="0.2514" stop-color="#F6ECDF"/>
<stop offset="0.3547" stop-color="#D3AB43"/>
<stop offset="0.5168" stop-color="#CE9F41"/>
<stop offset="0.6844" stop-color="#F6ECDF"/>
<stop offset="0.8464" stop-color="#CE9F41"/>
<stop offset="0.9888" stop-color="#CE9F41"/>
</linearGradient>
<linearGradient id="paint20_linear_536_659" x1="30.094" y1="153.626" x2="150.509" y2="152.989" gradientUnits="userSpaceOnUse">
<stop stop-color="#CE9F41"/>
<stop offset="0.1229" stop-color="#D3AB43"/>
<stop offset="0.2514" stop-color="#F6ECDF"/>
<stop offset="0.3547" stop-color="#D3AB43"/>
<stop offset="0.5168" stop-color="#CE9F41"/>
<stop offset="0.6844" stop-color="#F6ECDF"/>
<stop offset="0.8464" stop-color="#CE9F41"/>
<stop offset="0.9888" stop-color="#CE9F41"/>
</linearGradient>
<linearGradient id="paint21_linear_536_659" x1="30.0935" y1="153.653" x2="150.509" y2="153.016" gradientUnits="userSpaceOnUse">
<stop stop-color="#CE9F41"/>
<stop offset="0.1229" stop-color="#D3AB43"/>
<stop offset="0.2514" stop-color="#F6ECDF"/>
<stop offset="0.3547" stop-color="#D3AB43"/>
<stop offset="0.5168" stop-color="#CE9F41"/>
<stop offset="0.6844" stop-color="#F6ECDF"/>
<stop offset="0.8464" stop-color="#CE9F41"/>
<stop offset="0.9888" stop-color="#CE9F41"/>
</linearGradient>
<linearGradient id="paint22_linear_536_659" x1="30.0938" y1="153.676" x2="150.51" y2="153.039" gradientUnits="userSpaceOnUse">
<stop stop-color="#CE9F41"/>
<stop offset="0.1229" stop-color="#D3AB43"/>
<stop offset="0.2514" stop-color="#F6ECDF"/>
<stop offset="0.3547" stop-color="#D3AB43"/>
<stop offset="0.5168" stop-color="#CE9F41"/>
<stop offset="0.6844" stop-color="#F6ECDF"/>
<stop offset="0.8464" stop-color="#CE9F41"/>
<stop offset="0.9888" stop-color="#CE9F41"/>
</linearGradient>
<linearGradient id="paint23_linear_536_659" x1="30.094" y1="153.699" x2="150.51" y2="153.062" gradientUnits="userSpaceOnUse">
<stop stop-color="#CE9F41"/>
<stop offset="0.1229" stop-color="#D3AB43"/>
<stop offset="0.2514" stop-color="#F6ECDF"/>
<stop offset="0.3547" stop-color="#D3AB43"/>
<stop offset="0.5168" stop-color="#CE9F41"/>
<stop offset="0.6844" stop-color="#F6ECDF"/>
<stop offset="0.8464" stop-color="#CE9F41"/>
<stop offset="0.9888" stop-color="#CE9F41"/>
</linearGradient>
<linearGradient id="paint24_linear_536_659" x1="30.0945" y1="153.735" x2="150.511" y2="153.098" gradientUnits="userSpaceOnUse">
<stop stop-color="#CE9F41"/>
<stop offset="0.1229" stop-color="#D3AB43"/>
<stop offset="0.2514" stop-color="#F6ECDF"/>
<stop offset="0.3547" stop-color="#D3AB43"/>
<stop offset="0.5168" stop-color="#CE9F41"/>
<stop offset="0.6844" stop-color="#F6ECDF"/>
<stop offset="0.8464" stop-color="#CE9F41"/>
<stop offset="0.9888" stop-color="#CE9F41"/>
</linearGradient>
<linearGradient id="paint25_linear_536_659" x1="30.0941" y1="153.771" x2="150.51" y2="153.133" gradientUnits="userSpaceOnUse">
<stop stop-color="#CE9F41"/>
<stop offset="0.1229" stop-color="#D3AB43"/>
<stop offset="0.2514" stop-color="#F6ECDF"/>
<stop offset="0.3547" stop-color="#D3AB43"/>
<stop offset="0.5168" stop-color="#CE9F41"/>
<stop offset="0.6844" stop-color="#F6ECDF"/>
<stop offset="0.8464" stop-color="#CE9F41"/>
<stop offset="0.9888" stop-color="#CE9F41"/>
</linearGradient>
<linearGradient id="paint26_linear_536_659" x1="30.095" y1="153.803" x2="150.511" y2="153.166" gradientUnits="userSpaceOnUse">
<stop stop-color="#CE9F41"/>
<stop offset="0.1229" stop-color="#D3AB43"/>
<stop offset="0.2514" stop-color="#F6ECDF"/>
<stop offset="0.3547" stop-color="#D3AB43"/>
<stop offset="0.5168" stop-color="#CE9F41"/>
<stop offset="0.6844" stop-color="#F6ECDF"/>
<stop offset="0.8464" stop-color="#CE9F41"/>
<stop offset="0.9888" stop-color="#CE9F41"/>
</linearGradient>
<linearGradient id="paint27_linear_536_659" x1="30.0951" y1="153.824" x2="150.511" y2="153.187" gradientUnits="userSpaceOnUse">
<stop stop-color="#CE9F41"/>
<stop offset="0.1229" stop-color="#D3AB43"/>
<stop offset="0.2514" stop-color="#F6ECDF"/>
<stop offset="0.3547" stop-color="#D3AB43"/>
<stop offset="0.5168" stop-color="#CE9F41"/>
<stop offset="0.6844" stop-color="#F6ECDF"/>
<stop offset="0.8464" stop-color="#CE9F41"/>
<stop offset="0.9888" stop-color="#CE9F41"/>
</linearGradient>
<linearGradient id="paint28_linear_536_659" x1="30.096" y1="153.889" x2="150.512" y2="153.252" gradientUnits="userSpaceOnUse">
<stop stop-color="#CE9F41"/>
<stop offset="0.1229" stop-color="#D3AB43"/>
<stop offset="0.2514" stop-color="#F6ECDF"/>
<stop offset="0.3547" stop-color="#D3AB43"/>
<stop offset="0.5168" stop-color="#CE9F41"/>
<stop offset="0.6844" stop-color="#F6ECDF"/>
<stop offset="0.8464" stop-color="#CE9F41"/>
<stop offset="0.9888" stop-color="#CE9F41"/>
</linearGradient>
<linearGradient id="paint29_linear_536_659" x1="30.0949" y1="153.895" x2="150.511" y2="153.258" gradientUnits="userSpaceOnUse">
<stop stop-color="#CE9F41"/>
<stop offset="0.1229" stop-color="#D3AB43"/>
<stop offset="0.2514" stop-color="#F6ECDF"/>
<stop offset="0.3547" stop-color="#D3AB43"/>
<stop offset="0.5168" stop-color="#CE9F41"/>
<stop offset="0.6844" stop-color="#F6ECDF"/>
<stop offset="0.8464" stop-color="#CE9F41"/>
<stop offset="0.9888" stop-color="#CE9F41"/>
</linearGradient>
<linearGradient id="paint30_linear_536_659" x1="30.0957" y1="153.91" x2="150.511" y2="153.273" gradientUnits="userSpaceOnUse">
<stop stop-color="#CE9F41"/>
<stop offset="0.1229" stop-color="#D3AB43"/>
<stop offset="0.2514" stop-color="#F6ECDF"/>
<stop offset="0.3547" stop-color="#D3AB43"/>
<stop offset="0.5168" stop-color="#CE9F41"/>
<stop offset="0.6844" stop-color="#F6ECDF"/>
<stop offset="0.8464" stop-color="#CE9F41"/>
<stop offset="0.9888" stop-color="#CE9F41"/>
</linearGradient>
<linearGradient id="paint31_linear_536_659" x1="30.0954" y1="153.931" x2="150.511" y2="153.294" gradientUnits="userSpaceOnUse">
<stop stop-color="#CE9F41"/>
<stop offset="0.1229" stop-color="#D3AB43"/>
<stop offset="0.2514" stop-color="#F6ECDF"/>
<stop offset="0.3547" stop-color="#D3AB43"/>
<stop offset="0.5168" stop-color="#CE9F41"/>
<stop offset="0.6844" stop-color="#F6ECDF"/>
<stop offset="0.8464" stop-color="#CE9F41"/>
<stop offset="0.9888" stop-color="#CE9F41"/>
</linearGradient>
<linearGradient id="paint32_linear_536_659" x1="31.7573" y1="153.963" x2="152.173" y2="153.326" gradientUnits="userSpaceOnUse">
<stop stop-color="#CE9F41"/>
<stop offset="0.1229" stop-color="#D3AB43"/>
<stop offset="0.2514" stop-color="#F6ECDF"/>
<stop offset="0.3547" stop-color="#D3AB43"/>
<stop offset="0.5168" stop-color="#CE9F41"/>
<stop offset="0.6844" stop-color="#F6ECDF"/>
<stop offset="0.8464" stop-color="#CE9F41"/>
<stop offset="0.9888" stop-color="#CE9F41"/>
</linearGradient>
<linearGradient id="paint33_linear_536_659" x1="28.4324" y1="153.364" x2="148.848" y2="152.727" gradientUnits="userSpaceOnUse">
<stop stop-color="#CE9F41"/>
<stop offset="0.1229" stop-color="#D3AB43"/>
<stop offset="0.2514" stop-color="#F6ECDF"/>
<stop offset="0.3547" stop-color="#D3AB43"/>
<stop offset="0.5168" stop-color="#CE9F41"/>
<stop offset="0.6844" stop-color="#F6ECDF"/>
<stop offset="0.8464" stop-color="#CE9F41"/>
<stop offset="0.9888" stop-color="#CE9F41"/>
</linearGradient>
<linearGradient id="paint34_linear_536_659" x1="6.12376" y1="198.135" x2="220.621" y2="198.135" gradientUnits="userSpaceOnUse">
<stop stop-color="#CE9F41"/>
<stop offset="0.1229" stop-color="#D3AB43"/>
<stop offset="0.2407" stop-color="#F6ECDF"/>
<stop offset="0.3209" stop-color="#D3AB43"/>
<stop offset="0.3863" stop-color="#AE782B"/>
<stop offset="0.5168" stop-color="#CE9F41"/>
<stop offset="0.6844" stop-color="#F6ECDF"/>
<stop offset="0.8464" stop-color="#CE9F41"/>
<stop offset="0.9888" stop-color="#CE9F41"/>
</linearGradient>
</defs>
</svg>
