<svg width="179" height="182" viewBox="0 0 179 182" fill="none" xmlns="http://www.w3.org/2000/svg">
<path d="M167.827 0H11.1734C5.0025 0 0 4.97753 0 11.1176V170.882C0 177.022 5.0025 182 11.1734 182H167.827C173.997 182 179 177.022 179 170.882V11.1176C179 4.97753 173.997 0 167.827 0Z" fill="black"/>
<path d="M94.35 73.0762C94.35 73.0762 97.6359 63.5765 107.562 67.5652C117.487 71.5538 134.882 97.9575 115.522 123.148C97.1052 147.113 59.5087 132.895 58.1762 101.39C57.2333 87.3174 66.6678 61.9979 93.8418 63.1383L95.5808 58.7396C94.7565 58.1104 93.8305 57.6385 92.8369 57.3408C86.0504 55.2959 57.1543 44.9029 48.6797 14.2578C48.6797 14.2578 79.1623 23.0047 93.1304 54.1049C93.5934 55.133 94.2088 56.0936 94.9823 56.9194L95.8744 57.8688C95.8744 57.8688 98.2513 52.2005 99.5104 51.5994C100.769 50.9983 101.972 50.914 103.66 51.942C103.66 51.942 96.7326 59.3238 92.6054 72.9414C92.6054 72.9414 72.4436 72.829 73.5333 103.699C74.4479 117.794 83.0016 124.445 89.4944 125.221C96.3317 126.457 107.821 117.603 109.159 101.721C110.074 84.0534 102.667 75.0874 94.3443 73.0762H94.35Z" fill="#4C5626"/>
<path d="M27.6766 125.164L27.5355 127.136H22.3299V126.805C22.4033 126.799 22.5162 126.788 22.6573 126.771C22.7985 126.754 22.9001 126.737 22.9566 126.709C23.0525 126.67 23.1203 126.608 23.1598 126.53C23.1993 126.451 23.2219 126.35 23.2219 126.232V121.49C23.2219 121.384 23.205 121.294 23.1655 121.21C23.1259 121.125 23.0582 121.063 22.9509 121.013C22.8775 120.974 22.7759 120.94 22.646 120.901C22.5162 120.861 22.4089 120.844 22.3242 120.839V120.507H25.1359V120.839C25.0456 120.839 24.9327 120.856 24.7972 120.884C24.656 120.912 24.5544 120.934 24.4923 120.957C24.385 120.996 24.3116 121.058 24.2721 121.148C24.2326 121.238 24.2156 121.333 24.2156 121.44V125.889C24.2156 126.091 24.2269 126.254 24.2438 126.367C24.2664 126.479 24.3116 126.569 24.385 126.631C24.4584 126.687 24.5657 126.721 24.7068 126.743C24.848 126.766 25.0512 126.771 25.3053 126.771C25.4182 126.771 25.5424 126.771 25.6666 126.76C25.7908 126.754 25.9094 126.743 26.0223 126.721C26.1296 126.704 26.2312 126.676 26.3272 126.642C26.4176 126.608 26.4853 126.569 26.5305 126.518C26.6603 126.372 26.8071 126.159 26.9765 125.867C27.1459 125.575 27.2644 125.339 27.3322 125.159H27.6653L27.6766 125.164Z" fill="white"/>
<path d="M35.2873 127.137H32.2893V126.805C32.374 126.8 32.4982 126.788 32.6563 126.777C32.8144 126.766 32.9273 126.743 32.9951 126.721C33.0967 126.682 33.1757 126.625 33.2209 126.558C33.2661 126.491 33.2886 126.389 33.2886 126.266V121.468C33.2886 121.361 33.2717 121.266 33.2378 121.193C33.204 121.12 33.1249 121.058 32.9951 121.008C32.8991 120.968 32.7862 120.935 32.6394 120.901C32.4982 120.867 32.3796 120.85 32.2893 120.845V120.513H35.2873V120.845C35.1913 120.845 35.0728 120.861 34.9429 120.878C34.8131 120.895 34.6888 120.923 34.5929 120.957C34.4743 120.996 34.3953 121.058 34.3557 121.137C34.3162 121.221 34.2936 121.317 34.2936 121.418V126.21C34.2936 126.311 34.3162 126.401 34.3614 126.485C34.4065 126.564 34.4856 126.625 34.5929 126.676C34.6606 126.704 34.7679 126.726 34.9147 126.76C35.0615 126.794 35.1913 126.805 35.293 126.811V127.142L35.2873 127.137Z" fill="white"/>
<path d="M46.6753 120.844C46.5963 120.844 46.4947 120.867 46.3818 120.901C46.2688 120.934 46.1729 120.974 46.0938 121.019C45.9865 121.086 45.9018 121.17 45.8397 121.271C45.7776 121.372 45.7099 121.496 45.6478 121.637C45.4389 122.131 45.1227 122.901 44.7049 123.951C44.2871 125.002 43.8524 126.091 43.412 127.226H43.0224C42.5707 126.024 42.136 124.861 41.7182 123.743C41.3004 122.625 41.0124 121.872 40.8656 121.479C40.8261 121.384 40.7753 121.299 40.7132 121.226C40.6511 121.153 40.5664 121.086 40.4648 121.019C40.3801 120.968 40.2841 120.929 40.1825 120.901C40.0808 120.872 39.9849 120.856 39.8945 120.85V120.519H42.6498V120.85C42.4126 120.861 42.215 120.884 42.0569 120.917C41.8932 120.951 41.8142 121.013 41.8142 121.097C41.8142 121.131 41.8198 121.17 41.8311 121.221C41.8424 121.266 41.8537 121.305 41.865 121.333C41.9779 121.636 42.1699 122.136 42.4296 122.827C42.6893 123.518 43.0563 124.502 43.5362 125.771C43.7733 125.193 44.05 124.513 44.3548 123.732C44.6654 122.945 44.8743 122.406 44.9816 122.114C45.0832 121.833 45.1453 121.637 45.1622 121.524C45.1792 121.412 45.1905 121.328 45.1905 121.26C45.1905 121.193 45.1566 121.131 45.0945 121.08C45.0324 121.03 44.9477 120.99 44.8404 120.957C44.7388 120.923 44.6315 120.901 44.5242 120.889C44.417 120.872 44.3097 120.861 44.2024 120.85V120.519H46.681V120.85L46.6753 120.844Z" fill="white"/>
<path d="M56.9397 125.187L56.8155 127.136H51.2881V126.805C51.3841 126.799 51.5083 126.788 51.6664 126.766C51.8245 126.743 51.9261 126.726 51.9713 126.704C52.0729 126.659 52.1406 126.597 52.1802 126.524C52.2197 126.451 52.2366 126.355 52.2366 126.237V121.474C52.2366 121.372 52.2197 121.283 52.1858 121.198C52.1519 121.12 52.0785 121.052 51.9713 121.002C51.8866 120.962 51.7736 120.923 51.6325 120.895C51.4913 120.867 51.3784 120.844 51.2937 120.839V120.507H56.4485V122.103H56.0985C56.0364 121.867 55.9008 121.614 55.6919 121.35C55.483 121.086 55.2854 120.94 55.0991 120.912C55.0031 120.901 54.8846 120.889 54.7491 120.884C54.6136 120.878 54.4611 120.872 54.2917 120.872H53.2472V123.507H53.9982C54.2409 123.507 54.416 123.485 54.5289 123.44C54.6418 123.395 54.7378 123.322 54.8225 123.215C54.8902 123.125 54.9523 123.007 54.9975 122.856C55.0483 122.704 55.0765 122.563 55.0935 122.429H55.4435V125.024H55.0935C55.0822 124.872 55.0483 124.715 54.9918 124.552C54.9354 124.389 54.8789 124.266 54.8225 124.193C54.7265 124.069 54.6136 123.99 54.4894 123.957C54.3651 123.923 54.2014 123.9 53.9982 123.9H53.2472V125.884C53.2472 126.08 53.2585 126.237 53.2924 126.355C53.3206 126.468 53.3771 126.558 53.4561 126.619C53.5352 126.676 53.6481 126.715 53.7893 126.732C53.9304 126.749 54.128 126.76 54.3877 126.76H54.7942C54.9636 126.76 55.1048 126.754 55.2233 126.743C55.3419 126.732 55.4661 126.709 55.5903 126.676C55.7145 126.642 55.8049 126.597 55.8613 126.541C56.0081 126.389 56.1549 126.164 56.313 125.861C56.4711 125.558 56.5727 125.333 56.6179 125.193H56.9566L56.9397 125.187Z" fill="white"/>
<path d="M39.968 70.9136C26.8241 70.9136 16.1702 81.52 16.1702 94.5926C16.1702 107.665 26.8185 118.277 39.968 118.277C53.1174 118.277 63.7657 107.671 63.7657 94.5926C63.7657 81.5144 53.1061 70.9136 39.968 70.9136ZM47.3642 115.727C37.9241 118.996 26.9709 112.182 22.8832 100.514C18.8012 88.8456 23.1373 76.7392 32.5717 73.4697C42.0005 70.2001 52.965 77.0145 57.0527 88.6827C61.1347 100.351 56.793 112.457 47.3642 115.727Z" fill="white"/>
<path d="M149.969 93.2163C143.035 93.2163 137.406 98.806 137.406 105.716C137.406 112.626 143.03 118.216 149.969 118.216C156.907 118.216 162.531 112.62 162.531 105.716C162.531 98.8116 156.907 93.2163 149.969 93.2163ZM154.355 116.474C150.149 118.182 144.746 114.699 142.296 108.699C139.845 102.71 141.279 96.469 145.491 94.7612C149.698 93.0646 155.101 96.5364 157.551 102.536C159.99 108.536 158.567 114.766 154.355 116.474Z" fill="white"/>
<path d="M83.6678 115.137C81.6635 115.261 77.8242 117.615 77.8242 117.615C77.8242 117.615 72.3589 122.036 69.1746 119.098C66.1935 116.351 69.4908 113.469 70.795 112.851H70.8006C72.7372 114.469 75.2271 115.429 77.9428 115.429C84.1082 115.429 89.1049 110.457 89.1049 104.323C89.1049 101.396 87.9644 98.7275 86.1012 96.7444C87.8007 96.2051 89.3477 96.5197 90.0082 96.6882C90.81 96.8961 90.9963 96.4523 90.9963 96.4523L92.6054 93.3344C88.4838 92.1097 85.0849 95.7838 85.0849 95.7838C83.1484 94.1883 80.6698 93.2221 77.9541 93.2221C71.7887 93.2221 66.792 98.1938 66.792 104.328C66.792 107.435 68.0736 110.255 70.1457 112.266C70.1457 112.266 65.053 115.12 67.4921 120.541C67.4921 120.541 70.5183 126.732 78.0952 122.328C83.3629 119.165 85.9206 116.867 90.0647 121.114C92.0182 123.171 91.9279 128.142 88.2636 129.962C88.2636 129.962 81.6861 133.485 79.7777 125.126H75.5602C75.5602 125.126 75.9836 130.693 83.7412 131.614C90.9455 131.833 92.7183 126.67 92.532 123.064C92.532 123.064 92.2158 114.401 83.6847 115.143L83.6678 115.137ZM72.1387 95.5647C75.261 93.4861 80.3931 95.6714 83.6057 100.447C86.8296 105.233 86.8973 110.795 83.7864 112.868C80.6641 114.946 75.5207 112.761 72.3081 107.974C69.0956 103.199 69.0165 97.6376 72.1387 95.5647Z" fill="white"/>
<path d="M113.196 115.188V100.306C113.196 99.6768 113.089 99.0532 112.852 98.4689C112.287 97.0757 111.44 95.7724 110.204 94.8735C109.775 94.5814 109.334 94.3286 108.894 94.1208C103.259 91.3905 97.2576 94.8904 95.8122 96.1994C94.2426 97.6263 95.9364 97.7442 96.0889 97.7611C96.2526 97.778 99.1829 97.9858 100.566 98.3791C105.015 99.5138 106.263 101.941 106.579 102.817C105.072 101.621 103.152 100.913 101.08 100.913C96.2187 100.913 92.2778 104.789 92.2778 109.564C92.2778 114.339 96.2187 118.204 101.08 118.204C104.479 118.204 107.437 116.305 108.888 113.525V117.463H112.79H115.884C116.07 117.463 116.217 117.317 116.217 117.126V116.98H114.896C114.896 116.98 114.879 116.98 114.873 116.98C113.925 116.968 113.191 116.12 113.191 115.176L113.196 115.188ZM106.302 114.491C103.485 116.367 99.3748 115.171 97.1221 111.822C94.8693 108.463 95.3267 104.233 98.144 102.356C100.736 100.626 104.451 101.519 106.765 104.3C106.935 104.497 107.087 104.705 107.24 104.918C107.257 104.952 107.285 104.991 107.313 105.025C109.566 108.373 109.114 112.615 106.297 114.491H106.302ZM108.16 104.446C107.827 103.401 106.777 100.654 104.58 99.1768C103.434 98.2218 101.142 97.3735 101.142 97.3735C101.142 97.3735 98.9344 97.0252 100.38 95.7331C101.825 94.441 103.474 93.441 105.495 94.1376C107.2 94.7331 108.651 96.6432 108.894 99.3285V105.604C108.679 105.205 108.437 104.811 108.16 104.452V104.446Z" fill="white"/>
<path d="M123.726 95.6825V93.9016H116.765C116.578 93.9016 116.431 94.0477 116.431 94.2387V94.3847H117.753C118.678 94.3847 119.424 95.1375 119.424 96.0532V115.21C119.424 116.137 118.712 116.98 117.775 116.991C117.769 116.991 117.758 116.991 117.753 116.991H116.431V117.137C116.431 117.322 116.578 117.474 116.765 117.474H119.858H123.286H126.38C126.566 117.474 126.713 117.328 126.713 117.137V116.991H125.392C125.392 116.991 125.375 116.991 125.369 116.991C124.437 116.98 123.72 116.137 123.72 115.21V97.3172C124.189 96.351 124.951 95.5645 126.154 95.1432C131.726 93.1713 133.674 99.7217 133.674 99.7217L136.842 96.8734C131.303 89.9411 125.29 94.3286 123.72 95.6825H123.726Z" fill="white"/>
<path d="M153.621 85.5253H153.819C154.05 85.5253 154.214 85.5421 154.31 85.587C154.417 85.632 154.519 85.7106 154.604 85.8286C154.694 85.9466 154.863 86.2387 155.123 86.705L155.835 87.9802H157.009L156.416 86.8398C156.173 86.3735 155.987 86.0533 155.852 85.8736C155.716 85.6938 155.535 85.5365 155.332 85.3848C155.744 85.3118 156.06 85.132 156.281 84.8511C156.495 84.5758 156.614 84.1995 156.614 83.7444C156.614 83.3793 156.54 83.0647 156.388 82.8006C156.247 82.5422 156.055 82.3568 155.829 82.2444C155.603 82.1489 155.23 82.0928 154.7 82.0928H152.633V87.9858H153.61V85.5309L153.621 85.5253ZM153.621 83.0815H154.384C154.824 83.0815 155.095 83.0984 155.18 83.1264C155.315 83.1714 155.411 83.25 155.485 83.368C155.564 83.486 155.603 83.6264 155.603 83.8118C155.603 83.9972 155.569 84.1714 155.485 84.2837C155.411 84.4017 155.315 84.4803 155.197 84.5253C155.072 84.559 154.784 84.5815 154.344 84.5815H153.616V83.0815H153.621Z" fill="white"/>
<path d="M154.705 89.812C157.427 89.812 159.623 87.6716 159.623 85.0369C159.623 82.4021 157.427 80.2617 154.705 80.2617C151.984 80.2617 149.788 82.4021 149.788 85.0369C149.788 87.6716 151.995 89.812 154.705 89.812ZM154.705 80.9302C157.049 80.9302 158.951 82.7673 158.951 85.0369C158.951 87.3064 157.049 89.1435 154.705 89.1435C152.362 89.1435 150.46 87.3064 150.46 85.0369C150.46 82.7673 152.362 80.9302 154.705 80.9302Z" fill="white"/>
</svg>
