<svg width="295" height="324" viewBox="0 0 295 324" fill="none" xmlns="http://www.w3.org/2000/svg">
<path d="M155.26 0.00667656C188.922 0.00667509 218.464 17.6258 235.137 44.1382C246.731 62.575 260.251 79.7049 274.965 95.7758C287.405 109.367 295 127.469 295 147.333C295 160.804 291.511 173.463 285.385 184.454C275.529 202.147 269.322 221.596 266.618 241.661C261.935 276.377 242.86 324 175.335 324C151.469 324 129.549 316.159 112.546 302.145C98.1544 290.283 82.2259 280.458 65.5593 272.088C26.6773 252.552 -4.88107e-06 212.334 -6.91148e-06 165.884C-8.56282e-06 128.105 17.6462 94.4556 45.1554 72.6947C58.0848 62.4745 69.9071 50.8937 79.797 37.7179C96.9936 14.8177 124.396 -5.4375e-06 155.26 -6.78661e-06L155.26 0.00667656Z" fill="white"/>
</svg>
