<svg width="32" height="43" viewBox="0 0 32 43" fill="none" xmlns="http://www.w3.org/2000/svg">
<path opacity="0.2" d="M11.8418 33.6956C11.9093 32.8138 11.9516 31.9654 11.9685 31.1505L11.9685 31.1503C11.9853 30.3238 11.9937 29.4378 11.9937 28.4923C11.9937 21.8591 11.6078 15.6426 10.835 9.8435C10.4963 7.01106 9.84732 4.81953 8.84655 3.32353C7.82689 1.7993 6.43997 1 4.71548 1C3.45408 1 2.42831 1.22784 1.81114 1.83081C1.49292 2.12125 1.23491 2.41051 1.05352 2.69945L1.05344 2.6994L1.04842 2.70774C0.866043 3.01122 0.760809 3.39314 0.705761 3.82041C0.637832 4.25622 0.593953 4.63973 0.576091 4.96826C0.558649 5.27229 0.550209 5.64217 0.550209 6.07584C0.550209 7.63368 0.54185 9.03671 0.525149 10.2851C0.508377 11.5388 0.5 12.9464 0.5 14.5077C0.5 18.1613 0.541869 21.2095 0.625807 23.6509L0.625948 23.6543C0.726736 26.0968 0.894699 28.5734 1.12979 31.0839L1.12992 31.0852C1.38294 33.7107 1.78763 35.8706 2.35237 37.5525C2.91255 39.2208 3.64738 40.4708 4.59897 41.2182C4.70371 41.3071 4.83938 41.3861 4.97715 41.4566C5.12811 41.5339 5.31369 41.617 5.53015 41.7056L5.53013 41.7057L5.53644 41.7081C5.76047 41.7964 5.95454 41.8661 6.11522 41.9145C6.2615 41.9585 6.42699 42 6.57322 42C7.28894 42 7.95738 41.8352 8.56948 41.5022L8.5695 41.5022L8.57536 41.4989C9.14643 41.1783 9.6257 40.7765 10.0049 40.2911L10.005 40.2912L10.0106 40.2836C10.3854 39.7848 10.6994 39.1518 10.9616 38.3999L10.9618 38.3999L10.965 38.39C11.2047 37.6536 11.394 36.9406 11.5321 36.2512L11.5326 36.2488C11.6716 35.5371 11.7739 34.6848 11.8418 33.6956ZM11.8418 33.6956C11.8418 33.6949 11.8419 33.6942 11.8419 33.6936L11.3431 33.6594L11.8416 33.6976C11.8417 33.6969 11.8417 33.6963 11.8418 33.6956ZM3.02744 3.57966L3.02737 3.5796C2.81151 3.8588 2.65481 4.38161 2.65481 5.25321C2.65481 5.5351 2.66291 5.79839 2.67886 6.04335L2.67992 6.05958V6.07584V6.97558C2.67992 7.80538 2.72142 9.43358 2.80514 11.8683L3.02744 3.57966ZM3.02744 3.57966L3.0333 3.57177M3.02744 3.57966L3.0333 3.57177M3.0333 3.57177C3.21484 3.32717 3.58972 3.13111 4.33891 3.13111C5.0254 3.13111 5.63442 3.34739 6.18303 3.79071C6.68103 4.19584 7.09697 4.75349 7.42199 5.48252C7.76037 6.24152 8.07873 7.15852 8.37514 8.23746C8.69694 9.4409 8.92003 11.0811 9.03627 13.1719C9.05237 13.4856 9.06067 13.8873 9.06067 14.3792C9.06067 15.4578 9.162 17.8801 9.36263 21.6294C9.56364 25.403 9.66318 27.8398 9.66318 28.955C9.66318 29.9362 9.62185 31.2283 9.53846 32.834C9.44022 34.424 9.16209 36.0423 8.70249 37.6895L8.70212 37.6909C8.49604 38.4376 8.22981 38.97 7.92623 39.3232L8.30544 39.6491L7.92623 39.3232C7.63577 39.6612 7.34019 39.7918 7.0251 39.7918C6.59739 39.7918 6.15285 39.5703 5.69334 38.9641C5.22491 38.3288 4.82869 37.4428 4.52097 36.2819L4.52067 36.2808M3.0333 3.57177L4.52067 36.2808M4.52067 36.2808C3.85969 33.8103 3.42097 31.2015 3.2056 28.4534C3.00535 25.8732 2.90586 23.7105 2.90586 21.9627V16.8213C2.90586 15.4598 2.87221 13.8085 2.80514 11.8684L4.52067 36.2808ZM20.56 41.0826L20.5788 41.1073L20.6004 41.1295C20.8658 41.4012 21.2316 41.4859 21.5858 41.4859C22.5326 41.4859 23.921 41.4513 25.7468 41.3827C27.5695 41.3142 28.9427 41.2802 29.8703 41.2802C30.286 41.2802 30.6848 41.2145 30.993 41.0112C31.3375 40.7838 31.5 40.431 31.5 40.0347C31.5 39.8167 31.4403 39.605 31.3094 39.4199C31.1817 39.2393 31.0065 39.1122 30.8178 39.0233C30.4535 38.8516 29.969 38.7892 29.4184 38.7892C29.1581 38.7892 28.7523 38.8171 28.2158 38.8686L28.2143 38.8688C27.8981 38.9001 27.6388 38.9211 27.4336 38.9326C27.4502 38.7993 27.4582 38.6609 27.4582 38.518C27.4582 37.9398 27.4242 36.9011 27.3572 35.411C27.3572 35.4109 27.3572 35.4108 27.3572 35.4107L27.2322 32.5431V31.8856C27.2322 29.4568 27.123 26.0453 26.9052 21.6552L26.9052 21.6543L26.83 20.1905C26.83 20.1904 26.83 20.1903 26.8299 20.1902C26.6452 16.3726 26.5544 14.3974 26.5544 14.2249C26.5544 13.3411 26.5122 11.6705 26.4286 9.22073C26.3449 6.76888 26.3033 5.12339 26.3033 4.27635V2.65681C26.3033 2.29739 26.1644 1.98092 25.919 1.72546C25.6716 1.4494 25.3441 1.30848 24.9749 1.30848C22.9098 1.30848 21.5345 1.34207 20.8813 1.41399C20.5025 1.4512 20.1519 1.53198 19.882 1.69645C19.5828 1.87886 19.3787 2.17185 19.3787 2.55398C19.3787 2.89581 19.5248 3.2036 19.8277 3.39859C20.0929 3.56926 20.4268 3.61954 20.7573 3.61954H20.7786L20.7998 3.61773L21.4023 3.56632L21.4042 3.56615L21.9593 3.51672C22.7181 3.5174 23.1951 3.55294 23.433 3.60707C23.626 3.65099 23.6713 3.71917 23.6906 3.76201L24.1323 3.56293L23.6906 3.76201C23.7423 3.87664 23.7968 4.17973 23.7971 4.76109L23.7469 8.12494L23.7466 8.14445L23.7479 8.16392C24.5174 20.3433 24.9017 30.4433 24.9017 38.4666C24.9017 38.614 24.894 38.7279 24.8817 38.8127C24.8757 38.8547 24.8689 38.8861 24.8628 38.9087C24.8615 38.9134 24.8603 38.9176 24.8591 38.9213C24.8576 38.9263 24.8562 38.9303 24.855 38.9336C24.853 38.9392 24.8518 38.9416 24.852 38.9413C24.8507 38.9439 24.85 38.9446 24.8504 38.9441C24.8507 38.9437 24.8508 38.9438 24.8497 38.9446C24.8484 38.9457 24.841 38.9514 24.8228 38.9586C24.7018 38.9793 24.4778 38.9947 24.1256 38.9949L22.6488 38.9692V38.9691H22.6402H21.1841C20.8633 38.9691 20.6418 39.1632 20.5087 39.3478C20.3794 39.5113 20.2824 39.7171 20.2824 39.9576C20.2824 40.3671 20.3365 40.7884 20.56 41.0826Z" fill="#212121" stroke="#212121"/>
</svg>
