<svg width="304" height="278" viewBox="0 0 304 278" fill="none" xmlns="http://www.w3.org/2000/svg">
<g filter="url(#filter0_d_725_14239)">
<circle cx="152" cy="152.5" r="105" fill="white"/>
</g>
<path d="M193.132 105.5H110.868C107.627 105.5 105 108.098 105 111.303V194.697C105 197.902 107.627 200.5 110.868 200.5H193.132C196.373 200.5 199 197.902 199 194.697V111.303C199 108.098 196.373 105.5 193.132 105.5Z" fill="black"/>
<path d="M154.547 143.644C154.547 143.644 156.272 138.686 161.485 140.768C166.697 142.85 175.832 156.632 165.665 169.781C155.994 182.29 136.25 174.868 135.551 158.423C135.055 151.078 140.01 137.862 154.28 138.457L155.193 136.161C154.76 135.832 154.274 135.586 153.752 135.431C150.188 134.363 135.014 128.938 130.564 112.942C130.564 112.942 146.571 117.508 153.906 133.742C154.15 134.278 154.473 134.78 154.879 135.211L155.347 135.706C155.347 135.706 156.596 132.748 157.257 132.434C157.918 132.12 158.55 132.076 159.436 132.613C159.436 132.613 155.798 136.466 153.631 143.574C153.631 143.574 143.043 143.515 143.615 159.629C144.096 166.986 148.587 170.458 151.997 170.863C155.588 171.508 161.621 166.886 162.324 158.596C162.804 149.374 158.914 144.694 154.544 143.644H154.547Z" fill="#4C5626"/>
<path d="M119.533 170.833L119.459 171.862H116.726V171.689C116.764 171.686 116.823 171.68 116.898 171.671C116.972 171.663 117.025 171.654 117.055 171.639C117.105 171.619 117.141 171.586 117.161 171.545C117.182 171.504 117.194 171.452 117.194 171.39V168.915C117.194 168.859 117.185 168.812 117.164 168.768C117.144 168.724 117.108 168.692 117.052 168.666C117.013 168.645 116.96 168.628 116.892 168.607C116.823 168.587 116.767 168.578 116.723 168.575V168.402H118.199V168.575C118.152 168.575 118.092 168.584 118.021 168.598C117.947 168.613 117.894 168.625 117.861 168.636C117.805 168.657 117.766 168.689 117.746 168.736C117.725 168.783 117.716 168.833 117.716 168.889V171.211C117.716 171.317 117.722 171.402 117.731 171.46C117.743 171.519 117.766 171.566 117.805 171.598C117.843 171.627 117.9 171.645 117.974 171.657C118.048 171.669 118.155 171.671 118.288 171.671C118.347 171.671 118.413 171.671 118.478 171.666C118.543 171.663 118.605 171.657 118.665 171.645C118.721 171.636 118.774 171.622 118.825 171.604C118.872 171.586 118.908 171.566 118.932 171.539C119 171.463 119.077 171.352 119.166 171.199C119.255 171.047 119.317 170.924 119.353 170.83H119.527L119.533 170.833Z" fill="white"/>
<path d="M123.53 171.863H121.956V171.69C122.001 171.687 122.066 171.681 122.149 171.675C122.232 171.669 122.291 171.657 122.327 171.646C122.38 171.625 122.422 171.596 122.445 171.561C122.469 171.525 122.481 171.473 122.481 171.408V168.904C122.481 168.848 122.472 168.798 122.454 168.76C122.436 168.722 122.395 168.69 122.327 168.663C122.276 168.643 122.217 168.625 122.14 168.608C122.066 168.59 122.003 168.581 121.956 168.578V168.405H123.53V168.578C123.48 168.578 123.418 168.587 123.35 168.596C123.281 168.605 123.216 168.619 123.166 168.637C123.103 168.657 123.062 168.69 123.041 168.731C123.02 168.775 123.009 168.825 123.009 168.877V171.379C123.009 171.431 123.02 171.478 123.044 171.522C123.068 171.563 123.109 171.596 123.166 171.622C123.201 171.637 123.258 171.648 123.335 171.666C123.412 171.684 123.48 171.69 123.533 171.692V171.865L123.53 171.863Z" fill="white"/>
<path d="M129.511 168.578C129.47 168.578 129.416 168.59 129.357 168.608C129.298 168.625 129.247 168.646 129.206 168.669C129.149 168.704 129.105 168.748 129.072 168.801C129.04 168.854 129.004 168.918 128.971 168.992C128.862 169.25 128.696 169.652 128.476 170.2C128.257 170.748 128.029 171.317 127.797 171.909H127.593C127.356 171.282 127.127 170.675 126.908 170.091C126.688 169.508 126.537 169.115 126.46 168.91C126.439 168.86 126.413 168.816 126.38 168.778C126.347 168.74 126.303 168.704 126.25 168.669C126.205 168.643 126.155 168.622 126.101 168.608C126.048 168.593 125.998 168.584 125.95 168.581V168.408H127.397V168.581C127.273 168.587 127.169 168.599 127.086 168.616C127 168.634 126.958 168.666 126.958 168.71C126.958 168.728 126.961 168.748 126.967 168.775C126.973 168.798 126.979 168.819 126.985 168.833C127.044 168.992 127.145 169.253 127.281 169.613C127.418 169.974 127.611 170.487 127.863 171.15C127.987 170.848 128.132 170.493 128.292 170.086C128.456 169.675 128.565 169.393 128.622 169.241C128.675 169.094 128.708 168.992 128.716 168.933C128.725 168.874 128.731 168.83 128.731 168.795C128.731 168.76 128.714 168.728 128.681 168.701C128.648 168.675 128.604 168.655 128.547 168.637C128.494 168.619 128.438 168.608 128.381 168.602C128.325 168.593 128.269 168.587 128.212 168.581V168.408H129.514V168.581L129.511 168.578Z" fill="white"/>
<path d="M134.901 170.845L134.835 171.862H131.933V171.689C131.983 171.686 132.048 171.68 132.131 171.669C132.214 171.657 132.268 171.648 132.291 171.636C132.345 171.613 132.38 171.581 132.401 171.542C132.422 171.504 132.431 171.454 132.431 171.393V168.906C132.431 168.853 132.422 168.807 132.404 168.763C132.386 168.721 132.348 168.686 132.291 168.66C132.247 168.639 132.188 168.619 132.113 168.604C132.039 168.59 131.98 168.578 131.936 168.575V168.402H134.643V169.235H134.459C134.426 169.111 134.355 168.98 134.245 168.842C134.136 168.704 134.032 168.628 133.934 168.613C133.884 168.607 133.821 168.601 133.75 168.598C133.679 168.595 133.599 168.592 133.51 168.592H132.961V169.968H133.356C133.483 169.968 133.575 169.956 133.634 169.933C133.694 169.909 133.744 169.871 133.789 169.815C133.824 169.768 133.857 169.707 133.881 169.628C133.907 169.548 133.922 169.475 133.931 169.405H134.115V170.759H133.931C133.925 170.68 133.907 170.598 133.878 170.513C133.848 170.428 133.818 170.364 133.789 170.325C133.738 170.261 133.679 170.22 133.614 170.202C133.549 170.185 133.463 170.173 133.356 170.173H132.961V171.208C132.961 171.311 132.967 171.393 132.985 171.454C133 171.513 133.03 171.56 133.071 171.592C133.113 171.622 133.172 171.642 133.246 171.651C133.32 171.66 133.424 171.666 133.56 171.666H133.774C133.863 171.666 133.937 171.663 133.999 171.657C134.061 171.651 134.127 171.639 134.192 171.622C134.257 171.604 134.305 171.581 134.334 171.551C134.411 171.472 134.488 171.355 134.571 171.196C134.654 171.038 134.708 170.921 134.732 170.847H134.909L134.901 170.845Z" fill="white"/>
<path d="M125.988 142.515C119.086 142.515 113.491 148.051 113.491 154.875C113.491 161.699 119.083 167.238 125.988 167.238C132.894 167.238 138.486 161.702 138.486 154.875C138.486 148.049 132.888 142.515 125.988 142.515ZM129.872 165.907C124.915 167.613 119.163 164.056 117.017 157.966C114.873 151.875 117.15 145.556 122.104 143.849C127.056 142.143 132.814 145.7 134.96 151.79C137.104 157.881 134.824 164.2 129.872 165.907Z" fill="white"/>
<path d="M183.754 154.157C180.113 154.157 177.157 157.074 177.157 160.681C177.157 164.288 180.11 167.206 183.754 167.206C187.398 167.206 190.351 164.285 190.351 160.681C190.351 157.077 187.398 154.157 183.754 154.157ZM186.058 166.297C183.849 167.188 181.012 165.37 179.725 162.238C178.438 159.112 179.191 155.855 181.403 154.963C183.612 154.078 186.449 155.89 187.736 159.022C189.017 162.153 188.27 165.405 186.058 166.297Z" fill="white"/>
<path d="M148.937 165.599C147.885 165.663 145.869 166.892 145.869 166.892C145.869 166.892 142.999 169.2 141.326 167.666C139.761 166.232 141.492 164.728 142.177 164.405H142.18C143.197 165.25 144.505 165.751 145.931 165.751C149.169 165.751 151.793 163.156 151.793 159.954C151.793 158.426 151.194 157.033 150.215 155.998C151.108 155.717 151.92 155.881 152.267 155.969C152.688 156.077 152.786 155.846 152.786 155.846L153.631 154.218C151.466 153.579 149.682 155.497 149.682 155.497C148.665 154.664 147.363 154.16 145.937 154.16C142.699 154.16 140.075 156.755 140.075 159.957C140.075 161.579 140.748 163.051 141.836 164.1C141.836 164.1 139.162 165.59 140.443 168.42C140.443 168.42 142.032 171.651 146.011 169.352C148.777 167.701 150.12 166.502 152.297 168.719C153.322 169.792 153.275 172.387 151.351 173.337C151.351 173.337 147.897 175.176 146.895 170.813H144.68C144.68 170.813 144.902 173.719 148.976 174.2C152.759 174.314 153.69 171.619 153.592 169.736C153.592 169.736 153.426 165.215 148.946 165.602L148.937 165.599ZM142.883 155.383C144.523 154.298 147.218 155.438 148.905 157.931C150.598 160.429 150.633 163.332 149 164.414C147.36 165.499 144.659 164.358 142.972 161.86C141.285 159.368 141.243 156.465 142.883 155.383Z" fill="white"/>
<path d="M164.443 165.625V157.857C164.443 157.529 164.387 157.203 164.262 156.898C163.966 156.171 163.521 155.491 162.872 155.022C162.646 154.869 162.415 154.737 162.184 154.629C159.225 153.204 156.073 155.031 155.314 155.714C154.49 156.459 155.379 156.52 155.459 156.529C155.545 156.538 157.084 156.646 157.811 156.852C160.147 157.444 160.802 158.711 160.968 159.168C160.177 158.544 159.168 158.174 158.08 158.174C155.528 158.174 153.458 160.197 153.458 162.69C153.458 165.182 155.528 167.2 158.08 167.2C159.865 167.2 161.419 166.209 162.181 164.757V166.813H164.23H165.854C165.952 166.813 166.029 166.737 166.029 166.637V166.561H165.335C165.335 166.561 165.327 166.561 165.324 166.561C164.826 166.555 164.44 166.112 164.44 165.619L164.443 165.625ZM160.823 165.262C159.343 166.241 157.185 165.616 156.002 163.869C154.819 162.115 155.059 159.907 156.539 158.928C157.899 158.025 159.85 158.491 161.066 159.942C161.155 160.045 161.235 160.153 161.315 160.265C161.324 160.282 161.339 160.303 161.354 160.321C162.537 162.068 162.299 164.282 160.82 165.262H160.823ZM161.798 160.019C161.623 159.473 161.072 158.039 159.919 157.268C159.317 156.769 158.113 156.327 158.113 156.327C158.113 156.327 156.954 156.145 157.713 155.47C158.472 154.796 159.337 154.274 160.399 154.638C161.294 154.948 162.056 155.945 162.184 157.347V160.623C162.071 160.414 161.944 160.209 161.798 160.021V160.019Z" fill="white"/>
<path d="M169.973 155.444V154.515H166.317C166.219 154.515 166.142 154.591 166.142 154.691V154.767H166.836C167.322 154.767 167.714 155.16 167.714 155.638V165.637C167.714 166.121 167.34 166.561 166.848 166.567C166.845 166.567 166.839 166.567 166.836 166.567H166.142V166.643C166.142 166.74 166.219 166.819 166.317 166.819H167.942H169.742H171.367C171.464 166.819 171.541 166.743 171.541 166.643V166.567H170.848C170.848 166.567 170.839 166.567 170.836 166.567C170.347 166.561 169.97 166.121 169.97 165.637V156.297C170.216 155.793 170.616 155.383 171.248 155.163C174.174 154.133 175.197 157.553 175.197 157.553L176.861 156.066C173.952 152.447 170.794 154.737 169.97 155.444H169.973Z" fill="white"/>
<path d="M185.672 150.142H185.776C185.898 150.142 185.984 150.151 186.034 150.175C186.09 150.198 186.144 150.239 186.188 150.301C186.236 150.362 186.325 150.515 186.461 150.758L186.835 151.424H187.451L187.14 150.828C187.012 150.585 186.915 150.418 186.843 150.324C186.772 150.23 186.677 150.148 186.571 150.069C186.787 150.031 186.953 149.937 187.069 149.79C187.181 149.647 187.244 149.45 187.244 149.213C187.244 149.022 187.205 148.858 187.125 148.72C187.051 148.585 186.95 148.488 186.832 148.43C186.713 148.38 186.517 148.351 186.239 148.351H185.153V151.427H185.666V150.145L185.672 150.142ZM185.672 148.867H186.073C186.304 148.867 186.446 148.875 186.491 148.89C186.562 148.914 186.612 148.955 186.651 149.016C186.692 149.078 186.713 149.151 186.713 149.248C186.713 149.345 186.695 149.436 186.651 149.494C186.612 149.556 186.562 149.597 186.5 149.62C186.434 149.638 186.283 149.65 186.052 149.65H185.669V148.867H185.672Z" fill="white"/>
<path d="M186.242 152.38C187.671 152.38 188.824 151.262 188.824 149.887C188.824 148.512 187.671 147.395 186.242 147.395C184.813 147.395 183.659 148.512 183.659 149.887C183.659 151.262 184.818 152.38 186.242 152.38ZM186.242 147.743C187.472 147.743 188.471 148.702 188.471 149.887C188.471 151.072 187.472 152.031 186.242 152.031C185.011 152.031 184.012 151.072 184.012 149.887C184.012 148.702 185.011 147.743 186.242 147.743Z" fill="white"/>
<path fill-rule="evenodd" clip-rule="evenodd" d="M303.861 121.296C287.939 52.1003 225.96 0.500176 151.93 0.50017C77.9005 0.500163 15.9223 52.1003 6.10352e-05 121.296L31.7947 121.296C46.9316 69.296 94.9425 31.2965 151.829 31.2965C208.715 31.2965 256.726 69.296 271.862 121.296L303.861 121.296Z" fill="#4C5626"/>
<defs>
<filter id="filter0_d_725_14239" x="27" y="27.5" width="250" height="250" filterUnits="userSpaceOnUse" color-interpolation-filters="sRGB">
<feFlood flood-opacity="0" result="BackgroundImageFix"/>
<feColorMatrix in="SourceAlpha" type="matrix" values="0 0 0 0 0 0 0 0 0 0 0 0 0 0 0 0 0 0 127 0" result="hardAlpha"/>
<feMorphology radius="2" operator="dilate" in="SourceAlpha" result="effect1_dropShadow_725_14239"/>
<feOffset/>
<feGaussianBlur stdDeviation="9"/>
<feComposite in2="hardAlpha" operator="out"/>
<feColorMatrix type="matrix" values="0 0 0 0 0 0 0 0 0 0 0 0 0 0 0 0 0 0 0.12 0"/>
<feBlend mode="normal" in2="BackgroundImageFix" result="effect1_dropShadow_725_14239"/>
<feBlend mode="normal" in="SourceGraphic" in2="effect1_dropShadow_725_14239" result="shape"/>
</filter>
</defs>
</svg>
