<svg width="304" height="279" viewBox="0 0 304 279" fill="none" xmlns="http://www.w3.org/2000/svg">
<g filter="url(#filter0_d_725_14266)">
<circle cx="152" cy="125.5" r="105" fill="white"/>
</g>
<path d="M196.154 79.3783V159.827C196.154 164.18 192.626 167.708 188.274 167.708H180.136C174.495 172.048 164.262 174.95 152.576 174.95C140.89 174.95 130.659 172.048 125.018 167.708H116.878C112.528 167.708 109 164.18 109 159.827V79.3783C109 75.0278 112.528 71.5 116.878 71.5H188.274C192.628 71.5 196.154 75.0258 196.154 79.3783Z" fill="#153D1F"/>
<path d="M181.109 99.2163C181.109 99.2163 178.418 102.554 183.514 106.821C188.61 111.089 189.566 114.736 187.654 117.737C187.654 117.737 188.999 114.373 186.618 111.192C186.618 111.192 190.085 116.624 183.566 123.143C179.323 127.074 173.893 122.004 173.893 122.004C173.893 122.004 177.8 123.09 182.403 121.332C187.007 119.573 186.18 115.745 184.888 114.217C183.595 112.691 178.938 108.371 178.756 104.827C178.756 104.827 179.635 107.311 180.963 108.379C180.963 108.383 176.426 102.967 181.109 99.2163Z" fill="#132818"/>
<path d="M172.995 106.503C169.512 104.157 171.641 102.554 171.641 102.554C171.641 102.554 167.581 103.089 170.685 108.021C170.685 108.021 169.727 107.907 169.21 105.476C169.21 105.476 168.847 107.65 170.296 108.736C170.296 108.736 168.476 110.537 167.65 114.055C166.821 117.575 171.615 118.092 171.615 118.092C171.615 118.092 170.028 119.954 166.89 119.196C164.924 118.677 163.303 115.538 162.855 114.264C162.407 112.987 160.612 109.986 156.957 109.401C153.301 108.813 145.23 114.471 142.47 116.333C139.713 118.195 131.003 123.713 122.157 121.644C116.854 120.144 117.034 115.178 117.087 114.298C117.137 113.417 118.949 104.053 131.934 107.83L132.106 107.038C132.106 107.038 124.025 103.105 118.213 108.596C117.097 109.652 116.262 110.965 115.806 112.432C115.095 114.718 114.643 118.519 117.707 121.85C122.381 126.93 130.347 123.63 130.633 123.51C130.499 123.605 128.507 124.963 124.535 125.161C124.535 125.161 132.469 126.92 144.126 119.954C153.336 113.956 156.199 113.711 156.199 113.711C156.199 113.711 158.888 113.056 161.062 116.884C163.234 120.712 165.356 122.782 168.407 122.092C171.461 121.403 172.961 119.161 173.305 118.436L177.789 119.196C177.789 119.196 179.169 117.194 179.548 113.435C179.617 109.711 176.478 108.847 172.995 106.503ZM173.202 114.643C173.202 114.643 170.304 114.284 169.141 113.121C169.058 113.038 169.003 112.933 168.973 112.819C168.886 112.503 169.019 112.169 169.301 112.002C169.907 111.646 171.226 111.168 172.116 111.658C173.427 112.383 173.202 114.643 173.202 114.643ZM174.547 115.109L175.082 112.004C175.082 112.004 178.03 113.504 178.083 115.814L174.547 115.109Z" fill="#132818"/>
<path d="M154.353 82.5658C154.353 82.5658 154.318 80.5476 156.061 79.2366C157.804 77.9255 158.225 80.732 156.872 82.195C156.872 82.195 157.406 80.0045 156.811 79.5993C156.215 79.194 155.198 80.9103 156.012 82.8069C156.827 84.7036 158.647 87.0663 160.405 88.6367C162.164 90.2071 165.872 93.8869 167.139 97.5099C167.7 98.898 167.907 100.175 167.804 101.192C167.804 101.192 166.993 97.743 165.648 96.0875C165.648 96.0875 168.045 100.898 167.682 104.314C167.319 107.729 164.191 110.523 160.387 109.411C156.584 108.298 155.386 101.684 160.612 98.6589C160.612 98.6589 154.776 105.214 160.541 108.681C161.686 109.37 163.161 109.291 164.172 108.42C165.925 106.91 167.437 103.435 164.061 97.9172C164.061 97.9172 161.37 93.4674 157.094 89.6053C152.817 85.7431 154.051 81.656 154.051 81.656C154.051 81.656 153.871 85.0886 155.248 86.8292C155.248 86.8251 154.302 84.4523 154.353 82.5658Z" fill="#132818"/>
<path d="M158.704 81.4836C158.73 81.2587 158.803 81.0419 158.916 80.8453C159.196 80.3651 159.743 79.5728 159.96 80.2415C160.258 81.1594 159.532 81.4309 159.184 81.7166C158.977 81.9111 158.86 82.7115 159.611 82.2718C160.361 81.8321 161.901 81.6518 160.724 84.0834C159.753 86.1664 158.448 85.5322 158.448 85.5322C158.448 85.5322 159.78 84.8858 160.207 83.7733C160.207 83.7733 158.402 84.4967 158.59 82.5575C158.641 82.0469 158.679 81.7024 158.704 81.4836Z" fill="#132818"/>
<path d="M146.882 97.5689C137.996 109.958 136.307 100.148 136.307 100.148L136.28 99.579L135.944 99.502C135.859 99.5324 135.776 99.5649 135.695 99.5973C133.828 100.349 132.623 102.183 132.582 104.193L132.556 105.443C131.676 117.283 119.725 116.91 119.725 116.91C121.897 118.023 125.804 116.547 125.804 116.547C124.408 117.583 122.329 117.816 122.329 117.816C134.331 118.782 133.695 109.668 133.901 106.537C134.108 103.407 136.359 102.71 136.359 102.71C136.359 102.71 137.911 107.857 141.842 105.944C149.37 101.158 148.904 97.1495 148.181 94.9489C147.887 94.0553 147.105 93.7027 146.282 93.5994C144.618 93.3906 143.01 94.2498 142.146 95.6885C140.712 98.0735 139.506 102.24 140.835 106.28C142.803 112.258 151.099 105.194 151.099 105.194L160.442 96.5416L157.998 97.6013L160.442 95.9722V94.6044C158.649 95.3623 156.993 94.5355 156.718 94.4666C156.442 94.3977 153.441 91.8446 152.268 93.6379C150.612 96.0168 151.198 100.604 151.198 100.604L152.268 108.728L152.578 108.246L152.165 100.537C152.165 100.537 151.897 97.5892 153.17 96.3734C153.755 95.727 156.252 97.2407 156.252 97.2407C156.252 97.2407 146.404 108.229 142.197 106.229C142.197 106.229 139.747 103.263 142.404 98.6064C143.964 96.1586 145.848 96.4484 146.604 96.6956C146.809 96.7625 146.957 96.9428 146.985 97.1576C147.003 97.2994 146.967 97.4494 146.882 97.5689Z" fill="#132818"/>
<path d="M134.327 107.765C134.327 107.765 140.264 110.624 142.023 114.995C142.023 114.995 139.152 111.321 134.327 108.657V107.765Z" fill="#132818"/>
<path d="M137.456 95.066C136.602 96.3081 135.557 97.69 134.781 96.8106C133.68 95.3476 132.84 95.8137 132.84 95.8137C133.271 95.1652 133.792 94.5391 134.294 94.146C135.324 94.4641 136.003 95.147 136.055 95.2017C135.51 94.3527 134.87 94.0893 134.483 93.99C135.034 93.6536 135.63 93.6212 135.932 94.2615C136.536 95.5442 137.409 95.0903 137.456 95.066Z" fill="#132818"/>
<path d="M152.906 89.1856C152.053 90.4277 151.007 91.8097 150.231 90.9302C149.131 89.4672 148.29 89.9333 148.29 89.9333C148.722 89.2849 149.242 88.6587 149.745 88.2656C150.774 88.5838 151.453 89.2666 151.506 89.3213C150.961 88.4723 150.32 88.2089 149.933 88.1096C150.485 87.7732 151.08 87.7408 151.382 88.3811C151.986 89.6638 152.859 89.2099 152.906 89.1856Z" fill="#132818"/>
<path d="M157.581 123.453C157.51 123.433 156.035 123.001 154.193 124.515C152.306 126.067 151.038 125.653 150.12 124.721C150.114 124.715 150.108 124.709 150.1 124.701C152.327 124.727 153.858 122.886 153.858 122.886C151.066 124.883 149.447 124.018 148.904 123.585C148.837 123.522 148.768 123.457 148.699 123.392C148.697 123.39 148.697 123.39 148.697 123.39C147.615 122.363 146.42 121.084 146.42 120.118C146.42 120.118 147.611 122.278 149.707 120.802C151.802 119.329 153.883 118.035 155.5 119.832C157.08 121.591 157.561 123.37 157.581 123.453Z" fill="#132818"/>
<path d="M175.676 95.0522C175.676 95.0522 171.842 100.552 174.442 102.122C176.671 103.468 176.667 99.0016 176.667 99.0016C176.667 99.0016 176.089 100.718 174.744 100.252C173.4 99.7857 175.676 95.0522 175.676 95.0522Z" fill="#132818"/>
<path d="M119.825 98.6872H120.615V100.807H121.217V98.6872H122.009V98.1279H119.825V98.6872Z" fill="#132818"/>
<path d="M124.522 98.1279L123.719 99.6882L122.913 98.1279H122.276V100.807H122.848V99.2201L123.529 100.547H123.908L124.582 99.2221L124.584 100.807H125.156V98.1279H124.522Z" fill="#132818"/>
<path d="M180.712 98.8193C180.712 98.8193 178.021 102.157 183.117 106.424C188.213 110.692 189.169 114.339 187.257 117.34C187.257 117.34 188.602 113.976 186.221 110.795C186.221 110.795 189.688 116.227 183.17 122.746C178.926 126.677 173.496 121.607 173.496 121.607C173.496 121.607 177.403 122.693 182.006 120.935C186.61 119.176 185.783 115.348 184.491 113.82C183.198 112.292 178.541 107.974 178.359 104.43C178.359 104.43 179.238 106.914 180.566 107.982C180.566 107.986 176.029 102.572 180.712 98.8193Z" fill="url(#paint0_linear_725_14266)"/>
<path d="M172.596 106.106C169.113 103.759 171.243 102.156 171.243 102.156C171.243 102.156 167.182 102.691 170.286 107.623C170.286 107.623 169.328 107.51 168.811 105.078C168.811 105.078 168.448 107.252 169.897 108.339C169.897 108.339 168.077 110.14 167.251 113.658C166.422 117.177 171.216 117.694 171.216 117.694C171.216 117.694 169.63 119.556 166.491 118.798C164.525 118.28 162.904 115.141 162.456 113.866C162.009 112.59 160.213 109.589 156.558 109.003C152.902 108.416 144.831 114.073 142.072 115.935C139.314 117.797 130.605 123.315 121.758 121.246C116.455 119.747 116.635 114.78 116.688 113.901C116.739 113.019 118.55 103.656 131.535 107.433L131.707 106.641C131.707 106.641 123.626 102.707 117.814 108.199C116.698 109.254 115.863 110.568 115.407 112.035C114.696 114.32 114.244 118.122 117.308 121.453C121.983 126.533 129.948 123.232 130.234 123.112C130.1 123.208 128.108 124.565 124.137 124.764C124.137 124.764 132.07 126.523 143.727 119.556C152.937 113.558 155.8 113.313 155.8 113.313C155.8 113.313 158.489 112.659 160.663 116.486C162.835 120.314 164.957 122.385 168.009 121.694C171.062 121.005 172.562 118.764 172.906 118.039L177.39 118.798C177.39 118.798 178.77 116.796 179.149 113.038C179.22 109.315 176.079 108.45 172.596 106.106ZM172.805 114.245C172.805 114.245 169.907 113.887 168.744 112.724C168.661 112.64 168.606 112.535 168.576 112.422C168.489 112.105 168.623 111.771 168.904 111.605C169.51 111.248 170.829 110.77 171.719 111.261C173.028 111.988 172.805 114.245 172.805 114.245ZM174.15 114.713L174.685 111.609C174.685 111.609 177.634 113.109 177.686 115.419L174.15 114.713Z" fill="url(#paint1_linear_725_14266)"/>
<path d="M153.956 82.1688C153.956 82.1688 153.922 80.1506 155.664 78.8396C157.407 77.5286 157.828 80.335 156.475 81.798C156.475 81.798 157.01 79.6076 156.414 79.2023C155.818 78.797 154.801 80.5133 155.616 82.41C156.43 84.3066 158.25 86.6693 160.009 88.2397C161.767 89.8081 165.476 93.4899 166.742 97.113C167.303 98.501 167.51 99.7776 167.407 100.795C167.407 100.795 166.596 97.346 165.251 95.6905C165.251 95.6905 167.648 100.501 167.285 103.917C166.922 107.332 163.794 110.126 159.99 109.014C156.187 107.901 154.989 101.287 160.215 98.2619C160.215 98.2619 154.38 104.817 160.144 108.284C161.289 108.973 162.764 108.894 163.776 108.023C165.528 106.513 167.04 103.038 163.664 97.5203C163.664 97.5203 160.973 93.0705 156.698 89.2083C152.42 85.3461 153.654 81.259 153.654 81.259C153.654 81.259 153.474 84.6916 154.852 86.4322C154.852 86.4302 153.905 84.0553 153.956 82.1688Z" fill="url(#paint2_linear_725_14266)"/>
<path d="M158.307 81.0866C158.333 80.8617 158.406 80.6449 158.519 80.4483C158.799 79.9681 159.346 79.1758 159.563 79.8445C159.861 80.7624 159.135 81.0339 158.787 81.3196C158.58 81.5142 158.463 82.3146 159.214 81.8749C159.964 81.4351 161.504 81.2548 160.327 83.6864C159.356 85.7694 158.051 85.1352 158.051 85.1352C158.051 85.1352 159.383 84.4888 159.81 83.3764C159.81 83.3764 158.005 84.0998 158.193 82.1606C158.244 81.6499 158.28 81.3055 158.307 81.0866Z" fill="url(#paint3_linear_725_14266)"/>
<path d="M146.483 97.1719C137.597 109.561 135.908 99.7514 135.908 99.7514L135.881 99.182L135.545 99.105C135.46 99.1354 135.377 99.1678 135.296 99.2002C133.429 99.952 132.224 101.786 132.183 103.796L132.157 105.046C131.277 116.886 119.326 116.513 119.326 116.513C121.498 117.626 125.405 116.15 125.405 116.15C124.009 117.186 121.93 117.419 121.93 117.419C133.932 118.385 133.296 109.271 133.502 106.14C133.709 103.01 135.96 102.313 135.96 102.313C135.96 102.313 137.512 107.46 141.443 105.547C148.971 100.761 148.505 96.7524 147.782 94.5518C147.488 93.6582 146.706 93.3057 145.883 93.2023C144.219 92.9936 142.611 93.8528 141.747 95.2915C140.313 97.6764 139.107 101.843 140.436 105.883C142.404 111.861 150.7 104.797 150.7 104.797L160.043 96.1445L157.599 97.2043L160.043 95.5751V94.2094C158.25 94.9672 156.594 94.1405 156.319 94.0716C156.043 94.0027 153.042 91.4495 151.869 93.2428C150.213 95.6217 150.799 100.209 150.799 100.209L151.869 108.333L152.179 107.851L151.766 100.142C151.766 100.142 151.498 97.1942 152.771 95.9784C153.356 95.332 155.853 96.8456 155.853 96.8456C155.853 96.8456 146.005 107.834 141.798 105.834C141.798 105.834 139.348 102.868 142.005 98.2114C143.565 95.7636 145.449 96.0534 146.205 96.3006C146.41 96.3674 146.558 96.5478 146.586 96.7605C146.607 96.9024 146.568 97.0523 146.483 97.1719Z" fill="url(#paint4_linear_725_14266)"/>
<path d="M133.93 107.37C133.93 107.37 139.867 110.229 141.626 114.6C141.626 114.6 138.754 110.926 133.93 108.262V107.37Z" fill="url(#paint5_linear_725_14266)"/>
<path d="M137.058 94.6695C136.205 95.9116 135.16 97.2936 134.384 96.4141C133.283 94.9511 132.442 95.4172 132.442 95.4172C132.874 94.7688 133.395 94.1426 133.897 93.7495C134.927 94.0676 135.605 94.7505 135.658 94.8052C135.113 93.9562 134.473 93.6928 134.086 93.5935C134.637 93.2571 135.233 93.2247 135.535 93.865C136.136 95.1477 137.01 94.6938 137.058 94.6695Z" fill="url(#paint6_linear_725_14266)"/>
<path d="M152.509 88.7886C151.656 90.0307 150.611 91.4127 149.835 90.5333C148.734 89.0703 147.893 89.5363 147.893 89.5363C148.325 88.8879 148.846 88.2618 149.348 87.8687C150.378 88.1868 151.056 88.8697 151.109 88.9244C150.564 88.0753 149.924 87.8119 149.537 87.7126C150.088 87.3763 150.684 87.3438 150.985 87.9842C151.589 89.2668 152.463 88.8129 152.509 88.7886Z" fill="url(#paint7_linear_725_14266)"/>
<path d="M157.182 123.058C157.111 123.038 155.636 122.606 153.794 124.12C151.907 125.672 150.639 125.258 149.721 124.326C149.715 124.32 149.709 124.314 149.701 124.306C151.928 124.332 153.459 122.491 153.459 122.491C150.667 124.488 149.048 123.623 148.505 123.19C148.438 123.127 148.369 123.062 148.3 122.997C148.298 122.995 148.298 122.995 148.298 122.995C147.216 121.968 146.021 120.689 146.021 119.723C146.021 119.723 147.212 121.883 149.308 120.407C151.403 118.934 153.484 117.639 155.101 119.437C156.681 121.194 157.162 122.975 157.182 123.058Z" fill="url(#paint8_linear_725_14266)"/>
<path d="M175.279 94.6553C175.279 94.6553 171.445 100.155 174.045 101.725C176.274 103.071 176.27 98.6046 176.27 98.6046C176.27 98.6046 175.693 100.321 174.347 99.8548C173.004 99.3888 175.279 94.6553 175.279 94.6553Z" fill="url(#paint9_linear_725_14266)"/>
<path d="M119.427 98.2923H120.216V100.41H120.82V98.2923H121.612V97.731H119.427V98.2923Z" fill="url(#paint10_linear_725_14266)"/>
<path d="M124.123 97.731L123.322 99.2912L122.516 97.731H121.879V100.41H122.451V98.8252L123.132 100.15H123.511L124.185 98.8252L124.187 100.41H124.759V97.731H124.123Z" fill="url(#paint11_linear_725_14266)"/>
<path d="M126.376 135.85C126.114 135.595 125.806 135.396 125.452 135.252C125.097 135.109 124.745 135.036 124.394 135.036C124.07 135.036 123.772 135.096 123.496 135.216C123.221 135.335 122.98 135.504 122.775 135.716C122.568 135.929 122.408 136.178 122.295 136.46C122.181 136.742 122.125 137.048 122.125 137.378C122.125 137.708 122.183 138.016 122.301 138.302C122.418 138.588 122.581 138.839 122.785 139.056C122.992 139.273 123.233 139.441 123.507 139.562C123.782 139.682 124.08 139.743 124.404 139.743C124.7 139.743 125.02 139.678 125.365 139.546C125.709 139.416 126.021 139.24 126.303 139.019L127.231 140.164C126.976 140.343 126.686 140.505 126.36 140.649C126.033 140.792 125.691 140.906 125.332 140.989C124.974 141.072 124.631 141.113 124.301 141.113C123.75 141.113 123.243 141.017 122.779 140.829C122.315 140.64 121.908 140.377 121.557 140.039C121.207 139.702 120.935 139.305 120.743 138.847C120.55 138.389 120.453 137.899 120.453 137.376C120.453 136.853 120.552 136.367 120.753 135.915C120.951 135.465 121.229 135.07 121.584 134.734C121.938 134.397 122.356 134.136 122.838 133.949C123.32 133.763 123.839 133.672 124.396 133.672C124.755 133.672 125.107 133.714 125.46 133.802C125.81 133.887 126.145 134.01 126.461 134.168C126.777 134.326 127.057 134.515 127.298 134.736L126.376 135.85ZM125.819 137.366H127.233V140.162H125.819V137.366Z" fill="white"/>
<path d="M131.237 133.775C132.179 133.775 132.911 133.994 133.429 134.43C133.948 134.868 134.208 135.482 134.208 136.272C134.208 137.105 133.948 137.753 133.429 138.217C132.911 138.681 132.179 138.914 131.237 138.914H129.729V140.999H128.098V133.775H131.237ZM131.237 137.593C131.685 137.593 132.033 137.488 132.285 137.279C132.536 137.068 132.661 136.75 132.661 136.325C132.661 135.911 132.536 135.603 132.285 135.396C132.033 135.19 131.685 135.086 131.237 135.086H129.729V137.595H131.237V137.593ZM131.04 138.306H132.629L134.384 140.999H132.536L131.04 138.306Z" fill="white"/>
<path d="M135.014 133.775H140.513V135.086H136.643V136.718H140.12V138.029H136.643V139.69H140.627V141.001H135.014V133.775Z" fill="white"/>
<path d="M141.35 133.775H146.85V135.086H142.98V136.718H146.457V138.029H142.98V139.69H146.963V141.001H141.35V133.775Z" fill="white"/>
<path d="M154.218 133.775V140.999L150.307 137.721L149.245 136.831V140.999H147.685V133.775L151.608 137.062L152.682 137.962V133.775H154.218Z" fill="white"/>
<path d="M163.601 135.85C163.34 135.595 163.032 135.396 162.677 135.252C162.323 135.109 161.97 135.036 161.62 135.036C161.296 135.036 160.998 135.096 160.722 135.216C160.446 135.335 160.205 135.504 160.001 135.716C159.794 135.929 159.634 136.178 159.52 136.46C159.407 136.742 159.35 137.048 159.35 137.378C159.35 137.708 159.409 138.016 159.527 138.302C159.644 138.588 159.806 138.839 160.011 139.056C160.217 139.273 160.459 139.441 160.734 139.562C161.01 139.682 161.308 139.743 161.632 139.743C161.928 139.743 162.248 139.678 162.592 139.546C162.937 139.416 163.249 139.24 163.531 139.019L164.459 140.164C164.203 140.343 163.914 140.505 163.587 140.649C163.261 140.792 162.919 140.906 162.56 140.989C162.201 141.072 161.859 141.113 161.529 141.113C160.977 141.113 160.471 141.017 160.007 140.829C159.543 140.64 159.135 140.377 158.785 140.039C158.434 139.702 158.163 139.305 157.97 138.847C157.778 138.389 157.681 137.899 157.681 137.376C157.681 136.853 157.78 136.367 157.98 135.915C158.179 135.465 158.457 135.07 158.811 134.734C159.166 134.397 159.583 134.136 160.066 133.949C160.548 133.763 161.067 133.672 161.624 133.672C161.982 133.672 162.335 133.714 162.688 133.802C163.038 133.887 163.372 134.01 163.689 134.168C164.005 134.326 164.284 134.515 164.525 134.736L163.601 135.85ZM163.044 137.366H164.459V140.162H163.044V137.366Z" fill="white"/>
<path d="M168.689 133.672C169.241 133.672 169.751 133.765 170.221 133.949C170.692 134.136 171.103 134.397 171.455 134.734C171.806 135.07 172.08 135.463 172.276 135.911C172.473 136.359 172.57 136.847 172.57 137.376C172.57 137.899 172.473 138.387 172.276 138.841C172.08 139.295 171.806 139.692 171.455 140.033C171.105 140.373 170.694 140.638 170.221 140.827C169.749 141.015 169.239 141.111 168.689 141.111C168.138 141.111 167.628 141.015 167.158 140.827C166.685 140.638 166.276 140.373 165.924 140.033C165.573 139.692 165.299 139.295 165.103 138.841C164.906 138.387 164.809 137.899 164.809 137.376C164.809 136.847 164.906 136.357 165.103 135.905C165.299 135.455 165.573 135.062 165.924 134.728C166.274 134.393 166.685 134.134 167.158 133.947C167.628 133.765 168.138 133.672 168.689 133.672ZM168.71 135.044C168.408 135.044 168.12 135.102 167.849 135.22C167.577 135.338 167.34 135.502 167.137 135.714C166.935 135.927 166.775 136.176 166.657 136.458C166.54 136.74 166.481 137.046 166.481 137.376C166.481 137.706 166.54 138.014 166.657 138.3C166.775 138.586 166.937 138.837 167.141 139.054C167.348 139.271 167.585 139.439 167.853 139.56C168.12 139.682 168.406 139.741 168.71 139.741C169.012 139.741 169.295 139.68 169.561 139.56C169.826 139.441 170.057 139.271 170.258 139.054C170.456 138.837 170.615 138.586 170.728 138.3C170.841 138.014 170.898 137.706 170.898 137.376C170.898 137.046 170.841 136.74 170.728 136.458C170.615 136.176 170.458 135.929 170.258 135.714C170.057 135.502 169.826 135.335 169.561 135.22C169.295 135.102 169.012 135.044 168.71 135.044Z" fill="white"/>
<path d="M173.085 133.775H174.716V139.627H177.802V140.999H173.085V133.775Z" fill="white"/>
<path d="M181.279 133.775C181.842 133.775 182.357 133.863 182.821 134.039C183.285 134.215 183.686 134.462 184.023 134.782C184.359 135.103 184.62 135.482 184.807 135.923C184.993 136.363 185.087 136.851 185.087 137.388C185.087 137.917 184.993 138.404 184.807 138.843C184.62 139.283 184.357 139.666 184.013 139.988C183.668 140.312 183.261 140.562 182.791 140.736C182.319 140.912 181.798 140.999 181.226 140.999H178.223V133.775H181.279ZM181.32 139.668C181.63 139.668 181.911 139.613 182.167 139.504C182.422 139.394 182.643 139.238 182.833 139.034C183.022 138.831 183.168 138.592 183.271 138.316C183.374 138.041 183.425 137.735 183.425 137.398C183.425 137.062 183.37 136.754 183.261 136.474C183.151 136.197 182.999 135.952 182.807 135.741C182.614 135.53 182.385 135.372 182.12 135.261C181.855 135.151 181.565 135.097 181.249 135.097H179.857V139.668H181.32Z" fill="white"/>
<path d="M126.809 144.922H127.278L128.741 146.91L128.611 146.954V144.922H129.091V147.507H128.619L127.164 145.524L127.294 145.479V147.507H126.809V144.922Z" fill="url(#paint12_linear_725_14266)"/>
<path d="M130.485 144.922H130.992L132.11 147.507H131.582L130.72 145.42L129.863 147.507H129.346L130.485 144.922ZM129.942 146.541H131.482V146.944H129.942V146.541Z" fill="url(#paint13_linear_725_14266)"/>
<path d="M131.819 144.922H133.928V145.339H133.124V147.507H132.625V145.339H131.821V144.922H131.819Z" fill="url(#paint14_linear_725_14266)"/>
<path d="M134.666 146.444C134.666 146.656 134.724 146.823 134.84 146.942C134.955 147.064 135.111 147.122 135.306 147.122C135.498 147.122 135.65 147.064 135.764 146.944C135.877 146.825 135.934 146.658 135.934 146.444V144.922H136.429V146.444C136.429 146.671 136.384 146.865 136.293 147.029C136.202 147.193 136.074 147.319 135.906 147.408C135.738 147.497 135.537 147.542 135.306 147.542C135.073 147.542 134.87 147.497 134.7 147.408C134.53 147.319 134.4 147.193 134.309 147.029C134.218 146.865 134.173 146.671 134.173 146.444V144.922H134.668V146.444H134.666Z" fill="url(#paint15_linear_725_14266)"/>
<path d="M138.031 144.922C138.366 144.922 138.625 144.999 138.807 145.155C138.99 145.311 139.081 145.528 139.081 145.809C139.081 146.103 138.99 146.33 138.807 146.492C138.625 146.654 138.366 146.735 138.031 146.735H137.448V147.507H136.953V144.922H138.031ZM138.031 146.326C138.216 146.326 138.359 146.284 138.459 146.2C138.56 146.117 138.611 145.99 138.611 145.82C138.611 145.657 138.56 145.536 138.459 145.457C138.357 145.376 138.216 145.337 138.031 145.337H137.448V146.326H138.031ZM138.013 146.547H138.497L139.134 147.507H138.572L138.013 146.547Z" fill="url(#paint16_linear_725_14266)"/>
<path d="M140.38 144.922H140.886L142.005 147.507H141.476L140.615 145.42L139.758 147.507H139.241L140.38 144.922ZM139.837 146.541H141.377V146.944H139.837V146.541Z" fill="url(#paint17_linear_725_14266)"/>
<path d="M142.264 144.922H142.759V147.086H143.873V147.507H142.262V144.922H142.264Z" fill="url(#paint18_linear_725_14266)"/>
<path d="M145.142 144.922H145.636V146.036H146.925V144.922H147.423V147.507H146.925V146.448H145.636V147.507H145.142V144.922Z" fill="url(#paint19_linear_725_14266)"/>
<path d="M147.999 144.922H149.893V145.335H148.493V146.004H149.75V146.413H148.493V147.092H149.938V147.505H147.999V144.922Z" fill="url(#paint20_linear_725_14266)"/>
<path d="M151.46 144.922C151.794 144.922 152.053 144.999 152.236 145.155C152.418 145.311 152.509 145.528 152.509 145.809C152.509 146.103 152.418 146.33 152.236 146.492C152.053 146.654 151.794 146.735 151.46 146.735H150.876V147.507H150.382V144.922H151.46ZM151.46 146.326C151.644 146.326 151.788 146.284 151.887 146.2C151.989 146.117 152.039 145.99 152.039 145.82C152.039 145.657 151.989 145.536 151.887 145.457C151.786 145.376 151.644 145.337 151.46 145.337H150.876V146.326H151.46ZM151.441 146.547H151.926L152.562 147.507H152.001L151.441 146.547Z" fill="url(#paint21_linear_725_14266)"/>
<path d="M154.142 144.922C154.327 144.922 154.487 144.948 154.619 144.999C154.752 145.051 154.854 145.124 154.925 145.219C154.996 145.315 155.032 145.432 155.032 145.566C155.032 145.71 154.992 145.831 154.913 145.935C154.831 146.038 154.722 146.105 154.582 146.137C154.752 146.17 154.886 146.243 154.985 146.358C155.085 146.474 155.133 146.618 155.133 146.79C155.133 146.938 155.095 147.065 155.016 147.173C154.937 147.28 154.827 147.361 154.686 147.418C154.544 147.475 154.376 147.503 154.177 147.503H152.996V144.917H154.142V144.922ZM154.116 145.985C154.244 145.985 154.345 145.955 154.418 145.896C154.491 145.837 154.528 145.754 154.528 145.649C154.528 145.548 154.491 145.469 154.418 145.412C154.345 145.355 154.246 145.329 154.116 145.331H153.488V145.985H154.116ZM154.116 147.098C154.274 147.1 154.398 147.069 154.485 147.005C154.574 146.94 154.619 146.851 154.619 146.735C154.619 146.628 154.574 146.541 154.485 146.478C154.396 146.415 154.274 146.385 154.116 146.385H153.488V147.098H154.116Z" fill="url(#paint22_linear_725_14266)"/>
<path d="M157.178 145.56C157.087 145.503 156.994 145.457 156.898 145.42C156.803 145.384 156.714 145.357 156.631 145.341C156.548 145.325 156.471 145.317 156.402 145.317C156.286 145.317 156.193 145.339 156.122 145.384C156.051 145.428 156.017 145.493 156.017 145.58C156.017 145.659 156.041 145.724 156.092 145.773C156.142 145.821 156.209 145.862 156.29 145.894C156.373 145.927 156.463 145.957 156.562 145.988C156.661 146.018 156.758 146.05 156.858 146.085C156.957 146.121 157.046 146.166 157.129 146.223C157.212 146.279 157.277 146.352 157.326 146.441C157.374 146.531 157.399 146.64 157.399 146.774C157.399 146.934 157.356 147.07 157.269 147.183C157.182 147.297 157.064 147.384 156.917 147.445C156.767 147.505 156.598 147.538 156.408 147.538C156.27 147.538 156.134 147.519 156.003 147.485C155.871 147.449 155.747 147.4 155.63 147.339C155.512 147.278 155.407 147.205 155.314 147.124L155.52 146.721C155.61 146.802 155.705 146.873 155.808 146.93C155.911 146.989 156.015 147.031 156.12 147.064C156.226 147.094 156.323 147.11 156.414 147.11C156.554 147.11 156.663 147.084 156.74 147.029C156.817 146.974 156.856 146.899 156.856 146.8C156.856 146.719 156.831 146.654 156.781 146.604C156.73 146.555 156.665 146.512 156.582 146.48C156.499 146.448 156.41 146.417 156.311 146.391C156.211 146.364 156.112 146.334 156.013 146.298C155.914 146.261 155.824 146.217 155.741 146.162C155.658 146.107 155.591 146.036 155.543 145.949C155.492 145.864 155.468 145.753 155.468 145.621C155.468 145.471 155.508 145.341 155.589 145.232C155.67 145.122 155.784 145.037 155.928 144.976C156.072 144.916 156.242 144.885 156.436 144.885C156.609 144.885 156.777 144.91 156.941 144.958C157.105 145.007 157.249 145.074 157.37 145.155L157.178 145.56Z" fill="url(#paint23_linear_725_14266)"/>
<path d="M159.808 144.922C160.136 144.922 160.39 144.999 160.568 145.155C160.748 145.311 160.838 145.528 160.838 145.809C160.838 146.103 160.748 146.33 160.568 146.492C160.388 146.654 160.134 146.736 159.808 146.736H159.028L159.247 146.517V147.506H158.753V144.92H159.808V144.922ZM159.786 146.326C159.97 146.326 160.112 146.284 160.213 146.201C160.315 146.117 160.363 145.99 160.363 145.82C160.363 145.658 160.313 145.536 160.213 145.457C160.114 145.376 159.972 145.337 159.786 145.337H159.028L159.247 145.118V146.545L159.028 146.326H159.786Z" fill="url(#paint24_linear_725_14266)"/>
<path d="M162.264 144.922C162.598 144.922 162.858 144.999 163.04 145.155C163.222 145.311 163.314 145.528 163.314 145.809C163.314 146.103 163.222 146.33 163.04 146.492C162.858 146.654 162.6 146.735 162.264 146.735H161.68V147.507H161.186V144.922H162.264ZM162.264 146.326C162.448 146.326 162.592 146.284 162.694 146.2C162.795 146.117 162.846 145.99 162.846 145.82C162.846 145.657 162.795 145.536 162.694 145.457C162.592 145.376 162.45 145.337 162.264 145.337H161.68V146.326H162.264ZM162.246 146.547H162.73L163.366 147.507H162.805L162.246 146.547Z" fill="url(#paint25_linear_725_14266)"/>
<path d="M164.971 144.894C165.166 144.894 165.346 144.926 165.514 144.993C165.683 145.06 165.828 145.153 165.952 145.275C166.076 145.394 166.173 145.536 166.244 145.694C166.315 145.852 166.349 146.026 166.349 146.213C166.349 146.397 166.315 146.571 166.244 146.733C166.173 146.896 166.076 147.037 165.952 147.159C165.828 147.281 165.683 147.374 165.514 147.441C165.346 147.508 165.166 147.542 164.971 147.542C164.777 147.542 164.596 147.508 164.43 147.441C164.264 147.374 164.118 147.279 163.993 147.159C163.867 147.037 163.77 146.898 163.699 146.735C163.628 146.573 163.593 146.399 163.593 146.213C163.593 146.026 163.628 145.852 163.699 145.692C163.77 145.532 163.867 145.392 163.993 145.272C164.118 145.153 164.264 145.06 164.43 144.993C164.596 144.926 164.777 144.894 164.971 144.894ZM164.979 145.311C164.858 145.311 164.746 145.333 164.639 145.38C164.534 145.424 164.44 145.489 164.357 145.572C164.276 145.655 164.213 145.751 164.167 145.858C164.122 145.965 164.098 146.085 164.098 146.213C164.098 146.34 164.122 146.46 164.169 146.569C164.215 146.679 164.28 146.776 164.361 146.859C164.442 146.942 164.536 147.009 164.643 147.056C164.748 147.102 164.862 147.127 164.979 147.127C165.097 147.127 165.208 147.102 165.314 147.056C165.419 147.009 165.51 146.944 165.589 146.859C165.668 146.776 165.731 146.679 165.776 146.569C165.82 146.46 165.845 146.34 165.845 146.213C165.845 146.085 165.822 145.965 165.776 145.858C165.731 145.749 165.668 145.653 165.589 145.572C165.51 145.489 165.419 145.426 165.314 145.38C165.208 145.333 165.097 145.311 164.979 145.311Z" fill="url(#paint26_linear_725_14266)"/>
<path d="M167.8 144.922C167.997 144.922 168.177 144.954 168.341 145.015C168.505 145.078 168.647 145.167 168.767 145.282C168.886 145.398 168.979 145.536 169.046 145.692C169.113 145.85 169.146 146.022 169.146 146.212C169.146 146.399 169.113 146.571 169.046 146.729C168.979 146.887 168.886 147.023 168.765 147.138C168.645 147.254 168.499 147.343 168.333 147.408C168.165 147.473 167.982 147.503 167.786 147.503H166.726V144.917H167.8V144.922ZM167.812 147.094C167.93 147.094 168.039 147.071 168.14 147.029C168.242 146.986 168.329 146.926 168.404 146.849C168.479 146.772 168.538 146.678 168.582 146.571C168.625 146.464 168.647 146.346 168.647 146.218C168.647 146.089 168.625 145.969 168.58 145.862C168.536 145.754 168.475 145.661 168.4 145.58C168.323 145.501 168.234 145.438 168.13 145.398C168.027 145.355 167.913 145.335 167.79 145.335H167.22V147.094H167.812Z" fill="url(#paint27_linear_725_14266)"/>
<path d="M169.968 146.444C169.968 146.656 170.027 146.823 170.142 146.942C170.258 147.064 170.414 147.122 170.609 147.122C170.801 147.122 170.953 147.064 171.066 146.944C171.18 146.825 171.237 146.658 171.237 146.444V144.922H171.731V146.444C171.731 146.671 171.687 146.865 171.595 147.029C171.506 147.193 171.377 147.319 171.208 147.408C171.04 147.497 170.84 147.542 170.609 147.542C170.373 147.542 170.173 147.497 170.003 147.408C169.832 147.319 169.703 147.193 169.612 147.029C169.52 146.865 169.476 146.671 169.476 146.444V144.922H169.97V146.444H169.968Z" fill="url(#paint28_linear_725_14266)"/>
<path d="M174.126 145.643C174.035 145.54 173.928 145.459 173.802 145.398C173.676 145.337 173.551 145.307 173.425 145.307C173.303 145.307 173.192 145.329 173.087 145.376C172.981 145.422 172.89 145.485 172.809 145.568C172.73 145.651 172.667 145.747 172.623 145.854C172.578 145.963 172.556 146.079 172.556 146.205C172.556 146.33 172.578 146.448 172.623 146.557C172.667 146.667 172.73 146.762 172.809 146.843C172.89 146.924 172.981 146.989 173.087 147.035C173.192 147.082 173.303 147.106 173.425 147.106C173.551 147.106 173.674 147.078 173.798 147.023C173.921 146.969 174.031 146.892 174.126 146.796L174.418 147.102C174.331 147.191 174.231 147.268 174.12 147.335C174.009 147.402 173.891 147.453 173.769 147.489C173.648 147.526 173.524 147.542 173.399 147.542C173.208 147.542 173.032 147.508 172.868 147.441C172.704 147.374 172.562 147.279 172.44 147.159C172.319 147.039 172.223 146.898 172.154 146.733C172.086 146.571 172.051 146.397 172.051 146.213C172.051 146.026 172.086 145.852 172.154 145.694C172.223 145.536 172.321 145.396 172.446 145.275C172.572 145.153 172.716 145.06 172.88 144.993C173.044 144.926 173.222 144.894 173.417 144.894C173.543 144.894 173.664 144.91 173.784 144.944C173.903 144.977 174.017 145.025 174.126 145.084C174.236 145.145 174.331 145.218 174.414 145.303L174.126 145.643Z" fill="url(#paint29_linear_725_14266)"/>
<path d="M174.479 144.922H176.588V145.339H175.784V147.507H175.285V145.339H174.481V144.922H174.479Z" fill="url(#paint30_linear_725_14266)"/>
<path d="M178.505 145.56C178.414 145.503 178.321 145.457 178.225 145.42C178.13 145.384 178.041 145.357 177.958 145.341C177.875 145.325 177.798 145.317 177.729 145.317C177.613 145.317 177.52 145.339 177.449 145.384C177.378 145.428 177.344 145.493 177.344 145.58C177.344 145.659 177.368 145.724 177.419 145.773C177.47 145.821 177.536 145.862 177.617 145.894C177.701 145.927 177.79 145.957 177.889 145.988C177.988 146.018 178.086 146.05 178.185 146.085C178.284 146.121 178.373 146.166 178.456 146.223C178.539 146.279 178.604 146.352 178.653 146.441C178.702 146.531 178.726 146.64 178.726 146.774C178.726 146.934 178.683 147.07 178.596 147.183C178.509 147.297 178.391 147.384 178.244 147.445C178.094 147.505 177.925 147.538 177.735 147.538C177.597 147.538 177.461 147.519 177.33 147.485C177.198 147.449 177.074 147.4 176.957 147.339C176.839 147.278 176.734 147.205 176.641 147.124L176.847 146.721C176.937 146.802 177.032 146.873 177.135 146.93C177.239 146.989 177.342 147.031 177.447 147.064C177.553 147.094 177.65 147.11 177.741 147.11C177.881 147.11 177.99 147.084 178.067 147.029C178.144 146.974 178.183 146.899 178.183 146.8C178.183 146.719 178.158 146.654 178.108 146.604C178.057 146.555 177.992 146.512 177.909 146.48C177.826 146.448 177.737 146.417 177.638 146.391C177.538 146.364 177.439 146.334 177.34 146.298C177.241 146.261 177.151 146.217 177.068 146.162C176.985 146.107 176.918 146.036 176.87 145.949C176.819 145.864 176.795 145.753 176.795 145.621C176.795 145.471 176.835 145.341 176.916 145.232C176.997 145.122 177.111 145.037 177.255 144.976C177.399 144.916 177.569 144.885 177.763 144.885C177.936 144.885 178.104 144.91 178.268 144.958C178.432 145.007 178.576 145.074 178.697 145.155L178.505 145.56Z" fill="url(#paint31_linear_725_14266)"/>
<path d="M181.158 146.934C181.556 146.934 181.879 146.611 181.879 146.213C181.879 145.814 181.556 145.491 181.158 145.491C180.759 145.491 180.436 145.814 180.436 146.213C180.436 146.611 180.759 146.934 181.158 146.934Z" fill="url(#paint32_linear_725_14266)"/>
<path d="M124.382 146.934C124.78 146.934 125.103 146.611 125.103 146.213C125.103 145.814 124.78 145.491 124.382 145.491C123.984 145.491 123.661 145.814 123.661 146.213C123.661 146.611 123.984 146.934 124.382 146.934Z" fill="url(#paint33_linear_725_14266)"/>
<path d="M196.154 159.827V163.377C196.154 167.73 192.626 171.258 188.274 171.258H180.136C174.495 175.598 164.262 178.5 152.576 178.5C140.89 178.5 130.659 175.598 125.018 171.258H116.878C112.528 171.258 109 167.73 109 163.377V159.827C109 164.18 112.528 167.708 116.878 167.708H125.018C130.659 172.048 140.89 174.95 152.576 174.95C163.632 174.95 173.386 172.352 179.184 168.397H179.115C158.146 151.183 133.365 165.456 132.88 165.738C162.266 146.33 182.805 167.604 182.805 167.604V167.708H188.274C192.628 167.708 196.154 164.178 196.154 159.827Z" fill="url(#paint34_linear_725_14266)"/>
<path fill-rule="evenodd" clip-rule="evenodd" d="M0.000976562 157.5C15.9232 226.696 77.9014 278.296 151.931 278.296C225.961 278.296 287.94 226.696 303.862 157.5H272.067C256.93 209.5 208.919 247.5 152.033 247.5C95.1471 247.5 47.1363 209.5 31.9994 157.5H0.000976562Z" fill="#153D1F"/>
<defs>
<filter id="filter0_d_725_14266" x="27" y="0.5" width="250" height="250" filterUnits="userSpaceOnUse" color-interpolation-filters="sRGB">
<feFlood flood-opacity="0" result="BackgroundImageFix"/>
<feColorMatrix in="SourceAlpha" type="matrix" values="0 0 0 0 0 0 0 0 0 0 0 0 0 0 0 0 0 0 127 0" result="hardAlpha"/>
<feMorphology radius="2" operator="dilate" in="SourceAlpha" result="effect1_dropShadow_725_14266"/>
<feOffset/>
<feGaussianBlur stdDeviation="9"/>
<feComposite in2="hardAlpha" operator="out"/>
<feColorMatrix type="matrix" values="0 0 0 0 0 0 0 0 0 0 0 0 0 0 0 0 0 0 0.12 0"/>
<feBlend mode="normal" in2="BackgroundImageFix" result="effect1_dropShadow_725_14266"/>
<feBlend mode="normal" in="SourceGraphic" in2="effect1_dropShadow_725_14266" result="shape"/>
</filter>
<linearGradient id="paint0_linear_725_14266" x1="136.745" y1="71.2609" x2="190.291" y2="122.945" gradientUnits="userSpaceOnUse">
<stop stop-color="#CE9F41"/>
<stop offset="0.1229" stop-color="#D3AB43"/>
<stop offset="0.2514" stop-color="#F6ECDF"/>
<stop offset="0.3547" stop-color="#D3AB43"/>
<stop offset="0.5168" stop-color="#CE9F41"/>
<stop offset="0.6844" stop-color="#F6ECDF"/>
<stop offset="0.8464" stop-color="#CE9F41"/>
<stop offset="0.9888" stop-color="#CE9F41"/>
</linearGradient>
<linearGradient id="paint1_linear_725_14266" x1="120.112" y1="88.4925" x2="173.659" y2="140.177" gradientUnits="userSpaceOnUse">
<stop stop-color="#CE9F41"/>
<stop offset="0.1229" stop-color="#D3AB43"/>
<stop offset="0.2514" stop-color="#F6ECDF"/>
<stop offset="0.3547" stop-color="#D3AB43"/>
<stop offset="0.5168" stop-color="#CE9F41"/>
<stop offset="0.6844" stop-color="#F6ECDF"/>
<stop offset="0.8464" stop-color="#CE9F41"/>
<stop offset="0.9888" stop-color="#CE9F41"/>
</linearGradient>
<linearGradient id="paint2_linear_725_14266" x1="135.773" y1="72.2675" x2="189.32" y2="123.952" gradientUnits="userSpaceOnUse">
<stop stop-color="#CE9F41"/>
<stop offset="0.1229" stop-color="#D3AB43"/>
<stop offset="0.2514" stop-color="#F6ECDF"/>
<stop offset="0.3547" stop-color="#D3AB43"/>
<stop offset="0.5168" stop-color="#CE9F41"/>
<stop offset="0.6844" stop-color="#F6ECDF"/>
<stop offset="0.8464" stop-color="#CE9F41"/>
<stop offset="0.9888" stop-color="#CE9F41"/>
</linearGradient>
<linearGradient id="paint3_linear_725_14266" x1="141.798" y1="66.0253" x2="195.345" y2="117.709" gradientUnits="userSpaceOnUse">
<stop stop-color="#CE9F41"/>
<stop offset="0.1229" stop-color="#D3AB43"/>
<stop offset="0.2514" stop-color="#F6ECDF"/>
<stop offset="0.3547" stop-color="#D3AB43"/>
<stop offset="0.5168" stop-color="#CE9F41"/>
<stop offset="0.6844" stop-color="#F6ECDF"/>
<stop offset="0.8464" stop-color="#CE9F41"/>
<stop offset="0.9888" stop-color="#CE9F41"/>
</linearGradient>
<linearGradient id="paint4_linear_725_14266" x1="121.124" y1="87.445" x2="174.67" y2="139.129" gradientUnits="userSpaceOnUse">
<stop stop-color="#CE9F41"/>
<stop offset="0.1229" stop-color="#D3AB43"/>
<stop offset="0.2514" stop-color="#F6ECDF"/>
<stop offset="0.3547" stop-color="#D3AB43"/>
<stop offset="0.5168" stop-color="#CE9F41"/>
<stop offset="0.6844" stop-color="#F6ECDF"/>
<stop offset="0.8464" stop-color="#CE9F41"/>
<stop offset="0.9888" stop-color="#CE9F41"/>
</linearGradient>
<linearGradient id="paint5_linear_725_14266" x1="117.455" y1="91.2457" x2="171.001" y2="142.93" gradientUnits="userSpaceOnUse">
<stop stop-color="#CE9F41"/>
<stop offset="0.1229" stop-color="#D3AB43"/>
<stop offset="0.2514" stop-color="#F6ECDF"/>
<stop offset="0.3547" stop-color="#D3AB43"/>
<stop offset="0.5168" stop-color="#CE9F41"/>
<stop offset="0.6844" stop-color="#F6ECDF"/>
<stop offset="0.8464" stop-color="#CE9F41"/>
<stop offset="0.9888" stop-color="#CE9F41"/>
</linearGradient>
<linearGradient id="paint6_linear_725_14266" x1="123.898" y1="84.5705" x2="177.445" y2="136.255" gradientUnits="userSpaceOnUse">
<stop stop-color="#CE9F41"/>
<stop offset="0.1229" stop-color="#D3AB43"/>
<stop offset="0.2514" stop-color="#F6ECDF"/>
<stop offset="0.3547" stop-color="#D3AB43"/>
<stop offset="0.5168" stop-color="#CE9F41"/>
<stop offset="0.6844" stop-color="#F6ECDF"/>
<stop offset="0.8464" stop-color="#CE9F41"/>
<stop offset="0.9888" stop-color="#CE9F41"/>
</linearGradient>
<linearGradient id="paint7_linear_725_14266" x1="134.29" y1="73.8042" x2="187.836" y2="125.488" gradientUnits="userSpaceOnUse">
<stop stop-color="#CE9F41"/>
<stop offset="0.1229" stop-color="#D3AB43"/>
<stop offset="0.2514" stop-color="#F6ECDF"/>
<stop offset="0.3547" stop-color="#D3AB43"/>
<stop offset="0.5168" stop-color="#CE9F41"/>
<stop offset="0.6844" stop-color="#F6ECDF"/>
<stop offset="0.8464" stop-color="#CE9F41"/>
<stop offset="0.9888" stop-color="#CE9F41"/>
</linearGradient>
<linearGradient id="paint8_linear_725_14266" x1="118.999" y1="89.6457" x2="172.546" y2="141.33" gradientUnits="userSpaceOnUse">
<stop stop-color="#CE9F41"/>
<stop offset="0.1229" stop-color="#D3AB43"/>
<stop offset="0.2514" stop-color="#F6ECDF"/>
<stop offset="0.3547" stop-color="#D3AB43"/>
<stop offset="0.5168" stop-color="#CE9F41"/>
<stop offset="0.6844" stop-color="#F6ECDF"/>
<stop offset="0.8464" stop-color="#CE9F41"/>
<stop offset="0.9888" stop-color="#CE9F41"/>
</linearGradient>
<linearGradient id="paint9_linear_725_14266" x1="141.56" y1="66.2729" x2="195.106" y2="117.957" gradientUnits="userSpaceOnUse">
<stop stop-color="#CE9F41"/>
<stop offset="0.1229" stop-color="#D3AB43"/>
<stop offset="0.2514" stop-color="#F6ECDF"/>
<stop offset="0.3547" stop-color="#D3AB43"/>
<stop offset="0.5168" stop-color="#CE9F41"/>
<stop offset="0.6844" stop-color="#F6ECDF"/>
<stop offset="0.8464" stop-color="#CE9F41"/>
<stop offset="0.9888" stop-color="#CE9F41"/>
</linearGradient>
<linearGradient id="paint10_linear_725_14266" x1="115.213" y1="93.568" x2="168.76" y2="145.252" gradientUnits="userSpaceOnUse">
<stop stop-color="#CE9F41"/>
<stop offset="0.1229" stop-color="#D3AB43"/>
<stop offset="0.2514" stop-color="#F6ECDF"/>
<stop offset="0.3547" stop-color="#D3AB43"/>
<stop offset="0.5168" stop-color="#CE9F41"/>
<stop offset="0.6844" stop-color="#F6ECDF"/>
<stop offset="0.8464" stop-color="#CE9F41"/>
<stop offset="0.9888" stop-color="#CE9F41"/>
</linearGradient>
<linearGradient id="paint11_linear_725_14266" x1="116.373" y1="92.3663" x2="169.92" y2="144.05" gradientUnits="userSpaceOnUse">
<stop stop-color="#CE9F41"/>
<stop offset="0.1229" stop-color="#D3AB43"/>
<stop offset="0.2514" stop-color="#F6ECDF"/>
<stop offset="0.3547" stop-color="#D3AB43"/>
<stop offset="0.5168" stop-color="#CE9F41"/>
<stop offset="0.6844" stop-color="#F6ECDF"/>
<stop offset="0.8464" stop-color="#CE9F41"/>
<stop offset="0.9888" stop-color="#CE9F41"/>
</linearGradient>
<linearGradient id="paint12_linear_725_14266" x1="123.607" y1="146.238" x2="182.275" y2="145.927" gradientUnits="userSpaceOnUse">
<stop stop-color="#CE9F41"/>
<stop offset="0.1229" stop-color="#D3AB43"/>
<stop offset="0.2514" stop-color="#F6ECDF"/>
<stop offset="0.3547" stop-color="#D3AB43"/>
<stop offset="0.5168" stop-color="#CE9F41"/>
<stop offset="0.6844" stop-color="#F6ECDF"/>
<stop offset="0.8464" stop-color="#CE9F41"/>
<stop offset="0.9888" stop-color="#CE9F41"/>
</linearGradient>
<linearGradient id="paint13_linear_725_14266" x1="123.607" y1="146.256" x2="182.276" y2="145.945" gradientUnits="userSpaceOnUse">
<stop stop-color="#CE9F41"/>
<stop offset="0.1229" stop-color="#D3AB43"/>
<stop offset="0.2514" stop-color="#F6ECDF"/>
<stop offset="0.3547" stop-color="#D3AB43"/>
<stop offset="0.5168" stop-color="#CE9F41"/>
<stop offset="0.6844" stop-color="#F6ECDF"/>
<stop offset="0.8464" stop-color="#CE9F41"/>
<stop offset="0.9888" stop-color="#CE9F41"/>
</linearGradient>
<linearGradient id="paint14_linear_725_14266" x1="123.607" y1="146.262" x2="182.276" y2="145.951" gradientUnits="userSpaceOnUse">
<stop stop-color="#CE9F41"/>
<stop offset="0.1229" stop-color="#D3AB43"/>
<stop offset="0.2514" stop-color="#F6ECDF"/>
<stop offset="0.3547" stop-color="#D3AB43"/>
<stop offset="0.5168" stop-color="#CE9F41"/>
<stop offset="0.6844" stop-color="#F6ECDF"/>
<stop offset="0.8464" stop-color="#CE9F41"/>
<stop offset="0.9888" stop-color="#CE9F41"/>
</linearGradient>
<linearGradient id="paint15_linear_725_14266" x1="123.607" y1="146.29" x2="182.276" y2="145.98" gradientUnits="userSpaceOnUse">
<stop stop-color="#CE9F41"/>
<stop offset="0.1229" stop-color="#D3AB43"/>
<stop offset="0.2514" stop-color="#F6ECDF"/>
<stop offset="0.3547" stop-color="#D3AB43"/>
<stop offset="0.5168" stop-color="#CE9F41"/>
<stop offset="0.6844" stop-color="#F6ECDF"/>
<stop offset="0.8464" stop-color="#CE9F41"/>
<stop offset="0.9888" stop-color="#CE9F41"/>
</linearGradient>
<linearGradient id="paint16_linear_725_14266" x1="123.607" y1="146.291" x2="182.276" y2="145.981" gradientUnits="userSpaceOnUse">
<stop stop-color="#CE9F41"/>
<stop offset="0.1229" stop-color="#D3AB43"/>
<stop offset="0.2514" stop-color="#F6ECDF"/>
<stop offset="0.3547" stop-color="#D3AB43"/>
<stop offset="0.5168" stop-color="#CE9F41"/>
<stop offset="0.6844" stop-color="#F6ECDF"/>
<stop offset="0.8464" stop-color="#CE9F41"/>
<stop offset="0.9888" stop-color="#CE9F41"/>
</linearGradient>
<linearGradient id="paint17_linear_725_14266" x1="123.607" y1="146.308" x2="182.276" y2="145.997" gradientUnits="userSpaceOnUse">
<stop stop-color="#CE9F41"/>
<stop offset="0.1229" stop-color="#D3AB43"/>
<stop offset="0.2514" stop-color="#F6ECDF"/>
<stop offset="0.3547" stop-color="#D3AB43"/>
<stop offset="0.5168" stop-color="#CE9F41"/>
<stop offset="0.6844" stop-color="#F6ECDF"/>
<stop offset="0.8464" stop-color="#CE9F41"/>
<stop offset="0.9888" stop-color="#CE9F41"/>
</linearGradient>
<linearGradient id="paint18_linear_725_14266" x1="123.607" y1="146.318" x2="182.276" y2="146.007" gradientUnits="userSpaceOnUse">
<stop stop-color="#CE9F41"/>
<stop offset="0.1229" stop-color="#D3AB43"/>
<stop offset="0.2514" stop-color="#F6ECDF"/>
<stop offset="0.3547" stop-color="#D3AB43"/>
<stop offset="0.5168" stop-color="#CE9F41"/>
<stop offset="0.6844" stop-color="#F6ECDF"/>
<stop offset="0.8464" stop-color="#CE9F41"/>
<stop offset="0.9888" stop-color="#CE9F41"/>
</linearGradient>
<linearGradient id="paint19_linear_725_14266" x1="123.607" y1="146.335" x2="182.276" y2="146.024" gradientUnits="userSpaceOnUse">
<stop stop-color="#CE9F41"/>
<stop offset="0.1229" stop-color="#D3AB43"/>
<stop offset="0.2514" stop-color="#F6ECDF"/>
<stop offset="0.3547" stop-color="#D3AB43"/>
<stop offset="0.5168" stop-color="#CE9F41"/>
<stop offset="0.6844" stop-color="#F6ECDF"/>
<stop offset="0.8464" stop-color="#CE9F41"/>
<stop offset="0.9888" stop-color="#CE9F41"/>
</linearGradient>
<linearGradient id="paint20_linear_725_14266" x1="123.608" y1="146.349" x2="182.276" y2="146.039" gradientUnits="userSpaceOnUse">
<stop stop-color="#CE9F41"/>
<stop offset="0.1229" stop-color="#D3AB43"/>
<stop offset="0.2514" stop-color="#F6ECDF"/>
<stop offset="0.3547" stop-color="#D3AB43"/>
<stop offset="0.5168" stop-color="#CE9F41"/>
<stop offset="0.6844" stop-color="#F6ECDF"/>
<stop offset="0.8464" stop-color="#CE9F41"/>
<stop offset="0.9888" stop-color="#CE9F41"/>
</linearGradient>
<linearGradient id="paint21_linear_725_14266" x1="123.608" y1="146.362" x2="182.276" y2="146.052" gradientUnits="userSpaceOnUse">
<stop stop-color="#CE9F41"/>
<stop offset="0.1229" stop-color="#D3AB43"/>
<stop offset="0.2514" stop-color="#F6ECDF"/>
<stop offset="0.3547" stop-color="#D3AB43"/>
<stop offset="0.5168" stop-color="#CE9F41"/>
<stop offset="0.6844" stop-color="#F6ECDF"/>
<stop offset="0.8464" stop-color="#CE9F41"/>
<stop offset="0.9888" stop-color="#CE9F41"/>
</linearGradient>
<linearGradient id="paint22_linear_725_14266" x1="123.608" y1="146.373" x2="182.276" y2="146.063" gradientUnits="userSpaceOnUse">
<stop stop-color="#CE9F41"/>
<stop offset="0.1229" stop-color="#D3AB43"/>
<stop offset="0.2514" stop-color="#F6ECDF"/>
<stop offset="0.3547" stop-color="#D3AB43"/>
<stop offset="0.5168" stop-color="#CE9F41"/>
<stop offset="0.6844" stop-color="#F6ECDF"/>
<stop offset="0.8464" stop-color="#CE9F41"/>
<stop offset="0.9888" stop-color="#CE9F41"/>
</linearGradient>
<linearGradient id="paint23_linear_725_14266" x1="123.608" y1="146.385" x2="182.276" y2="146.074" gradientUnits="userSpaceOnUse">
<stop stop-color="#CE9F41"/>
<stop offset="0.1229" stop-color="#D3AB43"/>
<stop offset="0.2514" stop-color="#F6ECDF"/>
<stop offset="0.3547" stop-color="#D3AB43"/>
<stop offset="0.5168" stop-color="#CE9F41"/>
<stop offset="0.6844" stop-color="#F6ECDF"/>
<stop offset="0.8464" stop-color="#CE9F41"/>
<stop offset="0.9888" stop-color="#CE9F41"/>
</linearGradient>
<linearGradient id="paint24_linear_725_14266" x1="123.608" y1="146.402" x2="182.276" y2="146.092" gradientUnits="userSpaceOnUse">
<stop stop-color="#CE9F41"/>
<stop offset="0.1229" stop-color="#D3AB43"/>
<stop offset="0.2514" stop-color="#F6ECDF"/>
<stop offset="0.3547" stop-color="#D3AB43"/>
<stop offset="0.5168" stop-color="#CE9F41"/>
<stop offset="0.6844" stop-color="#F6ECDF"/>
<stop offset="0.8464" stop-color="#CE9F41"/>
<stop offset="0.9888" stop-color="#CE9F41"/>
</linearGradient>
<linearGradient id="paint25_linear_725_14266" x1="123.608" y1="146.419" x2="182.276" y2="146.109" gradientUnits="userSpaceOnUse">
<stop stop-color="#CE9F41"/>
<stop offset="0.1229" stop-color="#D3AB43"/>
<stop offset="0.2514" stop-color="#F6ECDF"/>
<stop offset="0.3547" stop-color="#D3AB43"/>
<stop offset="0.5168" stop-color="#CE9F41"/>
<stop offset="0.6844" stop-color="#F6ECDF"/>
<stop offset="0.8464" stop-color="#CE9F41"/>
<stop offset="0.9888" stop-color="#CE9F41"/>
</linearGradient>
<linearGradient id="paint26_linear_725_14266" x1="123.608" y1="146.436" x2="182.277" y2="146.125" gradientUnits="userSpaceOnUse">
<stop stop-color="#CE9F41"/>
<stop offset="0.1229" stop-color="#D3AB43"/>
<stop offset="0.2514" stop-color="#F6ECDF"/>
<stop offset="0.3547" stop-color="#D3AB43"/>
<stop offset="0.5168" stop-color="#CE9F41"/>
<stop offset="0.6844" stop-color="#F6ECDF"/>
<stop offset="0.8464" stop-color="#CE9F41"/>
<stop offset="0.9888" stop-color="#CE9F41"/>
</linearGradient>
<linearGradient id="paint27_linear_725_14266" x1="123.608" y1="146.445" x2="182.277" y2="146.135" gradientUnits="userSpaceOnUse">
<stop stop-color="#CE9F41"/>
<stop offset="0.1229" stop-color="#D3AB43"/>
<stop offset="0.2514" stop-color="#F6ECDF"/>
<stop offset="0.3546" stop-color="#D5AE4A"/>
<stop offset="0.3547" stop-color="#D3AB43"/>
<stop offset="0.5168" stop-color="#CE9F41"/>
<stop offset="0.6844" stop-color="#F6ECDF"/>
<stop offset="0.8464" stop-color="#CE9F41"/>
<stop offset="0.9888" stop-color="#CE9F41"/>
</linearGradient>
<linearGradient id="paint28_linear_725_14266" x1="123.608" y1="146.477" x2="182.277" y2="146.167" gradientUnits="userSpaceOnUse">
<stop stop-color="#CE9F41"/>
<stop offset="0.1229" stop-color="#D3AB43"/>
<stop offset="0.2514" stop-color="#F6ECDF"/>
<stop offset="0.3547" stop-color="#D3AB43"/>
<stop offset="0.5168" stop-color="#CE9F41"/>
<stop offset="0.6844" stop-color="#F6ECDF"/>
<stop offset="0.8464" stop-color="#CE9F41"/>
<stop offset="0.9888" stop-color="#CE9F41"/>
</linearGradient>
<linearGradient id="paint29_linear_725_14266" x1="123.608" y1="146.48" x2="182.277" y2="146.17" gradientUnits="userSpaceOnUse">
<stop stop-color="#CE9F41"/>
<stop offset="0.1229" stop-color="#D3AB43"/>
<stop offset="0.2514" stop-color="#F6ECDF"/>
<stop offset="0.3547" stop-color="#D3AB43"/>
<stop offset="0.5168" stop-color="#CE9F41"/>
<stop offset="0.6844" stop-color="#F6ECDF"/>
<stop offset="0.8464" stop-color="#CE9F41"/>
<stop offset="0.9888" stop-color="#CE9F41"/>
</linearGradient>
<linearGradient id="paint30_linear_725_14266" x1="123.608" y1="146.487" x2="182.277" y2="146.177" gradientUnits="userSpaceOnUse">
<stop stop-color="#CE9F41"/>
<stop offset="0.1229" stop-color="#D3AB43"/>
<stop offset="0.2514" stop-color="#F6ECDF"/>
<stop offset="0.3547" stop-color="#D3AB43"/>
<stop offset="0.5168" stop-color="#CE9F41"/>
<stop offset="0.6844" stop-color="#F6ECDF"/>
<stop offset="0.8464" stop-color="#CE9F41"/>
<stop offset="0.9888" stop-color="#CE9F41"/>
</linearGradient>
<linearGradient id="paint31_linear_725_14266" x1="123.608" y1="146.498" x2="182.277" y2="146.187" gradientUnits="userSpaceOnUse">
<stop stop-color="#CE9F41"/>
<stop offset="0.1229" stop-color="#D3AB43"/>
<stop offset="0.2514" stop-color="#F6ECDF"/>
<stop offset="0.3547" stop-color="#D3AB43"/>
<stop offset="0.5168" stop-color="#CE9F41"/>
<stop offset="0.6844" stop-color="#F6ECDF"/>
<stop offset="0.8464" stop-color="#CE9F41"/>
<stop offset="0.9888" stop-color="#CE9F41"/>
</linearGradient>
<linearGradient id="paint32_linear_725_14266" x1="124.418" y1="146.513" x2="183.086" y2="146.203" gradientUnits="userSpaceOnUse">
<stop stop-color="#CE9F41"/>
<stop offset="0.1229" stop-color="#D3AB43"/>
<stop offset="0.2514" stop-color="#F6ECDF"/>
<stop offset="0.3547" stop-color="#D3AB43"/>
<stop offset="0.5168" stop-color="#CE9F41"/>
<stop offset="0.6844" stop-color="#F6ECDF"/>
<stop offset="0.8464" stop-color="#CE9F41"/>
<stop offset="0.9888" stop-color="#CE9F41"/>
</linearGradient>
<linearGradient id="paint33_linear_725_14266" x1="122.798" y1="146.221" x2="181.466" y2="145.911" gradientUnits="userSpaceOnUse">
<stop stop-color="#CE9F41"/>
<stop offset="0.1229" stop-color="#D3AB43"/>
<stop offset="0.2514" stop-color="#F6ECDF"/>
<stop offset="0.3547" stop-color="#D3AB43"/>
<stop offset="0.5168" stop-color="#CE9F41"/>
<stop offset="0.6844" stop-color="#F6ECDF"/>
<stop offset="0.8464" stop-color="#CE9F41"/>
<stop offset="0.9888" stop-color="#CE9F41"/>
</linearGradient>
<linearGradient id="paint34_linear_725_14266" x1="111.928" y1="168.034" x2="216.435" y2="168.034" gradientUnits="userSpaceOnUse">
<stop stop-color="#CE9F41"/>
<stop offset="0.1229" stop-color="#D3AB43"/>
<stop offset="0.2407" stop-color="#F6ECDF"/>
<stop offset="0.3209" stop-color="#D3AB43"/>
<stop offset="0.3863" stop-color="#AE782B"/>
<stop offset="0.5168" stop-color="#CE9F41"/>
<stop offset="0.6844" stop-color="#F6ECDF"/>
<stop offset="0.8464" stop-color="#CE9F41"/>
<stop offset="0.9888" stop-color="#CE9F41"/>
</linearGradient>
</defs>
</svg>
