<svg width="304" height="278" viewBox="0 0 304 278" fill="none" xmlns="http://www.w3.org/2000/svg">
<g filter="url(#filter0_d_725_14221)">
<circle cx="152" cy="152.5" r="105" fill="white"/>
</g>
<path d="M112.554 142.505C110.685 142.505 109.166 142.666 107.771 142.97C104.244 143.735 101.467 144.981 99.5902 146.055C99.211 146.273 99.0129 146.703 99.1058 147.129C99.348 148.227 99.7566 149.575 100.478 151.026C101.07 152.22 101.733 153.199 102.34 153.969C102.629 154.336 103.138 154.449 103.556 154.243C106.697 152.712 107.771 152.11 110.783 151.922C115.116 151.647 115.03 152.991 115.03 156.247C106.548 156.724 98 160.634 98 167.21C98 173.529 99.9425 177.49 107.348 177.49C112.009 177.49 113.506 175.968 115.74 173.096V175.716C115.74 176.105 115.896 176.458 116.151 176.712C116.554 177.116 117.053 177.125 117.146 177.125C118.267 177.211 119.471 177.265 120.753 177.265C122.052 177.267 123.275 177.214 124.408 177.125C125.186 177.125 125.817 176.494 125.817 175.716V155.016C125.753 147.102 122.064 142.505 112.554 142.505ZM115.03 164.086C115.03 165.575 114.282 166.97 113.029 167.772C113.014 167.78 113.002 167.79 112.99 167.797C112.168 168.32 111.17 168.541 110.218 168.333C109.408 168.157 108.701 167.679 108.701 166.559C108.701 164.132 110.208 163.43 113.489 162.985L115.03 162.804V164.086Z" fill="url(#paint0_linear_725_14221)"/>
<path d="M165.91 143.413C165.761 143.173 165.553 143.036 165.367 142.963C165.14 142.867 164.941 142.865 164.919 142.865C163.909 142.677 162.7 142.527 161.338 142.505C159.689 142.478 158.25 142.647 157.088 142.865C156.083 142.865 155.173 143.459 154.769 144.379L148.158 159.479L141.607 144.387C140.087 142.894 139.51 142.865 139.285 142.865C138.162 142.664 136.804 142.508 135.26 142.505C133.677 142.503 132.29 142.662 131.148 142.865C130.284 142.865 129.719 143.773 130.106 144.548L146.052 176.646C146.309 177.163 146.837 177.49 147.412 177.49H148.817C149.394 177.49 149.922 177.16 150.179 176.641L164.614 147.293L165.967 144.543C166.157 144.157 166.111 143.736 165.91 143.413Z" fill="url(#paint1_linear_725_14221)"/>
<path d="M176.452 133.541C176.452 137.111 173.707 139.709 170.003 139.709C166.231 139.709 163.554 137.113 163.554 133.541C163.554 129.906 166.231 127.374 170.003 127.374C173.707 127.374 176.452 129.906 176.452 133.541Z" fill="url(#paint2_linear_725_14221)"/>
<path d="M175.393 144.289V175.719C175.393 176.404 174.857 176.971 174.172 177.006C172.814 177.074 171.393 177.111 169.913 177.111C168.499 177.108 167.138 177.072 165.834 177.006C165.149 176.971 164.614 176.404 164.614 175.719V144.289C164.614 143.469 165.255 142.791 166.072 142.755C167.4 142.693 168.785 142.659 170.223 142.664C171.503 142.666 172.741 142.701 173.932 142.755C174.752 142.791 175.393 143.469 175.393 144.289Z" fill="url(#paint3_linear_725_14221)"/>
<path d="M191.08 142.706C181.822 142.706 175.633 149.69 175.633 160.259C175.633 170.642 181.605 177.5 191.298 177.5C194.038 177.5 196.573 177.236 198.853 176.587C201.174 175.927 202.936 174.821 204.171 173.913C204.609 173.59 204.827 173.047 204.717 172.514C204.499 171.472 204.154 170.253 203.594 168.942C203.215 168.049 202.796 167.259 202.381 166.576C201.994 165.933 201.155 165.722 200.507 166.104C198.075 167.538 195.127 168.193 192.944 168.193C189.605 168.193 187.129 166.931 186.199 163.092H204.688C205.451 163.092 206.067 162.476 206.082 161.715C206.288 150.109 201.042 142.706 191.08 142.706ZM185.918 156.7C185.918 156.7 186.26 151.577 191.07 151.577C195.88 151.577 195.976 156.7 195.976 156.7H185.918Z" fill="url(#paint4_linear_725_14221)"/>
<path d="M99.9155 126.5C99.9155 126.5 100.96 130.199 109.966 129.458C110.325 129.428 110.688 129.431 111.042 129.497C115.461 130.329 117.249 135.503 117.489 137.617C117.489 137.617 114.01 130.83 106.516 131.288C106.516 131.288 115.365 132.89 116.459 138.351C116.459 138.351 114.289 137.585 112.336 137.977C110.384 138.368 105.435 139.241 102.499 136.306C99.5632 133.37 99.9155 126.5 99.9155 126.5Z" fill="url(#paint5_linear_725_14221)"/>
<path fill-rule="evenodd" clip-rule="evenodd" d="M304 121.296C288.078 52.1003 226.1 0.500176 152.07 0.50017C78.0396 0.500163 16.0614 52.1003 0.13916 121.296L31.9338 121.296C47.0707 69.296 95.0816 31.2965 151.968 31.2965C208.854 31.2965 256.865 69.296 272.001 121.296L304 121.296Z" fill="#2B3888"/>
<defs>
<filter id="filter0_d_725_14221" x="27" y="27.5" width="250" height="250" filterUnits="userSpaceOnUse" color-interpolation-filters="sRGB">
<feFlood flood-opacity="0" result="BackgroundImageFix"/>
<feColorMatrix in="SourceAlpha" type="matrix" values="0 0 0 0 0 0 0 0 0 0 0 0 0 0 0 0 0 0 127 0" result="hardAlpha"/>
<feMorphology radius="2" operator="dilate" in="SourceAlpha" result="effect1_dropShadow_725_14221"/>
<feOffset/>
<feGaussianBlur stdDeviation="9"/>
<feComposite in2="hardAlpha" operator="out"/>
<feColorMatrix type="matrix" values="0 0 0 0 0 0 0 0 0 0 0 0 0 0 0 0 0 0 0.12 0"/>
<feBlend mode="normal" in2="BackgroundImageFix" result="effect1_dropShadow_725_14221"/>
<feBlend mode="normal" in="SourceGraphic" in2="effect1_dropShadow_725_14221" result="shape"/>
</filter>
<linearGradient id="paint0_linear_725_14221" x1="97.9995" y1="159.998" x2="125.816" y2="159.998" gradientUnits="userSpaceOnUse">
<stop stop-color="#2B3888"/>
<stop offset="1" stop-color="#282B66"/>
</linearGradient>
<linearGradient id="paint1_linear_725_14221" x1="129.981" y1="159.997" x2="166.087" y2="159.997" gradientUnits="userSpaceOnUse">
<stop stop-color="#2B3888"/>
<stop offset="1" stop-color="#282B66"/>
</linearGradient>
<linearGradient id="paint2_linear_725_14221" x1="163.554" y1="133.54" x2="176.453" y2="133.54" gradientUnits="userSpaceOnUse">
<stop stop-color="#2B3888"/>
<stop offset="1" stop-color="#282B66"/>
</linearGradient>
<linearGradient id="paint3_linear_725_14221" x1="164.614" y1="159.886" x2="175.393" y2="159.886" gradientUnits="userSpaceOnUse">
<stop stop-color="#2B3888"/>
<stop offset="1" stop-color="#282B66"/>
</linearGradient>
<linearGradient id="paint4_linear_725_14221" x1="175.632" y1="160.104" x2="206.087" y2="160.104" gradientUnits="userSpaceOnUse">
<stop stop-color="#2B3888"/>
<stop offset="1" stop-color="#282B66"/>
</linearGradient>
<linearGradient id="paint5_linear_725_14221" x1="99.9011" y1="132.453" x2="117.488" y2="132.453" gradientUnits="userSpaceOnUse">
<stop stop-color="#87A43E"/>
<stop offset="1" stop-color="#71903D"/>
</linearGradient>
</defs>
</svg>
