<svg width="304" height="279" viewBox="0 0 304 279" fill="none" xmlns="http://www.w3.org/2000/svg">
<g filter="url(#filter0_d_725_14183)">
<circle cx="152" cy="125.5" r="105" fill="white"/>
</g>
<path d="M157.373 93.5404C156.32 92.1719 154.092 91.7075 152.325 91.5853C152.343 91.4509 152.356 91.3104 152.356 91.1638C152.356 89.6975 151.155 88.5 149.684 88.5H149.468C147.997 88.5 146.797 89.6914 146.797 91.1638C146.797 91.3104 146.809 91.4448 146.827 91.5853C145.061 91.7136 142.832 92.1719 141.779 93.5404C141.318 94.1453 140.881 95.1961 141.453 96.7785C141.712 97.7866 143.226 99.314 145.024 99.314H145.091C145.424 99.314 145.793 99.2468 146.169 99.1001C146.563 99.9127 147.148 100.579 147.837 100.982L149.585 102.705L151.334 100.982C152.023 100.579 152.608 99.9127 153.002 99.1001C153.378 99.2468 153.741 99.314 154.079 99.314H154.147C155.945 99.314 157.459 97.7866 157.718 96.7785C158.29 95.1961 157.853 94.1453 157.391 93.5404H157.373ZM149.462 89.9663H149.678C150.33 89.9663 150.872 90.5039 150.872 91.1577C150.872 91.286 150.854 91.4143 150.804 91.5304C150.343 91.5304 150.016 91.5487 149.899 91.5609H149.247C149.13 91.5487 148.804 91.5304 148.342 91.5304C148.293 91.4143 148.274 91.286 148.274 91.1577C148.274 90.5039 148.816 89.9663 149.468 89.9663H149.462ZM149.462 95.9537H149.678C149.862 95.9537 150.053 95.9354 150.238 95.9048C150.453 96.4119 150.681 96.8457 150.921 97.2184C150.54 97.3772 150.115 97.4505 149.678 97.4505H149.462C149.031 97.4505 148.607 97.3711 148.219 97.2184C148.453 96.8457 148.68 96.418 148.902 95.9048C149.087 95.9354 149.278 95.9537 149.462 95.9537ZM149.413 94.4874C149.462 94.3102 149.524 94.1147 149.573 93.9192C149.622 94.1147 149.684 94.3102 149.733 94.4874H149.419H149.413ZM146.938 96.4852C146.643 96.9434 146.329 97.2856 145.99 97.5239C145.879 97.5911 145.781 97.6522 145.676 97.6888C145.467 97.7988 145.264 97.8477 145.042 97.8477C143.965 97.9088 142.974 96.8029 142.863 96.3508C142.555 95.5016 142.586 94.8906 142.943 94.4324C143.552 93.6321 144.993 93.2594 146.384 93.1005C146.791 93.0639 147.185 93.0333 147.56 93.015H147.868C148.016 93.0028 148.151 93.0028 148.28 93.0028C148.243 93.1616 148.2 93.3144 148.163 93.4732C148.145 93.5587 148.114 93.6382 148.096 93.7176C147.929 94.3041 147.751 94.8356 147.554 95.2939C147.375 95.7215 147.191 96.0942 146.981 96.418C146.969 96.4486 146.951 96.4669 146.944 96.4852H146.938ZM149.678 99.9677H149.462C148.674 99.9677 147.966 99.3995 147.517 98.5319C148.12 98.7885 148.779 98.923 149.462 98.923H149.678C150.361 98.923 151.02 98.7885 151.623 98.5319C151.18 99.4056 150.472 99.9677 149.678 99.9677ZM156.277 96.3447C156.166 96.7968 155.175 97.9027 154.098 97.8416C153.882 97.8416 153.673 97.7927 153.464 97.6827C153.353 97.646 153.255 97.585 153.15 97.5177C152.817 97.2856 152.497 96.9373 152.202 96.4791C152.189 96.4608 152.171 96.4425 152.165 96.4119C151.956 96.0881 151.771 95.7154 151.592 95.2877C151.395 94.8295 151.217 94.298 151.051 93.7115C151.032 93.6321 151.001 93.5526 150.983 93.4671C150.946 93.3082 150.903 93.1555 150.866 92.9967C150.995 92.9967 151.131 92.9967 151.278 93.0089H151.586C151.962 93.0272 152.356 93.0578 152.762 93.0944C154.153 93.2533 155.594 93.6198 156.203 94.4263C156.56 94.8845 156.585 95.4955 156.283 96.3447H156.277Z" fill="#8C734C"/>
<path d="M116.81 102.552C116.699 102.405 116.576 102.277 116.416 102.191C116.268 102.106 116.108 102.057 115.942 102.057C115.782 102.045 115.616 102.075 115.462 102.142C115.302 102.203 115.105 102.32 114.871 102.472L112.851 103.871L112.901 103.939C112.968 103.92 113.018 103.908 113.061 103.92C113.098 103.932 113.141 103.957 113.178 104.006L115.08 106.737C115.111 106.773 115.117 106.822 115.117 106.865C115.105 106.902 115.086 106.951 115.037 107.012L115.086 107.079L116.102 106.382L116.053 106.303C115.985 106.334 115.936 106.34 115.893 106.334C115.843 106.321 115.813 106.297 115.776 106.248L115.037 105.179L116.2 104.385C116.508 104.177 116.711 103.981 116.841 103.816C116.97 103.639 117.025 103.444 117.038 103.236C117.038 102.992 116.958 102.759 116.81 102.539V102.552ZM116.151 103.529C116.102 103.639 115.966 103.761 115.745 103.908L114.668 104.653L114.064 103.804L115.148 103.059C115.363 102.912 115.529 102.833 115.653 102.827C115.733 102.814 115.8 102.827 115.886 102.876C115.966 102.912 116.022 102.973 116.083 103.053C116.133 103.132 116.17 103.212 116.182 103.297C116.194 103.395 116.182 103.474 116.145 103.529H116.151Z" fill="#231F20"/>
<path d="M122.436 100.896L121.358 98.9657C121.327 98.9168 121.321 98.8801 121.327 98.8313C121.34 98.7946 121.364 98.7518 121.414 98.703L121.364 98.6235L120.349 99.1795L120.398 99.2589C120.466 99.2406 120.527 99.2406 120.558 99.2467C120.595 99.265 120.638 99.2956 120.669 99.3445L121.617 101.055C121.734 101.251 121.802 101.41 121.832 101.507C121.863 101.617 121.863 101.721 121.845 101.819C121.777 102.075 121.549 102.308 121.155 102.521C120.761 102.735 120.447 102.802 120.176 102.729C120.09 102.699 119.998 102.644 119.918 102.552C119.85 102.473 119.758 102.338 119.641 102.143L118.693 100.432C118.662 100.383 118.656 100.334 118.662 100.298C118.674 100.261 118.699 100.212 118.748 100.163L118.699 100.084L117.621 100.67L117.671 100.756C117.738 100.737 117.788 100.737 117.831 100.744C117.868 100.762 117.898 100.792 117.929 100.841L119.007 102.76C119.142 103.004 119.29 103.187 119.45 103.334C119.61 103.468 119.807 103.542 120.029 103.548C120.423 103.566 120.884 103.42 121.438 103.12C122.196 102.711 122.614 102.271 122.67 101.807C122.706 101.55 122.62 101.251 122.423 100.884L122.436 100.896Z" fill="#231F20"/>
<path d="M128.612 99.589C128.526 99.6257 128.446 99.6257 128.366 99.6012C128.286 99.5829 128.151 99.5035 127.941 99.3874L126.809 98.6909C127.418 98.3121 127.597 97.8295 127.35 97.2429C127.27 97.0658 127.172 96.9191 127.036 96.8031C126.901 96.6748 126.741 96.5953 126.562 96.5709C126.402 96.5403 126.248 96.5403 126.07 96.5831C125.891 96.6198 125.664 96.6992 125.387 96.8153L123.127 97.7867L123.158 97.8722C123.238 97.86 123.287 97.86 123.324 97.8845C123.361 97.9089 123.392 97.9455 123.41 97.9944L124.734 101.037C124.765 101.086 124.765 101.135 124.752 101.171C124.74 101.208 124.703 101.251 124.654 101.3L124.685 101.379L125.817 100.903L125.781 100.817C125.713 100.829 125.664 100.829 125.62 100.805C125.584 100.787 125.553 100.756 125.534 100.695L125.011 99.5096L125.978 99.088L127.172 99.8334C127.307 99.9189 127.381 99.98 127.4 100.011C127.418 100.059 127.387 100.108 127.301 100.169L127.338 100.249L128.637 99.6929L128.606 99.6074L128.612 99.589ZM126.519 98.0555C126.47 98.1166 126.421 98.1655 126.341 98.2022C126.273 98.251 126.156 98.3121 125.965 98.3854L124.752 98.9048L124.34 97.9639L125.565 97.4385C125.744 97.359 125.879 97.3102 125.947 97.2918C126.027 97.2735 126.107 97.2613 126.181 97.2735C126.347 97.2857 126.464 97.3896 126.556 97.579C126.636 97.7623 126.624 97.9211 126.519 98.0555Z" fill="#231F20"/>
<path d="M133.402 97.212L133.316 97.2426C133.316 97.3098 133.304 97.3709 133.285 97.4014C133.267 97.4381 133.224 97.4686 133.174 97.4809L130.761 98.2751L130.429 97.2487L131.949 96.7599C132.011 96.7416 132.06 96.7416 132.085 96.7599C132.122 96.7721 132.165 96.8088 132.202 96.8699L132.288 96.8393L131.98 95.8985L131.894 95.929C131.894 95.9962 131.882 96.0573 131.863 96.0879C131.845 96.1245 131.802 96.1551 131.746 96.1673L130.226 96.6683L129.942 95.7885L132.282 95.0248C132.343 95.0065 132.392 95.0065 132.417 95.0248C132.454 95.037 132.497 95.0737 132.534 95.1348L132.62 95.1042L132.306 94.145L132.22 94.1756C132.22 94.2428 132.208 94.2916 132.189 94.3344C132.171 94.3772 132.128 94.3955 132.079 94.4138L128.736 95.5013L128.766 95.5869C128.847 95.5869 128.896 95.5991 128.933 95.6174C128.963 95.6358 128.994 95.6785 129.013 95.7335L130.047 98.8738C130.065 98.9349 130.065 98.9838 130.059 99.0082C130.041 99.0449 129.998 99.0877 129.942 99.1243L129.973 99.2099L133.377 98.104C133.439 98.0857 133.476 98.0857 133.513 98.104C133.55 98.1163 133.593 98.1529 133.63 98.214L133.716 98.1835L133.402 97.2243V97.212Z" fill="#231F20"/>
<path d="M168.99 93.9923L168.971 94.0778C169.033 94.1083 169.07 94.145 169.088 94.1878C169.107 94.2244 169.107 94.2672 169.1 94.3222L168.774 95.5441L166.576 94.9637L166.903 93.7479C166.915 93.6868 166.94 93.6501 166.97 93.6196C167.001 93.6012 167.057 93.589 167.13 93.589L167.149 93.5035L165.967 93.1919L165.936 93.2774C166.004 93.3141 166.047 93.3569 166.065 93.3935C166.078 93.4241 166.084 93.4729 166.065 93.5279L165.216 96.7355C165.204 96.7843 165.185 96.821 165.148 96.8515C165.117 96.8699 165.062 96.8821 164.988 96.8821L164.97 96.9676L166.152 97.2792L166.182 97.1937C166.121 97.157 166.072 97.1265 166.065 97.0837C166.047 97.047 166.035 96.9982 166.053 96.9493L166.41 95.5807L168.608 96.1489L168.251 97.5175C168.239 97.5786 168.214 97.6152 168.171 97.6336C168.14 97.6519 168.091 97.6702 168.023 97.6702L167.992 97.7558L169.187 98.0612L169.205 97.9757C169.144 97.939 169.107 97.9085 169.088 97.8657C169.07 97.8291 169.07 97.7863 169.076 97.7313L169.925 94.5238C169.944 94.4627 169.962 94.426 169.993 94.4077C170.03 94.3894 170.079 94.371 170.159 94.371L170.178 94.2855L168.983 93.98L168.99 93.9923Z" fill="#231F20"/>
<path d="M175.522 96.6501C175.275 96.1613 174.82 95.807 174.179 95.5748C173.311 95.2693 172.591 95.3427 172.012 95.7887C171.717 96.0208 171.489 96.3263 171.36 96.699C171.261 96.9556 171.224 97.2061 171.231 97.4627C171.243 97.7682 171.311 98.037 171.44 98.3058C171.699 98.7823 172.142 99.1489 172.782 99.3811C173.638 99.6866 174.358 99.6133 174.949 99.155C175.257 98.9229 175.472 98.6296 175.602 98.2753C175.817 97.701 175.786 97.1572 175.522 96.6501ZM174.783 97.9637C174.721 98.1408 174.623 98.2875 174.506 98.4219C174.358 98.5807 174.198 98.6846 174.013 98.764C173.705 98.8801 173.373 98.8801 173.016 98.7518C172.659 98.6235 172.394 98.4097 172.234 98.1164C172.049 97.762 172.025 97.3894 172.173 96.9983C172.32 96.5951 172.579 96.3202 172.954 96.1858C173.262 96.0575 173.595 96.0575 173.952 96.198C174.309 96.3263 174.561 96.5401 174.721 96.8334C174.918 97.1633 174.937 97.5482 174.783 97.9576V97.9637Z" fill="#231F20"/>
<path d="M181.032 98.5866L180.995 98.666C181.044 98.7149 181.075 98.7516 181.081 98.7943C181.093 98.831 181.093 98.8799 181.062 98.9288L180.047 101.024L179.068 98.0612C179.049 97.994 179.049 97.9329 179.068 97.8962C179.099 97.8351 179.148 97.8107 179.234 97.829L179.271 97.7496L178.07 97.1631L178.034 97.2486C178.083 97.2975 178.114 97.3342 178.12 97.3769C178.126 97.4197 178.132 97.4625 178.101 97.5113L176.642 100.499C176.624 100.548 176.593 100.584 176.556 100.597C176.519 100.615 176.458 100.615 176.39 100.609L176.353 100.688L177.399 101.189L177.436 101.11C177.375 101.061 177.35 101.024 177.338 100.982C177.326 100.945 177.338 100.896 177.356 100.847L178.403 98.7027L179.4 101.696C179.437 101.825 179.462 101.904 179.437 101.929C179.406 101.99 179.357 102.008 179.277 101.99L179.228 102.075L180.354 102.613L180.391 102.527C180.33 102.491 180.305 102.442 180.293 102.399C180.281 102.362 180.293 102.313 180.311 102.265L181.77 99.277C181.801 99.2281 181.832 99.1976 181.869 99.1792C181.906 99.1609 181.955 99.1609 182.029 99.1792L182.066 99.0937L181.032 98.5927V98.5866Z" fill="#231F20"/>
<path d="M187.112 101.849C187.051 101.898 187.014 101.929 186.964 101.935C186.927 101.935 186.884 101.923 186.835 101.898L183.837 100.065L183.8 100.145C183.837 100.206 183.868 100.255 183.88 100.291C183.892 100.328 183.868 100.371 183.843 100.42L182.095 103.249C182.064 103.297 182.027 103.328 181.984 103.334C181.947 103.346 181.898 103.346 181.824 103.322L181.775 103.401L184.822 105.259C184.871 105.295 184.902 105.326 184.908 105.369C184.927 105.405 184.92 105.454 184.896 105.534L184.976 105.57L185.518 104.709L185.438 104.66C185.376 104.709 185.327 104.739 185.29 104.745C185.253 104.758 185.21 104.733 185.161 104.709L183 103.389L183.56 102.479L184.92 103.31C184.97 103.34 185.001 103.377 185.019 103.42C185.031 103.456 185.019 103.505 185.001 103.578L185.081 103.627L185.604 102.784L185.524 102.735C185.475 102.784 185.425 102.815 185.388 102.821C185.351 102.821 185.308 102.809 185.259 102.784L183.886 101.953L184.379 101.159L186.478 102.442C186.527 102.473 186.558 102.509 186.576 102.552C186.589 102.589 186.576 102.638 186.558 102.711L186.638 102.76L187.18 101.898L187.1 101.849H187.112Z" fill="#231F20"/>
<path d="M190.652 104.629L190.603 104.696C190.64 104.745 190.664 104.781 190.67 104.83C190.676 104.879 190.67 104.916 190.64 104.946C190.621 104.983 190.541 105.014 190.412 105.062L189.187 105.453L189.254 104.189C189.267 104.054 189.273 103.975 189.304 103.944C189.365 103.865 189.439 103.859 189.562 103.914L189.624 103.847L188.38 102.906L188.319 102.985C188.386 103.046 188.429 103.113 188.448 103.193C188.46 103.272 188.466 103.407 188.46 103.596L188.399 105.777L187.58 106.846C187.543 106.895 187.5 106.926 187.463 106.926C187.426 106.938 187.364 106.926 187.303 106.895L187.241 106.975L188.226 107.72L188.288 107.641C188.239 107.58 188.22 107.531 188.22 107.494C188.208 107.457 188.232 107.415 188.269 107.366L189.076 106.297L191.175 105.643C191.354 105.582 191.489 105.557 191.569 105.557C191.649 105.545 191.729 105.57 191.803 105.618L191.865 105.539L190.64 104.629H190.652Z" fill="#231F20"/>
<path opacity="0.2" d="M162.718 154.471C162.638 154.483 162.558 154.483 162.484 154.483L162.502 154.465C162.57 154.477 162.65 154.477 162.718 154.477V154.471Z" fill="#8C734C"/>
<path opacity="0.2" d="M153.536 154.484H153.485L153.498 154.471C153.498 154.471 153.53 154.484 153.536 154.484Z" fill="#8C734C"/>
<path opacity="0.2" d="M153.7 154.477H153.738V154.465C153.738 154.465 153.707 154.477 153.7 154.477Z" fill="#8C734C"/>
<path d="M209.647 147.629C209.647 147.629 209.647 147.396 209.45 147.396C209.382 147.396 209.308 147.403 209.284 147.512C209.247 147.641 209.382 148.875 207.923 148.875L206.599 148.96C205.762 148.96 205.054 148.282 205.054 147.445V128.634C205.054 128.634 205.042 128.664 205.036 128.671C204.802 129.08 203.725 130.772 200.302 133.155C199.994 133.381 199.668 133.595 199.323 133.821C197.704 134.878 195.654 136.045 193.062 137.285C186.9 140.242 187.232 145.692 187.232 145.692V147.445C187.232 148.276 186.561 148.954 185.705 148.96C185.022 148.826 184.573 148.13 184.326 147.61C184.166 147.268 184.092 147.005 184.092 147.005C183.471 145.038 180.996 143.7 178.601 142.826C175.979 141.886 173.442 141.507 173.442 141.507C174.717 141.104 176.403 140.615 178.601 140.047C183.637 138.745 184.271 135.556 184.332 134.389V128.536L178.995 132.312C178.749 132.489 178.601 132.77 178.601 133.076V135.55C178.613 135.678 178.62 135.807 178.601 135.929C178.416 138.971 172.125 140.871 172.125 140.871V120.203L166.387 124.198V147.439C166.387 148.282 165.704 148.954 164.867 148.954H164.485C163.648 148.954 162.94 148.276 162.94 147.439V128.53L157.596 132.306C157.35 132.483 157.202 132.764 157.202 133.069V147.445C157.202 148.276 156.519 148.954 155.682 148.954H155.3C154.463 148.954 153.755 148.276 153.755 147.439V120.203L148.023 124.076V147.433C148.023 148.276 147.34 148.948 146.497 148.948H146.09C145.241 148.948 144.564 148.27 144.564 147.433V128.622C144.564 128.622 144.551 128.652 144.545 128.658C144.311 129.068 143.234 130.76 139.811 133.143C139.503 133.369 139.177 133.583 138.832 133.809C137.213 134.866 135.163 136.033 132.571 137.273C126.409 140.23 126.741 145.68 126.741 145.68V147.433C126.741 148.38 125.873 149.125 124.888 148.918C124.156 148.759 123.694 148.056 123.694 147.323V133.943C123.694 130.949 121.25 128.524 118.233 128.524H117.199C114.804 128.524 112.705 129.941 112.022 132.067H111.911C111.634 131.34 111.228 130.638 110.698 130.112C109.664 129.086 107.737 128.53 106.143 128.53C104.548 128.53 103.126 129.165 102.092 130.192C101.507 130.772 100.99 131.463 100.731 132.239V128.53L95 132.403V148.777C95 151.917 97.561 154.471 100.731 154.471V135.831C100.731 135.104 101.175 134.493 101.796 134.218C102.012 134.12 102.252 134.071 102.504 134.071H104.696C104.955 134.071 105.188 134.12 105.404 134.218C106.026 134.493 106.481 135.11 106.481 135.831V148.777C106.481 151.917 109.042 154.471 112.213 154.471V135.831C112.213 135.104 112.668 134.493 113.29 134.218C113.506 134.12 113.746 134.071 113.998 134.071H116.19C116.448 134.071 116.682 134.12 116.898 134.218C117.519 134.493 117.963 135.11 117.963 135.831V148.777C117.963 151.526 119.483 153.848 122.537 154.355C122.537 154.355 123.306 154.441 123.712 154.343C125.559 153.891 126.434 152.18 127.055 150.763C127.412 151.557 127.745 152.125 128.434 152.797C129.469 153.836 130.909 154.471 132.485 154.471H133.815C136.277 154.471 138.389 152.913 139.201 150.744C139.94 152.773 141.806 154.245 144.04 154.441C144.126 154.453 144.219 154.459 144.305 154.459C144.391 154.447 144.483 154.447 144.564 154.441C146.484 154.209 148.042 152.797 148.46 150.946C149.291 152.944 151.231 154.374 153.508 154.459C153.521 154.471 153.539 154.471 153.545 154.471C153.576 154.471 153.595 154.471 153.625 154.459C153.656 154.471 153.687 154.471 153.712 154.471C153.724 154.471 153.742 154.471 153.749 154.459C155.663 154.349 157.258 153.091 157.83 151.355C158.717 153.091 160.471 154.3 162.515 154.447C162.583 154.459 162.663 154.459 162.73 154.459C162.798 154.459 162.866 154.447 162.94 154.447C164.854 154.264 166.418 152.913 166.904 151.111C167.803 153.091 169.804 154.465 172.131 154.465V142.338L172.291 142.277C172.291 142.277 176.982 143.285 178.336 146.339C178.546 146.81 178.613 147.335 178.613 147.855V148.765C178.613 148.802 178.613 148.85 178.626 148.893C178.626 148.912 178.613 148.924 178.626 148.942C178.638 149.492 178.737 150.03 178.903 150.549C179.069 151.056 179.284 151.594 179.592 152.034C179.925 152.522 180.325 152.926 180.768 153.317C180.867 153.384 180.984 153.463 181.082 153.53C181.525 153.824 182.067 154.019 182.572 154.178C183.132 154.361 183.717 154.453 184.308 154.312C184.763 154.196 185.194 153.97 185.558 153.683C185.921 153.408 186.229 153.078 186.493 152.712C186.758 152.351 186.986 151.96 187.183 151.557C187.312 151.294 187.441 151.019 187.558 150.744C187.915 151.539 188.248 152.107 188.937 152.779C189.965 153.805 191.394 154.441 192.963 154.453H194.324C196.786 154.453 198.713 152.895 199.52 150.726C200.16 152.755 201.57 154.422 204.383 154.422C204.469 154.422 204.728 154.441 204.814 154.441C204.9 154.429 205.565 154.429 205.645 154.422C207.566 154.19 209.037 152.687 209.45 150.842C209.579 150.366 209.684 149.773 209.733 149.089C209.77 148.533 209.702 147.934 209.665 147.604L209.647 147.629ZM138.82 147.25C138.82 148.197 138.038 148.96 137.096 148.96H134.196C133.242 148.96 132.473 148.197 132.473 147.25V142.277C132.473 142.277 132.374 140.682 133.716 138.996C133.716 138.984 133.729 138.977 133.735 138.965C134.061 138.562 134.467 138.165 134.978 137.774C134.991 137.762 134.997 137.755 135.015 137.743C135.342 137.487 135.717 137.242 136.142 137.016C137.256 136.411 138.136 135.929 138.826 135.55V147.244L138.82 147.25ZM199.323 147.25C199.323 148.197 198.541 148.96 197.599 148.96H194.7C193.745 148.96 192.976 148.197 192.976 147.25V142.277C192.976 142.277 192.877 140.682 194.219 138.996C194.219 138.984 194.232 138.977 194.238 138.965C194.564 138.562 194.97 138.165 195.481 137.774C195.494 137.762 195.5 137.755 195.518 137.743C195.845 137.487 196.22 137.242 196.645 137.016C197.759 136.411 198.639 135.929 199.329 135.55V147.244L199.323 147.25Z" fill="black"/>
<path opacity="0.2" d="M144.294 154.471C144.195 154.484 144.096 154.484 143.998 154.484L144.029 154.453C144.115 154.465 144.207 154.471 144.294 154.471Z" fill="#8C734C"/>
<path opacity="0.2" d="M144.546 154.453V154.484C144.46 154.484 144.38 154.484 144.287 154.471C144.374 154.459 144.466 154.459 144.546 154.453Z" fill="#8C734C"/>
<path opacity="0.2" d="M162.929 154.459V154.478C162.861 154.478 162.793 154.478 162.719 154.465C162.787 154.465 162.855 154.453 162.929 154.453V154.459Z" fill="#8C734C"/>
<path opacity="0.2" d="M184.326 134.39V133.949C184.326 133.949 184.344 134.115 184.326 134.39Z" fill="#8C734C"/>
<path d="M163.73 123.541L160.056 119.895L156.382 123.541L160.056 127.187L163.73 123.541Z" fill="black"/>
<path d="M148.585 160.061L148.739 161.858L156.138 157.08L155.978 155.333L148.585 160.061Z" fill="#8C734C"/>
<path d="M189.639 130.253L189.793 132.049L197.193 127.272L197.033 125.518L189.639 130.253Z" fill="#8C734C"/>
<path fill-rule="evenodd" clip-rule="evenodd" d="M0 157.5C15.9222 226.696 77.9004 278.296 151.93 278.296C225.96 278.296 287.939 226.696 303.861 157.5H272.066C256.929 209.5 208.918 247.5 152.032 247.5C95.1462 247.5 47.1353 209.5 31.9985 157.5H0Z" fill="#8C734C"/>
<defs>
<filter id="filter0_d_725_14183" x="27" y="0.5" width="250" height="250" filterUnits="userSpaceOnUse" color-interpolation-filters="sRGB">
<feFlood flood-opacity="0" result="BackgroundImageFix"/>
<feColorMatrix in="SourceAlpha" type="matrix" values="0 0 0 0 0 0 0 0 0 0 0 0 0 0 0 0 0 0 127 0" result="hardAlpha"/>
<feMorphology radius="2" operator="dilate" in="SourceAlpha" result="effect1_dropShadow_725_14183"/>
<feOffset/>
<feGaussianBlur stdDeviation="9"/>
<feComposite in2="hardAlpha" operator="out"/>
<feColorMatrix type="matrix" values="0 0 0 0 0 0 0 0 0 0 0 0 0 0 0 0 0 0 0.12 0"/>
<feBlend mode="normal" in2="BackgroundImageFix" result="effect1_dropShadow_725_14183"/>
<feBlend mode="normal" in="SourceGraphic" in2="effect1_dropShadow_725_14183" result="shape"/>
</filter>
</defs>
</svg>
