<svg width="274" height="84" viewBox="0 0 274 84" fill="none" xmlns="http://www.w3.org/2000/svg">
<path fill-rule="evenodd" clip-rule="evenodd" d="M4.7438 83.2463C3.34569 82.591 1.94761 81.9356 0.5495 81.2803C29.6628 50.719 73.0876 24.6992 121.552 12.0834C170.17 -1.24501 221.213 -0.970593 267.298 4.38889C312.47 9.85651 351.892 21.0709 381.197 26.2217C411.181 31.608 435.025 29.8444 456.655 18.2095C456.547 18.4274 456.291 18.6787 456.163 18.8044C434.574 30.6238 410.643 32.6975 380.953 27.9236C351.624 23.3597 312.664 12.8166 268.085 7.89458C222.442 3.11408 171.842 3.41865 123.84 16.7057C75.843 29.3136 33.2287 54.764 4.76449 83.3386L4.7438 83.2463Z" fill="white"/>
</svg>
