<svg width="277" height="103" viewBox="0 0 277 103" fill="none" xmlns="http://www.w3.org/2000/svg">
<path fill-rule="evenodd" clip-rule="evenodd" d="M382.878 3.76631C368.879 17.6658 348.355 22.3293 319.286 20.7815C290.663 19.5354 250.556 14.1264 208.276 17.0927C165.086 20.3647 126.461 26.7534 84.4609 46.7534C63.9609 57.2534 54.4609 61.7534 3.96093 102.253C-3.79474 99.2686 3.96094 97.2534 1.46095 97.2534C11.9609 71.2534 29.4955 50.4326 69.4609 28.7534C109.249 6.38703 159.424 5.05335 203.776 5.47298C247.218 6.19829 287.596 14.6954 316.675 17.5253C346.249 20.7618 367.565 16.4924 383.767 0.896358C383.454 1.81809 383.191 2.84458 382.878 3.76631Z" fill="url(#paint0_linear_807_11302)" fill-opacity="0.8"/>
<defs>
<linearGradient id="paint0_linear_807_11302" x1="1.96088" y1="142.753" x2="307.961" y2="27.7534" gradientUnits="userSpaceOnUse">
<stop offset="0.106201" stop-color="#A3D403"/>
<stop offset="1" stop-color="white"/>
</linearGradient>
</defs>
</svg>
