<svg width="98" height="97" viewBox="0 0 98 97" fill="none" xmlns="http://www.w3.org/2000/svg">
<path d="M68.0135 8.32667V43.2867H67.0935L53.2935 45.4333V66.9C53.2935 75.4867 58.2001 86.5267 65.5601 91.74C65.8668 92.0467 66.1735 92.0467 66.1735 92.3533C65.2535 93.58 63.7201 94.1933 61.8801 94.1933H8.82679C5.76012 94.1933 3.00012 91.4333 3.00012 88.3667V8.63333C3.00012 5.26 5.45346 2.5 8.82679 2.5H62.1868C65.2535 2.5 68.0135 5.26 68.0135 8.32667Z" stroke="#212121" stroke-width="4.5" stroke-miterlimit="10" stroke-linecap="round" stroke-linejoin="round"/>
<path d="M11.5869 15.0732H29.9869" stroke="#212121" stroke-width="4.5" stroke-miterlimit="10" stroke-linecap="round" stroke-linejoin="round"/>
<path d="M11.5869 28.2598H44.4002" stroke="#212121" stroke-width="4.5" stroke-miterlimit="10" stroke-linecap="round" stroke-linejoin="round"/>
<path d="M11.5869 41.4463H44.4002" stroke="#212121" stroke-width="4.5" stroke-miterlimit="10" stroke-linecap="round" stroke-linejoin="round"/>
<path d="M44.7069 54.6338H11.5869" stroke="#212121" stroke-width="4.5" stroke-miterlimit="10" stroke-linecap="round" stroke-linejoin="round"/>
<path d="M44.7069 67.8203H11.5869" stroke="#212121" stroke-width="4.5" stroke-miterlimit="10" stroke-linecap="round" stroke-linejoin="round"/>
<path d="M10.9735 81.0068H44.7068" stroke="#212121" stroke-width="4.5" stroke-miterlimit="10" stroke-linecap="round" stroke-linejoin="round"/>
<path d="M95 45.4329V66.8995C95 78.5529 85.4933 94.4995 74.1467 94.4995C71.08 94.4995 68.32 93.2729 65.56 91.4329C58.2 86.2195 53.2933 75.4862 53.2933 66.5929V45.4329L66.7867 43.2862L73.5333 42.3662L95 45.4329Z" stroke="#212121" stroke-width="4.5" stroke-miterlimit="10" stroke-linecap="round" stroke-linejoin="round"/>
<path d="M65.2535 70.8865L69.5469 75.1799L83.0402 61.6865" stroke="#212121" stroke-width="4.5" stroke-miterlimit="10" stroke-linecap="round" stroke-linejoin="round"/>
</svg>
