<svg width="117" height="118" viewBox="0 0 117 118" fill="none" xmlns="http://www.w3.org/2000/svg">
<g filter="url(#filter0_dd_722_10361)">
<circle cx="58.5" cy="50.7949" r="38.5" fill="white"/>
</g>
<path d="M38.2164 55.7327C38.0721 55.7328 37.9299 55.6986 37.8013 55.633L30.8939 52.0751C30.6809 51.9655 30.52 51.776 30.4463 51.5482C30.3726 51.3203 30.3921 51.0725 30.5006 50.8589L38.6152 34.831C38.669 34.7245 38.7434 34.6298 38.8339 34.5522C38.9245 34.4745 39.0295 34.4156 39.1429 34.3786C39.2563 34.3416 39.3759 34.3274 39.4948 34.3368C39.6137 34.3461 39.7296 34.3789 39.8359 34.4331L46.4071 37.7863C46.6181 37.8936 46.7787 38.0792 46.8545 38.3035C46.9304 38.5277 46.9155 38.7727 46.8131 38.9861L39.0338 55.2153C38.9813 55.3244 38.9075 55.422 38.8167 55.5022C38.726 55.5825 38.6202 55.6439 38.5055 55.6829C38.4124 55.7147 38.3148 55.7315 38.2164 55.7327ZM32.5242 50.8752L37.8022 53.594L44.7967 39.0033L39.8214 36.4658L32.5242 50.8752Z" fill="#212121"/>
<path d="M47.6048 43.1211C47.4489 43.121 47.2956 43.0808 47.1598 43.0042L44.5262 41.5206C44.4225 41.4623 44.3313 41.384 44.2578 41.2904C44.1843 41.1968 44.13 41.0896 44.098 40.975C44.0659 40.8604 44.0567 40.7406 44.071 40.6224C44.0852 40.5042 44.1226 40.39 44.181 40.2863C44.2393 40.1826 44.3176 40.0914 44.4112 40.0179C44.5048 39.9444 44.612 39.8901 44.7266 39.858C44.8412 39.826 44.961 39.8168 45.0792 39.831C45.1973 39.8453 45.3115 39.8827 45.4153 39.941L47.5903 41.1654C48.4394 40.6506 50.2773 39.5423 51.4536 38.878C53.374 37.7905 54.7261 37.94 56.2785 39.4109C56.4484 39.5772 56.5462 39.8036 56.5508 40.0414C56.5553 40.2791 56.4662 40.5091 56.3027 40.6817C56.1392 40.8544 55.9144 40.9559 55.6768 40.9643C55.4391 40.9727 55.2077 40.8874 55.0324 40.7267C54.0681 39.8132 53.5661 39.7661 52.3454 40.4549C50.8337 41.3095 48.1068 42.9715 48.0787 42.9924C47.9356 43.0781 47.7716 43.1226 47.6048 43.1211Z" fill="#212121"/>
<path d="M71.4467 58.8892C70.7863 58.9062 70.1349 58.7342 69.5689 58.3935C68.7352 57.8371 65.0667 54.2393 64.3399 53.5242C64.1796 53.3537 64.0916 53.1278 64.0942 52.8938C64.0967 52.6598 64.1897 52.4358 64.3537 52.2688C64.5176 52.1018 64.7398 52.0047 64.9737 51.9979C65.2076 51.991 65.4351 52.0749 65.6086 52.2319C67.2399 53.8423 70.0384 56.5294 70.5722 56.8855C70.9162 57.0445 71.2967 57.1078 71.6737 57.0689C72.0507 57.03 72.4102 56.8903 72.7145 56.6644C72.857 56.5408 72.9707 56.3875 73.0474 56.2151C73.1242 56.0428 73.1621 55.8558 73.1587 55.6672C73.1552 55.4786 73.1104 55.2931 73.0274 55.1237C72.9444 54.9543 72.8252 54.8052 72.6783 54.687C71.7521 53.6448 67.9042 49.9427 67.0595 49.1307C64.1123 48.0504 61.2543 46.7408 58.5118 45.2139L57.5584 45.8374C57.3443 46.831 56.7733 47.7116 55.9534 48.3124C55.6657 48.5391 55.3316 48.6998 54.9748 48.7831C54.6181 48.8664 54.2474 48.8703 53.889 48.7945C53.4541 48.7403 53.0352 48.5959 52.6593 48.3706C52.2834 48.1453 51.9586 47.8439 51.7058 47.4859C51.2239 46.4562 51.1698 45.2775 51.5554 44.208C52.3284 41.114 53.5827 40.3175 55.3182 39.2155L55.6997 38.9717C57.6119 37.7437 59.2531 37.0894 61.0547 37.9005C62.1748 38.4053 66.1506 39.945 67.2797 40.3818L71.0642 39.1411C71.291 39.0722 71.5356 39.0948 71.7459 39.2041C71.9561 39.3134 72.1152 39.5007 72.1891 39.7258C72.2629 39.951 72.2456 40.1961 72.1409 40.4087C72.0362 40.6212 71.8524 40.7843 71.6288 40.863L67.5371 42.2043C67.339 42.2689 67.1247 42.2638 66.9299 42.1898C66.7152 42.1064 61.6601 40.1616 60.3143 39.5544C59.5068 39.1919 58.6541 39.229 56.6821 40.496L56.2924 40.7452C54.7092 41.7502 53.9144 42.2559 53.3162 44.6475C53.0099 45.8728 53.1513 46.3694 53.2628 46.5506C53.406 46.7899 53.7377 46.8869 54.266 47.0192C54.3794 47.0383 54.4957 47.0319 54.6063 47.0006C54.717 46.9692 54.8193 46.9137 54.9058 46.8379C55.1614 46.6453 55.3749 46.4025 55.5331 46.1243C55.6913 45.8461 55.7909 45.5384 55.8257 45.2203C55.8375 45.0836 55.8802 44.9515 55.9505 44.8337C56.0208 44.716 56.117 44.6158 56.2317 44.5406L57.9762 43.3996C58.1137 43.3102 58.2729 43.2597 58.4368 43.2537C58.6007 43.2476 58.7632 43.2862 58.9069 43.3652C58.9685 43.3987 65.0785 46.74 67.7546 47.4433C67.9034 47.483 68.0399 47.5594 68.1516 47.6653C68.3473 47.8529 72.9547 52.2645 74.0367 53.4853C74.3366 53.7755 74.5743 54.1236 74.7356 54.5085C74.8968 54.8933 74.9782 55.3069 74.9749 55.7242C74.9715 56.1415 74.8834 56.5537 74.7159 56.9359C74.5484 57.3181 74.305 57.6623 74.0005 57.9476C73.3032 58.5802 72.3877 58.9178 71.4467 58.8892Z" fill="#212121"/>
<path d="M73.3587 54.9914C73.1511 54.9912 72.9498 54.9198 72.7885 54.7889C72.6272 54.6581 72.5157 54.4759 72.4728 54.2727C72.4298 54.0696 72.4579 53.8578 72.5523 53.6729C72.6468 53.4879 72.8019 53.3411 72.9917 53.2568L76.1708 51.8485C76.2801 51.7969 76.3986 51.7677 76.5193 51.7625C76.6401 51.7574 76.7606 51.7765 76.8739 51.8186C76.9871 51.8608 77.0908 51.9251 77.1788 52.008C77.2668 52.0908 77.3374 52.1903 77.3863 52.3008C77.4353 52.4113 77.4617 52.5305 77.4639 52.6513C77.4661 52.7721 77.4441 52.8922 77.3993 53.0044C77.3544 53.1166 77.2876 53.2187 77.2027 53.3047C77.1178 53.3907 77.0165 53.4588 76.9049 53.5051L73.7249 54.9171C73.6093 54.967 73.4846 54.9923 73.3587 54.9914Z" fill="#212121"/>
<path d="M77.5148 55.7327C77.3342 55.7327 77.1578 55.6786 77.0081 55.5775C76.8584 55.4764 76.7423 55.3329 76.6748 55.1654L69.8344 38.195C69.7887 38.0818 69.7663 37.9606 69.7686 37.8385C69.7709 37.7165 69.7978 37.5962 69.8477 37.4848C69.8976 37.3734 69.9696 37.2733 70.0592 37.1904C70.1487 37.1075 70.2542 37.0435 70.3691 37.0024L77.6789 34.3869C77.9 34.3078 78.1432 34.3177 78.3572 34.4144C78.5713 34.5111 78.7394 34.6871 78.8262 34.9053L85.5324 51.738C85.5763 51.8493 85.5977 51.9681 85.5954 52.0877C85.5931 52.2073 85.5672 52.3253 85.5191 52.4348C85.471 52.5444 85.4017 52.6433 85.3151 52.7259C85.2286 52.8085 85.1266 52.8731 85.015 52.9161L77.8393 55.6693C77.7359 55.7102 77.626 55.7317 77.5148 55.7327ZM71.8653 38.3907L78.0196 53.6583L83.5061 51.5558L77.4659 36.3879L71.8653 38.3907ZM67.363 61.6379C66.616 61.6603 65.8864 61.4092 65.3113 60.9319C64.0978 59.8535 60.9785 56.736 60.8462 56.6036C60.6811 56.4327 60.5898 56.2038 60.5918 55.9662C60.5939 55.7286 60.6892 55.5013 60.8572 55.3333C61.0253 55.1652 61.2526 55.0699 61.4902 55.0679C61.7278 55.0658 61.9567 55.1571 62.1276 55.3222C62.1593 55.3539 65.3421 58.5349 66.5148 59.5816C66.7579 59.7297 67.0331 59.8169 67.3171 59.8358C67.6011 59.8548 67.8855 59.8048 68.146 59.6903C68.5716 59.5452 68.9491 59.2859 69.2374 58.9409C69.5257 58.5959 69.7137 58.1783 69.7809 57.7337C69.8011 57.6165 69.8443 57.5043 69.9079 57.4037C69.9714 57.3031 70.0542 57.216 70.1514 57.1473C70.2487 57.0787 70.3585 57.0299 70.4746 57.0037C70.5907 56.9775 70.7108 56.9745 70.8281 56.9947C70.9454 57.0149 71.0575 57.0581 71.1581 57.1216C71.2587 57.1852 71.3459 57.268 71.4145 57.3652C71.4831 57.4625 71.5319 57.5723 71.5581 57.6884C71.5843 57.8045 71.5874 57.9246 71.5671 58.0419C71.4439 58.8032 71.1168 59.517 70.6206 60.1073C70.1244 60.6977 69.4775 61.1427 68.7487 61.395C68.3037 61.553 67.8353 61.6351 67.363 61.6379Z" fill="#212121"/>
<path d="M63.1444 63.8347C62.3989 63.8665 61.6704 63.6065 61.1135 63.1097L57.8945 59.8907L59.1769 58.6084L62.3959 61.8274C62.5951 61.9393 62.8155 62.008 63.043 62.0293C63.2704 62.0505 63.4998 62.0237 63.7163 61.9506C64.132 61.8486 64.5127 61.6367 64.8184 61.3371C65.1242 61.0376 65.3439 60.6613 65.4545 60.2478C65.488 60.1324 65.5441 60.0249 65.6195 59.9314C65.695 59.8379 65.7883 59.7604 65.894 59.7033C65.9997 59.6462 66.1157 59.6107 66.2352 59.5988C66.3547 59.5869 66.4754 59.599 66.5903 59.6342C66.7052 59.6694 66.8119 59.727 66.9042 59.8039C66.9966 59.8807 67.0728 59.9751 67.1283 60.0816C67.1838 60.1881 67.2177 60.3046 67.2278 60.4243C67.2379 60.544 67.2241 60.6645 67.1872 60.7789C66.9351 61.6571 66.4048 62.4298 65.6759 62.9809C64.9471 63.5319 64.0582 63.8316 63.1444 63.8347Z" fill="#212121"/>
<path d="M59.6921 66.2552C58.9512 66.2709 58.2267 66.0362 57.6358 65.5891C56.8194 64.9354 55.9993 64.2866 55.1753 63.6424C55.0796 63.5699 54.9992 63.479 54.9389 63.3751C54.8786 63.2712 54.8395 63.1564 54.824 63.0373C54.8085 62.9181 54.8168 62.7971 54.8485 62.6812C54.8801 62.5654 54.9345 62.4569 55.0085 62.3623C55.0824 62.2676 55.1744 62.1886 55.2792 62.1298C55.384 62.071 55.4994 62.0336 55.6187 62.0198C55.738 62.0061 55.8589 62.0162 55.9743 62.0495C56.0897 62.0829 56.1974 62.1389 56.2909 62.2142C56.2909 62.2142 57.4228 63.0978 58.7686 64.1744C59.0553 64.3451 59.3815 64.4384 59.715 64.4452C60.0486 64.452 60.3783 64.3721 60.6718 64.2134C60.9341 64.1006 61.1562 63.9109 61.3086 63.6693C61.461 63.4278 61.5366 63.1457 61.5254 62.8603C61.5181 62.6201 61.6065 62.3868 61.7712 62.2118C61.9359 62.0367 62.1634 61.9342 62.4036 61.9269C62.6431 61.9227 62.8748 62.0122 63.0492 62.1765C63.2236 62.3407 63.3269 62.5666 63.337 62.806C63.3584 63.4372 63.1939 64.0609 62.8639 64.5995C62.534 65.138 62.0531 65.5679 61.481 65.8356C60.9248 66.1109 60.3127 66.2545 59.6921 66.2552Z" fill="#212121"/>
<path d="M52.8996 65.8351C52.6051 65.834 52.3135 65.7755 52.0414 65.6629C51.3024 65.3003 50.6932 64.7187 50.2969 63.9972C49.6537 64.122 48.9872 64.0219 48.4091 63.7136C47.9242 63.3957 47.5074 62.9846 47.1828 62.5042C46.8583 62.0238 46.6325 61.4836 46.5187 60.9151C46.4709 60.6836 46.5155 60.4426 46.6429 60.2435C47.3796 59.0944 48.4907 57.3082 48.6565 56.9357C48.8058 56.6386 49.0175 56.3772 49.2771 56.1695C49.5368 55.9617 49.8383 55.8126 50.1609 55.7322C50.5998 55.6172 51.0589 55.6018 51.5045 55.6871C51.9502 55.7724 52.3711 55.9562 52.7365 56.2252C53.1414 56.4933 53.4666 56.8656 53.6778 57.3029C53.8889 57.7402 53.9783 58.2263 53.9364 58.7102C54.3674 58.7287 54.7895 58.8395 55.1741 59.0351C55.5587 59.2307 55.8968 59.5065 56.1657 59.8439C56.4269 60.2521 56.5937 60.7135 56.6537 61.1944C56.7138 61.6752 56.6656 62.1635 56.5128 62.6234C56.0375 63.95 55.0616 65.0378 53.7941 65.6539C53.5111 65.7735 53.2069 65.8351 52.8996 65.8351ZM51.823 63.0067C52.1075 63.4879 52.616 64.1785 53.0917 63.98C53.8817 63.5686 54.4898 62.8774 54.7973 62.0415C54.8578 61.8566 54.881 61.6614 54.8654 61.4674C54.8498 61.2734 54.7959 61.0844 54.7067 60.9114C54.5688 60.7764 54.4051 60.6706 54.2255 60.6002C54.0458 60.5298 53.8538 60.4963 53.6609 60.5018L51.823 63.0067ZM48.3874 60.877C48.5316 61.3806 48.8441 61.8194 49.2728 62.1204C49.4066 62.1891 49.5531 62.2296 49.7032 62.2394C49.8533 62.2492 50.0039 62.2281 50.1455 62.1775L52.0804 58.8606C52.1573 58.6556 52.1622 58.4306 52.0944 58.2224C52.0265 58.0143 51.8899 57.8354 51.707 57.7151C51.5678 57.6054 51.4072 57.526 51.2355 57.4822C51.0638 57.4383 50.8848 57.4309 50.7101 57.4604C50.5558 57.4859 50.415 57.5636 50.3114 57.6807C50.0721 58.2108 48.9212 60.0378 48.3874 60.877Z" fill="#212121"/>
<path d="M45.9732 62.2933C45.7585 62.2939 45.5448 62.2634 45.3389 62.2026C43.7865 61.7359 43.1784 59.7259 43.114 59.4984C43.0815 59.383 43.0722 59.2623 43.0867 59.1433C43.1012 59.0243 43.1391 58.9093 43.1983 58.8051C43.9686 57.4671 44.8206 56.1778 45.7494 54.9445C46.2157 54.3379 46.8913 53.9268 47.6444 53.7916C48.3974 53.6564 49.1739 53.8067 49.8221 54.2131C50.6776 54.8067 51.3047 56.0981 50.2553 57.7856C50.1925 57.8867 50.1104 57.9745 50.0137 58.044C49.917 58.1134 49.8075 58.1631 49.6916 58.1903C49.5757 58.2174 49.4556 58.2214 49.3381 58.2021C49.2206 58.1829 49.1081 58.1406 49.0069 58.0778C48.9058 58.0151 48.818 57.933 48.7485 57.8363C48.6791 57.7396 48.6294 57.6301 48.6022 57.5142C48.5751 57.3983 48.5711 57.2781 48.5903 57.1607C48.6096 57.0432 48.6519 56.9306 48.7147 56.8295C48.9476 56.4534 49.1497 55.954 48.7881 55.703C48.5238 55.5587 48.2164 55.5142 47.9221 55.5778C47.6277 55.6413 47.3661 55.8087 47.1849 56.0492C46.3888 57.1071 45.6521 58.2083 44.9782 59.348C45.1767 59.8219 45.5147 60.3648 45.86 60.4672C46.1654 60.5578 46.585 60.2442 46.8124 60.0503C46.9944 59.8931 47.2313 59.8146 47.4711 59.8321C47.7109 59.8496 47.934 59.9617 48.0912 60.1436C48.2483 60.3256 48.3268 60.5625 48.3093 60.8023C48.2918 61.0421 48.1798 61.2652 47.9978 61.4224C47.4529 61.9516 46.7322 62.2617 45.9732 62.2933Z" fill="#212121"/>
<path d="M43.984 60.1556C43.8844 60.1554 43.7855 60.1389 43.6913 60.1066C43.5381 60.055 39.9258 58.7926 39.9258 55.9632C39.9257 55.8682 39.9404 55.7737 39.9693 55.6832C40.2972 54.7808 40.7463 53.9271 41.3042 53.1457C41.7194 52.6496 42.2928 52.3117 42.928 52.1889C43.5632 52.0661 44.2212 52.1659 44.7914 52.4715C45.3282 52.7093 45.7563 53.1398 45.9912 53.6778C46.226 54.2159 46.2507 54.8225 46.0602 55.3778C45.4675 57.2864 44.8594 59.4677 44.8531 59.4904C44.7998 59.6809 44.6857 59.8488 44.5282 59.9684C44.3706 60.088 44.1782 60.1528 43.9803 60.1528L43.984 60.1556ZM41.7455 56.1037C41.8362 56.952 42.7043 57.5972 43.4003 57.9842C43.6369 57.1577 43.9876 55.9551 44.332 54.8431C44.3636 54.7725 44.3797 54.6959 44.3794 54.6185C44.379 54.5411 44.3622 54.4647 44.3299 54.3944C44.2977 54.324 44.2508 54.2614 44.1924 54.2106C44.1339 54.1599 44.0654 54.1221 43.9912 54.1C43.804 53.9944 43.5896 53.9466 43.3753 53.9627C43.1609 53.9789 42.9561 54.0582 42.7868 54.1906C42.3666 54.7857 42.0172 55.4278 41.7455 56.1037Z" fill="#212121"/>
<path d="M41.5757 55.3058C41.3933 55.3056 41.2151 55.2504 41.0646 55.1472L38.6875 53.516C38.4891 53.3802 38.3527 53.1711 38.3085 52.9348C38.2642 52.6985 38.3156 52.4543 38.4514 52.2559C38.5872 52.0574 38.7963 51.9211 39.0326 51.8768C39.2689 51.8326 39.5131 51.884 39.7116 52.0198L42.0887 53.651C42.2488 53.7603 42.3696 53.918 42.4335 54.101C42.4974 54.2841 42.5008 54.4828 42.4435 54.6679C42.3861 54.8531 42.2708 55.0149 42.1146 55.1298C41.9584 55.2446 41.7696 55.3063 41.5757 55.3058Z" fill="#212121"/>
<defs>
<filter id="filter0_dd_722_10361" x="0" y="0.294922" width="117" height="117" filterUnits="userSpaceOnUse" color-interpolation-filters="sRGB">
<feFlood flood-opacity="0" result="BackgroundImageFix"/>
<feColorMatrix in="SourceAlpha" type="matrix" values="0 0 0 0 0 0 0 0 0 0 0 0 0 0 0 0 0 0 127 0" result="hardAlpha"/>
<feMorphology radius="4" operator="erode" in="SourceAlpha" result="effect1_dropShadow_722_10361"/>
<feOffset dy="8"/>
<feGaussianBlur stdDeviation="12"/>
<feComposite in2="hardAlpha" operator="out"/>
<feColorMatrix type="matrix" values="0 0 0 0 0 0 0 0 0 0 0 0 0 0 0 0 0 0 0.08 0"/>
<feBlend mode="normal" in2="BackgroundImageFix" result="effect1_dropShadow_722_10361"/>
<feColorMatrix in="SourceAlpha" type="matrix" values="0 0 0 0 0 0 0 0 0 0 0 0 0 0 0 0 0 0 127 0" result="hardAlpha"/>
<feMorphology radius="6" operator="erode" in="SourceAlpha" result="effect2_dropShadow_722_10361"/>
<feOffset dy="6"/>
<feGaussianBlur stdDeviation="6"/>
<feComposite in2="hardAlpha" operator="out"/>
<feColorMatrix type="matrix" values="0 0 0 0 0 0 0 0 0 0 0 0 0 0 0 0 0 0 0.12 0"/>
<feBlend mode="normal" in2="effect1_dropShadow_722_10361" result="effect2_dropShadow_722_10361"/>
<feBlend mode="normal" in="SourceGraphic" in2="effect2_dropShadow_722_10361" result="shape"/>
</filter>
</defs>
</svg>
