<svg width="35" height="27" viewBox="0 0 35 27" fill="none" xmlns="http://www.w3.org/2000/svg">
<path d="M10.5243 6.88334C10.4051 6.89074 10.4197 7.03719 10.5385 7.05008C24.4039 8.5551 28.9807 17.5725 33.2838 25.1244C33.312 25.1739 33.293 25.2365 33.2424 25.2626L30.5825 26.628C30.5352 26.6523 30.4771 26.6353 30.4504 26.5894L28.5449 23.3188C28.518 23.2728 28.4597 23.2559 28.4122 23.2801C27.7177 23.6345 26.9943 23.928 26.4486 24.0033C10.7281 26.1729 2.3166 4.82151 0.8736 0.786586C0.834746 0.677939 1.03107 0.562665 1.12117 0.634743C4.01756 2.9517 14.2593 1.98662 21.8666 2.4509C29.9726 2.94561 34.0562 9.23913 34.4932 12.4057C34.8783 15.1959 33.0776 17.9746 32.6441 18.5957C32.6019 18.6562 32.5116 18.6452 32.4775 18.5798C26.3249 6.77709 13.9476 6.67105 10.5243 6.88334Z" fill="#9BC352"/>
</svg>
