<svg width="55" height="56" viewBox="0 0 55 56" fill="none" xmlns="http://www.w3.org/2000/svg">
<path d="M27.5 0.296387C22.061 0.296387 16.7442 1.90923 12.2218 4.93097C7.69948 7.95271 4.17473 12.2476 2.09332 17.2726C0.0119153 22.2976 -0.532676 27.8269 0.528417 33.1614C1.58951 38.4958 4.20863 43.3959 8.05457 47.2418C11.9005 51.0878 16.8005 53.7069 22.135 54.768C27.4695 55.8291 32.9988 55.2845 38.0238 53.2031C43.0488 51.1217 47.3437 47.5969 50.3654 43.0746C53.3872 38.5522 55 33.2354 55 27.7964C55 20.5029 52.1027 13.5082 46.9454 8.35095C41.7882 3.1937 34.7935 0.296387 27.5 0.296387ZM42.128 29.5534C42.128 29.554 42.1277 29.5546 42.1272 29.5549L18.5566 41.3401C18.2571 41.4898 17.9242 41.5604 17.5897 41.5453C17.2552 41.5301 16.9301 41.4297 16.6453 41.2536C16.3605 41.0774 16.1255 40.8314 15.9625 40.5388C15.7996 40.2463 15.7141 39.917 15.7143 39.5821V16.0107C15.7145 15.676 15.8002 15.3469 15.9633 15.0546C16.1263 14.7623 16.3614 14.5166 16.6461 14.3406C16.9309 14.1647 17.2558 14.0645 17.5902 14.0494C17.9246 14.0344 18.2572 14.105 18.5566 14.2546L42.128 26.0403C42.4539 26.2036 42.7279 26.4544 42.9193 26.7645C43.1108 27.0746 43.2122 27.4319 43.2122 27.7964C43.2122 28.1609 43.1108 28.5181 42.9193 28.8283C42.728 29.1381 42.4544 29.3887 42.1289 29.552C42.1284 29.5523 42.128 29.5528 42.128 29.5534Z" fill="#283760" fill-opacity="0.55"/>
</svg>
